<?xml version="1.0" encoding="utf-8"?>
<!-- Generator: Adobe Illustrator 16.0.0, SVG Export Plug-In . SVG Version: 6.00 Build 0)  -->
<!DOCTYPE svg PUBLIC "-//W3C//DTD SVG 1.1//EN" "http://www.w3.org/Graphics/SVG/1.1/DTD/svg11.dtd">
<svg version="1.1" xmlns="http://www.w3.org/2000/svg" xmlns:xlink="http://www.w3.org/1999/xlink" x="0px" y="0px" width="496px"
	 height="327px" viewBox="0 0 496 327" enable-background="new 0 0 496 327" xml:space="preserve">
<g id="Layer_3">
</g>
<g id="Layer_1" display="none">
	<g display="inline">
		<g transform="translate(0.000000,665.000000) scale(0.100000,-0.100000)">
			<path fill="#010202" d="M1644.199,6203.94c-10.879-3.623-22.485-5.078-25.747-3.623c-2.896,1.445-10.874,5.439-17.402,8.696
				c-9.79,5.078-17.041,5.806-38.799,3.989c-15.952-1.445-28.652-4.712-31.182-7.617c-2.173-2.896-6.167-5.068-8.345-5.068
				c-7.612,0-18.848-15.229-32.271-43.516c-17.036-35.176-28.643-89.204-33.354-154.468l-2.539-32.998l-34.81-11.25
				c-33.721-11.23-44.238-13.408-100.439-22.832c-56.562-9.062-126.543-36.982-157.734-63.096
				c-21.025-17.402-36.25-42.07-36.25-58.73c0-14.873,6.88-40.977,10.874-40.977c1.812,0,3.989-4.355,5.078-9.434
				c1.455-5.078,5.439-13.779,9.067-19.219c11.592-17.041,19.941-30.82,26.099-43.867c18.14-36.992,53.667-69.258,87.031-78.691
				c11.968-3.262,21.386-7.607,21.386-9.785s-4.712-24.287-10.517-49.316c-5.801-25.01-12.329-56.924-14.497-71.064
				c-3.994-26.475-17.778-59.824-36.626-88.477c-5.796-9.062-14.146-22.842-18.491-30.811c-4.355-7.617-11.611-17.422-16.318-21.035
				c-4.712-3.633-10.874-9.072-13.784-11.611c-9.78-9.775-29.727-19.932-39.521-19.932c-13.408,0-45.684-14.15-55.107-23.574
				c-13.062-13.77-53.667-40.615-79.771-52.939c-15.229-6.895-33.73-19.941-46.777-31.904
				c-20.664-19.941-36.982-44.238-32.275-48.955c1.455-1.084,0.361-2.178-1.807-2.178c-2.549,0-4.355-2.178-4.355-5.078
				s-1.455-5.791-2.9-6.523c-4.717-1.807-24.658-46.055-29.014-64.912c-5.801-23.564-5.078-73.613,1.455-98.984
				c17.402-67.812,55.84-114.209,158.462-191.084c59.463-44.6,89.551-61.279,153.013-85.215
				c31.177-11.602,39.16-16.318,55.107-32.998c28.643-29.365,27.93-35.176-14.502-100.078
				c-39.883-60.557-54.751-96.445-62.725-148.662c-2.91-20.312-7.983-52.578-11.24-71.426c-2.9-18.867-7.617-50.771-10.156-70.723
				c-18.491-144.307-33.359-216.465-47.139-228.428c-6.523-5.439-12.324-33.35-15.952-76.875c-2.178-22.119-5.435-47.5-7.612-56.562
				c-3.994-14.863-3.628-18.125,3.618-31.182c5.088-8.691,12.695-16.318,19.595-18.838c6.152-2.559,15.22-7.627,19.932-11.26
				c4.712-3.623,12.339-6.514,17.051-6.514s22.842-7.627,40.234-16.689c22.49-11.973,41.709-18.848,65.996-23.936l33.73-6.875
				l26.099,7.607c14.146,4.355,42.07,15.225,62.007,24.287c19.946,9.072,43.872,19.59,52.939,23.574
				c18.135,7.617,25.747,18.496,21.396,30.107c-4.355,10.869-18.491,22.471-32.637,26.465
				c-46.411,13.408-74.331,29.727-87.026,51.113c-5.068,8.35-17.397,26.113-27.549,39.541
				c-10.166,13.418-21.401,30.088-25.024,36.963c-3.262,6.885-11.606,18.496-18.491,25.4l-12.324,13.057l5.43,39.15
				c7.256,52.578,20.674,85.576,73.613,186.006c24.297,46.055,44.243,84.492,44.243,85.947c0,1.084,7.964,20.293,17.397,42.773
				c9.79,22.48,18.857,47.148,20.308,54.395c1.45,7.256,12.329,27.559,24.292,45.322c29.009,42.432,55.84,98.271,62.734,130.898
				c9.419,42.422-2.183,89.57-30.103,121.113c-6.162,7.246-11.24,14.863-11.24,17.412c0,5.068-0.356,5.068,58.018-9.072
				c21.03-5.078,47.5-10.879,58.74-12.695c31.548-4.717,101.533-30.82,146.855-54.385c59.102-31.182,59.824-31.553,53.657-40.986
				c-2.534-4.346-9.785-21.738-16.309-38.789c-6.172-17.041-13.423-35.537-15.957-41.699c-8.34-19.941-23.208-68.535-27.197-88.828
				c-2.173-10.879-5.439-28.652-7.612-39.18c-1.816-10.508-3.633-34.443-3.633-52.559c0-35.908-11.24-127.285-19.575-157.012
				c-13.418-49.678-18.491-65.273-22.48-68.535c-15.229-13.779-19.219-26.104-21.03-67.441c-1.094-22.842-3.628-47.871-5.801-55.83
				c-2.539-11.973-2.178-17.041,3.984-29.385c3.989-8.34,10.884-16.309,15.229-17.754c4.351-1.445,40.615-3.271,80.498-3.633
				c71.431-0.713,73.247-1.094,106.602-12.695c31.914-11.23,35.898-11.602,70.708-9.785c38.438,2.178,52.944,6.172,95.723,26.475
				c30.459,14.502,40.615,26.465,33.721,39.16c-8.701,15.576-39.883,30.459-65.986,30.82c-16.68,0.352-41.704,10.869-60.557,26.104
				c-5.078,3.613-12.329,6.895-16.675,6.895c-11.973,0-30.825,13.408-37.71,26.465c-9.067,17.041-48.232,53.301-57.661,53.301
				c-4.341,0-9.058,1.455-10.146,3.623c-2.905,4.717,11.24,60.557,22.119,87.031c26.831,66.719,35.532,85.928,47.134,104.414
				c22.842,35.537,70.713,135.254,89.204,185.664c9.424,26.475,24.653,80.859,28.281,103.34c1.812,10.156,5.796,32.988,9.062,51.484
				l6.167,33.359l-11.606,25.02c-13.413,29.004-44.238,61.27-96.084,100.801c-18.135,13.418-42.788,32.275-55.122,41.699
				c-11.963,9.424-34.81,24.297-50.762,33.359c-15.591,8.711-42.061,24.658-59.102,35.176
				c-17.041,10.146-48.589,27.92-70.347,38.799c-21.753,10.869-49.673,26.104-61.641,33.35
				c-12.329,7.256-28.643,16.689-36.626,20.674c-7.974,3.984-14.497,9.424-14.497,11.963c0,2.549,9.062,7.979,19.941,12.324
				c34.805,12.695,63.813,36.621,73.97,60.566c7.617,19.209,17.769,26.816,55.84,44.951c46.777,22.129,83.398,79.785,93.55,147.227
				c3.267,21.025,8.345,47.129,11.245,58.018c2.896,10.869,7.607,30.459,10.874,43.506c5.801,23.564,20.669,50.029,67.446,122.549
				l23.564,36.27l25.02,3.984c13.413,2.188,44.238,6.533,68.169,9.424c71.792,9.072,101.162,19.229,215.381,75.42
				c32.637,15.957,71.074,37.715,85.21,48.223c14.146,10.527,29.375,21.768,33.721,24.658c9.067,6.533,22.847,40.977,22.847,56.572
				c0,17.773-6.89,26.826-26.47,35.889c-10.518,4.727-30.459,14.15-44.6,20.674c-32.275,15.225-97.9,38.438-126.548,44.6
				c-11.958,2.529-34.81,7.979-50.762,11.602s-44.595,8.701-63.452,10.889c-19.585,2.158-53.306,9.775-77.959,17.764
				c-23.931,7.617-50.039,14.854-58.018,16.309c-18.13,2.539-21.753,7.969-30.459,44.6c-7.251,29.009-22.119,75.42-26.836,83.403
				c-4.346,6.528-40.249,28.643-62.725,38.794c-18.496,8.345-46.411,15.225-68.53,17.407
				C1685.171,6213.73,1668.13,6211.191,1644.199,6203.94z M1995.556,5901.162c9.062-2.891,28.281-8.34,42.422-12.324
				c29.009-7.979,51.855-17.754,51.855-22.109c0-3.262-14.873-9.434-34.448-14.141c-7.983-2.178-21.03-5.449-29.009-7.617
				c-59.463-17.041-172.236-27.92-172.236-17.041c0,5.078,6.89,9.424,29.014,18.125c6.88,2.9,26.104,17.412,42.056,32.637
				C1957.846,5909.511,1962.558,5910.966,1995.556,5901.162z M1455.283,5834.453c0-15.596,1.089-31.182,2.178-34.092
				c3.262-9.062-22.48-9.775-64.902-1.436c-21.392,4.346-38.799,9.053-38.799,10.508c0,4.707,28.647,22.119,63.452,38.799
				C1456.733,5867.441,1455.283,5868.164,1455.283,5834.453z"/>
		</g>
	</g>
</g>
<g id="Layer_2">
	<g>
		<g>
			<g>
				<path d="M279.268,250.69c-29.482,36.731-75.214,56.364-122.151,52.453c-47.65-3.971-90.446-33.813-112.104-76.152
					c-21.234-41.51-19.403-92.177,3.567-132.52C73.616,50.5,121.718,23.824,172.064,24.363
					c62.089,0.665,116.855,44.668,132.776,104.263c0.832,3.111,5.655,1.79,4.822-1.33C295.92,75.859,254.597,35.499,202.751,23.139
					c-46.601-11.11-96.587,2.655-131.649,35.012C37.144,89.489,20.554,136.502,26.22,182.188
					c5.615,45.282,33.108,85.472,72.649,107.985c60.99,34.727,140.279,18.441,183.934-35.947
					C284.8,251.737,281.286,248.176,279.268,250.69L279.268,250.69z"/>
			</g>
		</g>
		<g>
			<g>
				<path d="M272.825,249.535c-31.421,37.509-81.184,55.187-129.233,45.888c-47.546-9.201-86.762-44.986-101.53-90.849
					c-14.688-45.614-2.851-96.268,29.303-131.5c34.478-37.777,89.142-51.742,137.803-37.091
					c43.711,13.161,77.709,49.229,89.816,92.951c0.344,1.241,2.272,0.714,1.928-0.531C286.765,77.308,243.827,38.486,191.435,29.8
					C144.766,22.062,96.56,40.323,65.976,76.166c-28.984,33.968-38.89,80.934-27.338,123.873
					c11.716,43.55,45.619,78.544,88.131,92.991c52.519,17.847,112.057,0.195,147.47-42.081
					C275.062,249.968,273.654,248.545,272.825,249.535L272.825,249.535z"/>
			</g>
		</g>
	</g>
</g>
<g id="Layer_5" display="none">
</g>
<g id="Layer_6">
	<g>
		<g transform="translate(0.000000,440.000000) scale(0.100000,-0.100000)">
			<path fill="#010202" d="M1317.495,3980.731c-96.567-33.11-154.516-92.148-162.236-166.65
				c-2.764-23.735-6.074-31.46-15.454-36.416c-7.173-3.306-17.109-9.399-22.07-13.799c-5.527-4.409-19.316-12.695-30.352-18.213
				c-80.562-40.83-86.084-144.023-14.897-280.322c8.828-17.1,19.863-41.943,24.824-55.186c8.281-23.174,8.281-23.73-6.064-35.859
				l-14.351-12.695h24.834c30.903,0,31.455-4.424,6.069-44.15c-16.553-25.938-77.256-144.59-91.602-179.346
				c-2.207-6.064-12.139-29.795-20.967-52.422c-9.39-22.617-17.109-44.131-17.109-48.008c0-3.857-2.207-7.178-5.518-7.178
				c-2.759,0-5.522-4.414-5.522-9.932s-8.828-30.898-19.858-56.289c-49.116-117.549-83.872-155.068-191.484-209.688
				c-42.49-21.523-90.498-62.363-113.125-95.469c-28.696-43.047-36.973-72.842-36.973-136.855c0-56.289,1.099-59.59,21.523-101.523
				c23.174-46.914,51.318-81.133,91.05-109.824c54.082-39.18,144.575-57.383,211.895-42.48c12.7,2.754,43.047,9.375,67.329,14.355
				c65.664,14.336,229.556,67.314,382.412,123.594c51.318,19.316,51.318,19.316,37.524-30.352
				c-17.656-64.561-20.42-81.123-39.18-239.482c-12.139-103.193-23.726-173.271-38.076-229.004
				c-17.661-71.748-24.277-91.611-32.554-98.232c-10.488-8.281-48.017-157.266-48.017-192.588
				c0-24.834,17.666-27.588,226.255-29.795c177.686-2.197,192.583-1.65,226.792,8.828c50.225,14.893,71.743,30.898,83.335,61.25
				c7.173,20.42,7.72,27.588,2.197,38.623c-6.064,12.148-10.483,13.252-58.486,16.562c-28.696,1.65-63.467,6.055-77.256,9.932
				c-52.422,13.799-115.879,49.668-157.822,89.951l-23.174,22.061l16.553,41.953c8.828,23.73,19.868,50.195,23.73,59.043
				c4.414,9.365,17.656,42.471,30.347,74.492c12.69,32.002,33.662,83.877,46.909,115.879
				c20.415,49.111,43.589,107.061,94.912,240.059c4.414,12.119,10.483,27.021,12.69,33.105
				c30.347,75.039,49.116,138.506,54.077,180.43c5.522,44.15-1.104,74.492-24.272,112.588
				c-24.287,39.17-51.323,48.545-129.131,44.131c-32.012-1.65-80.02-4.404-107.607-6.055
				c-165.547-8.848-263.223-16.553-265.43-20.42c-1.655-2.217-12.69-4.424-24.829-4.424c-19.321,0-21.523,1.66-21.523,13.799
				c0,7.725,2.202,18.213,4.966,23.74c2.212,4.951,9.937,21.504,16.558,36.406c32.554,72.842,65.664,102.08,135.195,119.199
				c87.739,22.09,120.854,49.658,120.854,100.977c-0.552,25.381-9.937,66.23-24.287,102.1c-2.759,7.168-6.621,37.52-8.828,68.418
				l-3.306,55.732l21.523-3.857c81.108-14.902,231.763-18.77,338.813-7.725c75.044,7.178,81.118,7.178,149.541-1.104
				c55.181-6.621,93.257-3.877,209.141,13.789c97.676,14.902,138.511,19.854,199.751,24.277c53.535,4.434,62.91,6.631,96.582,25.381
				c20.41,11.602,46.348,27.607,56.836,35.869c31.465,24.854,40.293,27.051,116.973,36.426
				c133.008,15.449,128.594,14.346,130.254,31.455c1.094,8.271,0,14.902-2.754,15.449c-2.227,0-9.395,1.113-15.469,2.217
				c-6.074,1.094-54.629,4.951-107.598,8.271l-97.129,5.527l-65.664-28.701c-77.812-34.219-77.246-34.219-242.798-19.316
				c-252.734,22.617-343.233,23.73-395.108,3.867c-24.829-9.385-26.484-8.818-74.492,3.857
				c-61.26,16.006-169.966,32.568-266.533,39.746c-40.835,3.301-75.049,7.148-76.157,8.262
				c-4.409,4.414,20.972,66.777,29.253,73.389c6.616,4.971,16.558,3.32,44.692-6.611c19.868-6.621,40.835-11.045,46.357-9.941
				c14.897,4.424,32.554,28.145,32.554,44.697c0,7.725,5.518,19.863,11.592,26.504c6.616,7.158,12.134,19.316,12.69,28.125
				c1.104,21.533,6.069,27.598,25.386,32.012c9.38,2.197,16.548,4.424,16.548,5.527c0,1.65-4.961,15.986-11.582,33.105
				c-12.139,32.539-12.139,54.619,0,100.977c9.932,38.076,9.38,122.51-1.104,142.373c-13.799,27.041-61.807,66.768-96.572,80.02
				C1432.27,4000.043,1383.164,4002.802,1317.495,3980.731z M1196.094,3662.333c25.933-78.906,30.898-147.891,12.686-188.174
				c-5.518-13.242-12.686-24.277-15.449-24.277c-3.315,0-5.518,17.646-5.518,39.17c0,38.076-12.695,99.883-30.898,148.447
				c-15.459,42.48-18.76,73.389-8.281,81.113C1169.053,3734.071,1174.57,3727.44,1196.094,3662.333z"/>
		</g>
	</g>
</g>
<g id="Layer_4" display="none">
	<g display="inline">
		<path d="M183.789,164.833l-1.531-35.123h8.422l0.861,28.232h2.201l0.957-28.232h8.326l0.957,28.232h2.201l0.861-28.232h8.422
			l-1.531,35.123h-14.164l-0.574-10.336h-0.67l-0.574,10.336H183.789z"/>
		<path d="M218.816,164.833V129.71h20.959v35.123H218.816z M231.354,157.943v-21.342h-4.115v21.342H231.354z"/>
		<path d="M243.604,164.833V129.71h20.959v12.729l-4.498,4.881l4.498,4.785v12.729h-8.422V152.2l-1.531-1.531h-2.584v14.164H243.604
			z M252.025,143.778h2.584l1.531-1.531v-5.646h-4.115V143.778z"/>
		<path d="M268.391,164.833V129.71h8.422v14.068h2.584l1.531-1.531V129.71h8.422v12.729l-4.785,4.881l4.785,4.785v12.729h-8.422
			V152.2l-1.531-1.531h-2.584v14.164H268.391z"/>
		<path d="M293.178,164.833V129.71h20.959v35.123H293.178z M305.715,157.943v-21.342H301.6v21.342H305.715z"/>
		<path d="M317.965,129.71h8.422v28.232h4.115V129.71h8.422v35.123h-20.959V129.71z"/>
		<path d="M342.752,136.601v-6.891h20.959v6.891h-6.316v28.232h-8.422v-28.232H342.752z"/>
		<path d="M378.306,129.71h20.959v12.729l-4.498,4.785l4.498,4.881v12.729h-20.959V129.71z M386.728,143.778h2.584l1.531-1.531
			v-5.646h-4.115V143.778z M390.843,152.2l-1.531-1.531h-2.584v7.273h4.115V152.2z"/>
		<path d="M415.63,142.247V129.71h8.422v12.729l-6.221,6.651v15.743h-8.422v-15.647l-6.316-6.747V129.71h8.422v12.537l1.531,1.531
			h1.053L415.63,142.247z"/>
		<path d="M215.036,223.633V188.51h20.959v11.963h-8.422v-5.072h-4.115v21.342h4.115v-7.273h-2.297v-6.891h10.719v21.055H215.036z"
			/>
		<path d="M239.823,188.51h8.422v35.123h-8.422V188.51z"/>
		<path d="M252.073,223.633V188.51h20.959v6.891h-12.537v7.178h10.432v6.891h-10.432v7.273h12.537v6.891H252.073z"/>
		<path d="M276.86,200.234V188.51h20.959v12.25h-8.422v-5.359h-4.115v4.115l12.537,12.346v11.771H276.86v-12.25h8.422v5.359h4.115
			v-4.115L276.86,200.234z"/>
		<path d="M301.647,200.234V188.51h20.959v12.25h-8.422v-5.359h-4.115v4.115l12.537,12.346v11.771h-20.959v-12.25h8.422v5.359h4.115
			v-4.115L301.647,200.234z"/>
		<path d="M326.435,188.51h8.422v35.123h-8.422V188.51z"/>
		<path d="M338.685,223.633V188.51h8.422l4.115,13.59v-13.59h8.422v35.123h-8.135l-4.402-13.59v13.59H338.685z"/>
		<path d="M363.472,223.633V188.51h20.959v11.963h-8.422v-5.072h-4.115v21.342h4.115v-7.273h-2.297v-6.891h10.719v21.055H363.472z"
			/>
	</g>
</g>
<g id="Layer_7">
</g>
<g id="Layer_8_copy">
</g>
<g id="Layer_8">
	<text transform="matrix(1 0 0 1 182.8711 182.6915)" font-family="'Alienscows-Heavy'" font-size="71">Workout</text>
	<rect x="182.871" y="201.412" fill="none" width="333.409" height="42"/>
	<text transform="matrix(1 0 0 1 182.8711 237.4025)"><tspan x="0" y="0" font-family="'Alienscows-Bold'" font-size="61">by Giessing</tspan><tspan x="299.086" y="0" font-family="'Alienscows-Bold'" font-size="60"> </tspan></text>
</g>
<g id="Layer_10" display="none">
</g>
</svg>
