<?xml version="1.0" encoding="utf-8"?>
<!-- Generator: Adobe Illustrator 22.0.0, SVG Export Plug-In . SVG Version: 6.00 Build 0)  -->
<svg version="1.1" xmlns="http://www.w3.org/2000/svg" xmlns:xlink="http://www.w3.org/1999/xlink" x="0px" y="0px"
	 viewBox="0 0 729.9 743.7" style="enable-background:new 0 0 729.9 743.7;" xml:space="preserve">
<style type="text/css">
	.st0{fill:#F9AC00;}
	.st1{fill:#4C4C4C;}
	.st2{fill:#FFFFFF;}
	.st3{stroke:#000000;stroke-width:15;stroke-miterlimit:10;}
</style>
<g id="Lag_1">
	<g>
		<g>
			<line class="st0" x1="180.2" y1="189.7" x2="544.7" y2="554.2"/>
			<g>
				<path class="st1" d="M175.9,193.9c12.1,12.1,24.1,24.1,36.2,36.2c29,29,58,58,87,87c35.1,35.1,70.2,70.2,105.2,105.2
					c30.4,30.4,60.7,60.7,91.1,91.1c14.8,14.8,29.1,30.1,44.4,44.4c0.2,0.2,0.4,0.4,0.6,0.6c5.5,5.5,14-3,8.5-8.5
					c-12.1-12.1-24.1-24.1-36.2-36.2c-29-29-58-58-87-87c-35.1-35.1-70.2-70.2-105.2-105.2c-30.4-30.4-60.7-60.7-91.1-91.1
					c-14.8-14.8-29.1-30.1-44.4-44.4c-0.2-0.2-0.4-0.4-0.6-0.6C179,180,170.5,188.5,175.9,193.9L175.9,193.9z"/>
			</g>
		</g>
		<g>
			<line class="st0" x1="544.7" y1="189.7" x2="180.2" y2="554.2"/>
			<g>
				<path class="st1" d="M540.4,185.5c-12.1,12.1-24.1,24.1-36.2,36.2c-29,29-58,58-87,87c-35.1,35.1-70.2,70.2-105.2,105.2
					c-30.4,30.4-60.7,60.7-91.1,91.1c-14.8,14.8-30.1,29.1-44.4,44.4c-0.2,0.2-0.4,0.4-0.6,0.6c-5.5,5.5,3,14,8.5,8.5
					c12.1-12.1,24.1-24.1,36.2-36.2c29-29,58-58,87-87c35.1-35.1,70.2-70.2,105.2-105.2c30.4-30.4,60.7-60.7,91.1-91.1
					c14.8-14.8,30.1-29.1,44.4-44.4c0.2-0.2,0.4-0.4,0.6-0.6C554.4,188.5,545.9,180,540.4,185.5L540.4,185.5z"/>
			</g>
		</g>
	</g>
	<g>
		<path d="M248.6,109.1l4.8,4.8c0,0-26.9,30.2-43.9,52.9c0,0-12.9,13.4-26.6,17.6c-13.7,4.2-6.2,1.7-6.2,1.7l-7.6-7.6L248.6,109.1z"
			/>
		<path d="M96.3,255.3l-4.8-4.8c0,0,26.9-30.2,43.9-52.9c0,0,12.9-13.4,26.6-17.6c13.7-4.2,6.2-1.7,6.2-1.7l7.6,7.6L96.3,255.3z"/>
		<circle cx="173" cy="181.6" r="8.9"/>
	</g>
	<g>
		<path d="M644.6,501.1l4.8,4.8c0,0-26.9,30.2-43.9,52.9c0,0-12.9,13.4-26.6,17.6c-13.7,4.2-6.2,1.7-6.2,1.7l-7.6-7.6L644.6,501.1z"
			/>
		<path d="M492.3,647.3l-4.8-4.8c0,0,26.9-30.2,43.9-52.9c0,0,12.9-13.4,26.6-17.6c13.7-4.2,6.2-1.7,6.2-1.7l7.6,7.6L492.3,647.3z"
			/>
		<circle cx="569" cy="573.6" r="8.9"/>
	</g>
	<g>
		<path d="M99.4,488.1l4.8-4.8c0,0,30.2,26.9,52.9,43.9c0,0,13.4,12.9,17.6,26.6c4.2,13.7,1.7,6.2,1.7,6.2l-7.6,7.6L99.4,488.1z"/>
		<path d="M245.5,640.3l-4.8,4.8c0,0-30.2-26.9-52.9-43.9c0,0-13.4-12.9-17.6-26.6c-4.2-13.7-1.7-6.2-1.7-6.2l7.6-7.6L245.5,640.3z"
			/>
		<circle cx="171.9" cy="563.6" r="8.9"/>
	</g>
	<g>
		<path d="M375.2,223.7h-28c0,0-2,102-46,135v62c0,0,37,45,37,66h37V223.7z"/>
		<path d="M349.2,223.7h28c0,0,2,102,46,135v62c0,0-37,45-37,66h-37V223.7z"/>
	</g>
	<g>
		<path d="M485.4,98.1l4.8-4.8c0,0,30.2,26.9,52.9,43.9c0,0,13.4,12.9,17.6,26.6s1.7,6.2,1.7,6.2l-7.6,7.6L485.4,98.1z"/>
		<path d="M631.5,250.3l-4.8,4.8c0,0-30.2-26.9-52.9-43.9c0,0-13.4-12.9-17.6-26.6c-4.2-13.7-1.7-6.2-1.7-6.2l7.6-7.6L631.5,250.3z"
			/>
		<circle cx="557.9" cy="173.6" r="8.9"/>
	</g>
</g>
<g id="Lag_2">
	<g>
		<path d="M524.1,199.9l6.7-6.7c0,0,12.1-20.2,10.8-21.5c-1.3-1.3,28.3-28.3,37.7-18.8l2.7,2.7l-51.2,51.2L524.1,199.9z"/>
		<path d="M534.9,210.7l6.7-6.7c0,0,20.2-12.1,21.5-10.8s28.3-28.3,18.8-37.7l-2.7-2.7L528.2,204L534.9,210.7z"/>
	</g>
	<g>
		<path d="M210,208.9l-6.7-6.7c0,0-12.1-20.2-10.8-21.5c1.3-1.3-28.3-28.3-37.7-18.8l-2.7,2.7l51.2,51.2L210,208.9z"/>
		<path d="M199.2,219.7l-6.7-6.7c0,0-20.2-12.1-21.5-10.8c-1.3,1.3-28.3-28.3-18.8-37.7l2.7-2.7L206,213L199.2,219.7z"/>
	</g>
	<g>
		<path d="M210,534.6l-6.7,6.7c0,0-12.1,20.2-10.8,21.5c1.3,1.3-28.3,28.3-37.7,18.8l-2.7-2.7l51.2-51.2L210,534.6z"/>
		<path d="M199.2,523.8l-6.7,6.7c0,0-20.2,12.1-21.5,10.8c-1.3-1.3-28.3,28.3-18.8,37.7l2.7,2.7l51.2-51.2L199.2,523.8z"/>
	</g>
	<g>
		<path d="M526.1,546.6l6.7,6.7c0,0,12.1,20.2,10.8,21.5c-1.3,1.3,28.3,28.3,37.7,18.8l2.7-2.7l-51.2-51.2L526.1,546.6z"/>
		<path d="M536.9,535.8l6.7,6.7c0,0,20.2,12.1,21.5,10.8s28.3,28.3,18.8,37.7l-2.7,2.7l-51.2-51.2L536.9,535.8z"/>
	</g>
</g>
<g id="Lag_3">
</g>
<g id="Lag_4">
	<g>
		<g>
			<g>
				<path class="st2" d="M177.2,49.7c-75.7,0-137,61.3-137,137s61.3,137,137,137s137-61.3,137-137S252.8,49.7,177.2,49.7z
					 M273.7,178.2c0.1,3.2-0.2,6.4-1,9.4c0.1,0.6,0.1,1.3,0.1,2c0.2,3.5-0.3,6.9-1.2,10.1c0.7,2.6,1.1,5.4,1.2,8.2
					c0.1,2.2,0,4.3-0.4,6.4c0.2,1.3,0.3,2.7,0.4,4c0.2,4.2-0.5,8.2-1.8,12c0,0.4,0.1,0.7,0.1,1c0.3,7.7-2.2,14.9-6.6,21
					c-4.5,15.1-19.8,26.5-35.7,26.5c-1.7,0-3.4-0.1-5.1-0.4c-3.5,1.9-7.3,3.3-11.2,4.1c-6,4.5-13.2,7.2-20.7,7.5
					c-4.8,2.2-10,3.5-15.3,3.5c-7.5,0-14.3-2.2-19.9-6c-2.3,0.5-4.7,0.8-7.1,0.8c-13.2,0-24.2-6.8-30.7-17c-2.1-0.1-4.1-0.4-6.1-0.9
					c-7.6-1.7-15.1-7.3-19.9-13.7c-8.4-6.8-13.7-17.4-14.2-28.9c-0.2-5,0.8-9.8,2.7-14.2c-0.7-1.8-1.3-3.7-1.7-5.6
					c-4.2-6-6.7-13.4-7.1-21.1c-0.3-6.4,1.4-12.4,4.5-17.7c0-0.5-0.1-0.9-0.1-1.4c-0.4-9.8,3.8-18.9,10.5-25.6
					c1.1-14.4,12.1-26.6,25.5-31.2c5.6-7.2,13.8-12.4,22.7-14.3c7.1-8.3,17.7-13.8,28.7-13.8c5.9,0,11.4,1.4,16.3,3.8
					c5-2.4,10.4-3.8,15.9-3.8c13.4,0,24.5,7.1,31,17.4c0.3,0.2,0.7,0.4,1,0.7c5.4,0,11,1.5,15.4,3.3c6.1,2.6,10.8,6.2,14.8,11.4
					c5,6.5,7.6,14.4,7.7,22.3c5.3,6.5,8.6,14.7,8.9,23.6c0.2,4.4-0.6,8.7-2.1,12.7C273.5,175.6,273.7,176.9,273.7,178.2z"/>
				<path d="M177.2,329.7c-78.9,0-143-64.1-143-143s64.1-143,143-143s143,64.1,143,143S256,329.7,177.2,329.7z M177.2,55.7
					c-72.2,0-131,58.8-131,131s58.8,131,131,131s131-58.8,131-131S249.4,55.7,177.2,55.7z"/>
			</g>
			<g>
				<path d="M177.2,67.7c-31.8,0-61.7,12.4-84.1,34.9s-34.9,52.4-34.9,84.1s12.4,61.7,34.9,84.1s52.4,34.9,84.1,34.9
					s61.7-12.4,84.1-34.9s34.9-52.4,34.9-84.1s-12.4-61.7-34.9-84.1S209,67.7,177.2,67.7 M177.2,49.7L177.2,49.7
					c75.7,0,137,61.3,137,137s-61.3,137-137,137s-137-61.3-137-137S101.5,49.7,177.2,49.7z"/>
				<path d="M177.2,329.7c-78.9,0-143-64.1-143-143s64.1-143,143-143s143,64.1,143,143S256,329.7,177.2,329.7z M177.2,55.7
					c-72.2,0-131,58.8-131,131s58.8,131,131,131s131-58.8,131-131S249.4,55.7,177.2,55.7z M177.2,311.7c-33.4,0-64.8-13-88.4-36.6
					c-23.6-23.6-36.6-55-36.6-88.4s13-64.8,36.6-88.4c23.6-23.6,55-36.6,88.4-36.6s64.8,13,88.4,36.6c23.6,23.6,36.6,55,36.6,88.4
					s-13,64.8-36.6,88.4C242,298.7,210.6,311.7,177.2,311.7z M177.2,73.7c-30.2,0-58.6,11.8-79.9,33.1
					c-21.3,21.3-33.1,49.7-33.1,79.9s11.8,58.6,33.1,79.9c21.3,21.3,49.7,33.1,79.9,33.1s58.6-11.8,79.9-33.1
					c21.3-21.3,33.1-49.7,33.1-79.9s-11.8-58.6-33.1-79.9C235.7,85.5,207.4,73.7,177.2,73.7z"/>
			</g>
		</g>
		<g>
			<g>
				<path class="st2" d="M177.2,419.7c-75.7,0-137,61.3-137,137s61.3,137,137,137s137-61.3,137-137S252.8,419.7,177.2,419.7z
					 M266.5,605.4c-0.1,7.9-2.7,15.8-7.7,22.3c-1,1.3-2,2.4-3.1,3.5c-6,12.6-19.7,21.7-33.8,21.7c-1,0-1.9,0-2.9-0.1
					c-6.1,4.8-13.8,7.8-22.4,7.8c-5.5,0-11-1.4-15.9-3.8c-4.8,2.4-10.3,3.8-16.3,3.8c-10.9,0-21.6-5.4-28.7-13.8
					c-8.9-1.8-17.2-7.1-22.7-14.3c-13.4-4.6-24.4-16.9-25.5-31.2c-6.7-6.7-11-15.8-10.5-25.6c0-0.5,0.1-1,0.1-1.4
					c-3.1-5.3-4.7-11.4-4.5-17.7c0.3-7.8,2.9-15.1,7.1-21.1c0.4-1.9,1-3.8,1.7-5.6c-1.9-4.4-2.9-9.2-2.7-14.2
					c0.5-11.5,5.8-22,14.2-28.9c4.8-6.4,12.4-12,19.9-13.7c2-0.5,4.1-0.7,6.1-0.9c6.5-10.1,17.5-17,30.7-17c2.4,0,4.7,0.3,7.1,0.8
					c5.7-3.8,12.4-6,19.9-6c5.3,0,10.5,1.3,15.3,3.5c7.4,0.3,14.7,3.1,20.7,7.5c3.9,0.7,7.7,2.2,11.2,4.1c1.6-0.2,3.3-0.4,5.1-0.4
					c11.4,0,22.5,5.9,29.5,14.8c3.9,4.3,6.9,9.6,8.5,15.4c2.9,5.2,4.5,11.1,4.2,17.3c0,0.4-0.1,0.7-0.1,1c1.3,3.8,2,7.8,1.8,12
					c-0.1,1.4-0.2,2.7-0.4,4c0.3,2.1,0.5,4.2,0.4,6.4c-0.1,2.8-0.5,5.5-1.2,8.2c0.9,3.2,1.4,6.6,1.2,10.1c0,0.7-0.1,1.3-0.1,2
					c0.8,3,1.2,6.1,1,9.4c-0.1,1.3-0.2,2.5-0.4,3.8c1.5,4,2.3,8.3,2.1,12.7C275.1,590.7,271.8,599,266.5,605.4z"/>
				<path d="M320.2,556.7c0,78.9-64.1,143-143,143s-143-64.1-143-143s64.1-143,143-143S320.2,477.9,320.2,556.7z M308.2,556.7
					c0-72.2-58.8-131-131-131s-131,58.8-131,131s58.8,131,131,131S308.2,628.9,308.2,556.7z"/>
			</g>
			<g>
				<path d="M177.2,675.7c31.8,0,61.7-12.4,84.1-34.9c22.5-22.5,34.9-52.4,34.9-84.1s-12.4-61.7-34.9-84.1
					c-22.5-22.5-52.4-34.9-84.1-34.9s-61.7,12.4-84.1,34.9c-22.5,22.5-34.9,52.4-34.9,84.1s12.4,61.7,34.9,84.1
					C115.5,663.3,145.4,675.7,177.2,675.7 M40.2,556.7c0-75.7,61.3-137,137-137s137,61.3,137,137s-61.3,137-137,137l0,0
					C101.5,693.7,40.2,632.4,40.2,556.7z"/>
				<path d="M320.2,556.7c0,78.9-64.1,143-143,143s-143-64.1-143-143s64.1-143,143-143S320.2,477.9,320.2,556.7z M308.2,556.7
					c0-72.2-58.8-131-131-131s-131,58.8-131,131s58.8,131,131,131S308.2,628.9,308.2,556.7z M265.6,468.3
					c23.6,23.6,36.6,55,36.6,88.4s-13,64.8-36.6,88.4c-23.6,23.6-55,36.6-88.4,36.6s-64.8-13-88.4-36.6
					c-23.6-23.6-36.6-55-36.6-88.4s13-64.8,36.6-88.4c23.6-23.6,55-36.6,88.4-36.6S242,444.7,265.6,468.3z M257.1,636.6
					c21.3-21.3,33.1-49.7,33.1-79.9s-11.8-58.6-33.1-79.9c-21.3-21.3-49.7-33.1-79.9-33.1s-58.6,11.8-79.9,33.1
					c-21.3,21.3-33.1,49.7-33.1,79.9s11.8,58.6,33.1,79.9c21.3,21.3,49.7,33.1,79.9,33.1S235.7,657.9,257.1,636.6z"/>
			</g>
		</g>
		<path class="st3" d="M177.2,329.7c0,0,45,39,0,84l20,13.5c0,0,52-61.5,0-109.5L177.2,329.7z"/>
		<path class="st3" d="M364.2,260.8c-18.2-0.8-38.7-6.2-60.1-19.9l-21.1,20c0,0,36,19.4,81.1,22.7
			C364.1,276,364.2,268.4,364.2,260.8z"/>
		<path class="st3" d="M354.7,453c-23.6,0.9-48.6,7-71.7,23l18.8,20c0,0,22.5-16.6,56-19.5C356.6,468.7,355.5,460.9,354.7,453z"/>
	</g>
	<g>
		<g>
			<g>
				<path class="st2" d="M408.2,186.7c0,75.7,61.3,137,137,137s137-61.3,137-137s-61.3-137-137-137S408.2,111,408.2,186.7z
					 M449,174.4c-1.5-4-2.3-8.3-2.1-12.7c0.4-8.9,3.6-17.2,8.9-23.6c0.1-7.9,2.7-15.8,7.7-22.3c4-5.2,8.7-8.8,14.8-11.4
					c4.4-1.9,10-3.3,15.4-3.3c0.3-0.2,0.7-0.5,1-0.7c6.5-10.4,17.6-17.4,31-17.4c5.5,0,11,1.4,15.9,3.8c4.8-2.4,10.3-3.8,16.3-3.8
					c10.9,0,21.6,5.4,28.7,13.8c8.9,1.8,17.2,7.1,22.7,14.3c13.4,4.6,24.4,16.9,25.5,31.2c6.7,6.7,11,15.8,10.5,25.6
					c0,0.5-0.1,1-0.1,1.4c3.1,5.3,4.7,11.4,4.5,17.7c-0.3,7.8-2.9,15.1-7.1,21.1c-0.4,1.9-1,3.8-1.7,5.6c1.9,4.4,2.9,9.2,2.7,14.2
					c-0.5,11.5-5.8,22-14.2,28.9c-4.8,6.4-12.4,12-19.9,13.7c-2,0.5-4.1,0.7-6.1,0.9c-6.5,10.1-17.5,17-30.7,17
					c-2.4,0-4.7-0.3-7.1-0.8c-5.7,3.8-12.4,6-19.9,6c-5.3,0-10.5-1.3-15.3-3.5c-7.4-0.3-14.7-3.1-20.7-7.5
					c-3.9-0.7-7.7-2.2-11.2-4.1c-1.6,0.2-3.3,0.4-5.1,0.4c-15.8,0-31.1-11.4-35.7-26.5c-4.4-6-6.9-13.3-6.6-21c0-0.4,0.1-0.7,0.1-1
					c-1.3-3.8-2-7.8-1.8-12c0.1-1.4,0.2-2.7,0.4-4c-0.3-2.1-0.5-4.2-0.4-6.4c0.1-2.8,0.5-5.5,1.2-8.2c-0.9-3.2-1.4-6.6-1.2-10.1
					c0-0.7,0.1-1.3,0.1-2c-0.8-3-1.2-6.1-1-9.4C448.7,176.9,448.8,175.6,449,174.4z"/>
				<path d="M402.2,186.7c0-78.9,64.1-143,143-143s143,64.1,143,143s-64.1,143-143,143S402.2,265.6,402.2,186.7z M414.2,186.7
					c0,72.2,58.8,131,131,131s131-58.8,131-131s-58.8-131-131-131S414.2,114.5,414.2,186.7z"/>
			</g>
			<g>
				<path d="M545.2,67.7c-31.8,0-61.7,12.4-84.1,34.9s-34.9,52.4-34.9,84.1s12.4,61.7,34.9,84.1s52.4,34.9,84.1,34.9
					s61.7-12.4,84.1-34.9c22.5-22.5,34.9-52.4,34.9-84.1s-12.4-61.7-34.9-84.1C606.9,80.1,577,67.7,545.2,67.7 M682.2,186.7
					c0,75.7-61.3,137-137,137s-137-61.3-137-137s61.3-137,137-137l0,0C620.8,49.7,682.2,111,682.2,186.7z"/>
				<path d="M402.2,186.7c0-78.9,64.1-143,143-143s143,64.1,143,143s-64.1,143-143,143S402.2,265.6,402.2,186.7z M414.2,186.7
					c0,72.2,58.8,131,131,131s131-58.8,131-131s-58.8-131-131-131S414.2,114.5,414.2,186.7z M456.8,275.1
					c-23.6-23.6-36.6-55-36.6-88.4s13-64.8,36.6-88.4c23.6-23.6,55-36.6,88.4-36.6s64.8,13,88.4,36.6c23.6,23.6,36.6,55,36.6,88.4
					s-13,64.8-36.6,88.4c-23.6,23.6-55,36.6-88.4,36.6S480.4,298.7,456.8,275.1z M465.3,106.8c-21.3,21.3-33.1,49.7-33.1,79.9
					s11.8,58.6,33.1,79.9c21.3,21.3,49.7,33.1,79.9,33.1s58.6-11.8,79.9-33.1c21.3-21.3,33.1-49.7,33.1-79.9s-11.8-58.6-33.1-79.9
					c-21.3-21.3-49.7-33.1-79.9-33.1S486.6,85.5,465.3,106.8z"/>
			</g>
		</g>
		<g>
			<g>
				<path class="st2" d="M408.2,556.7c0,75.7,61.3,137,137,137s137-61.3,137-137s-61.3-137-137-137S408.2,481,408.2,556.7z
					 M446.9,581.8c-0.2-4.4,0.6-8.7,2.1-12.7c-0.2-1.2-0.3-2.5-0.4-3.8c-0.1-3.2,0.2-6.4,1-9.4c-0.1-0.6-0.1-1.3-0.1-2
					c-0.2-3.5,0.3-6.9,1.2-10.1c-0.7-2.6-1.1-5.4-1.2-8.2c-0.1-2.2,0-4.3,0.4-6.4c-0.2-1.3-0.3-2.7-0.4-4c-0.2-4.2,0.5-8.2,1.8-12
					c0-0.4-0.1-0.7-0.1-1c-0.3-6.2,1.3-12.1,4.2-17.3c1.7-5.8,4.6-11.1,8.5-15.4c7-8.9,18.1-14.8,29.5-14.8c1.7,0,3.4,0.1,5.1,0.4
					c3.5-1.9,7.3-3.3,11.2-4.1c6-4.5,13.2-7.2,20.7-7.5c4.8-2.2,10-3.5,15.3-3.5c7.5,0,14.3,2.2,19.9,6c2.3-0.5,4.7-0.8,7.1-0.8
					c13.2,0,24.2,6.8,30.7,17c2.1,0.1,4.1,0.4,6.1,0.9c7.6,1.7,15.1,7.3,19.9,13.7c8.4,6.8,13.7,17.4,14.2,28.9
					c0.2,5-0.8,9.8-2.7,14.2c0.7,1.8,1.3,3.7,1.7,5.6c4.2,6,6.7,13.4,7.1,21.1c0.3,6.4-1.4,12.4-4.5,17.7c0,0.5,0.1,0.9,0.1,1.4
					c0.4,9.8-3.8,18.9-10.5,25.6c-1.1,14.4-12.1,26.6-25.5,31.2c-5.6,7.2-13.8,12.4-22.7,14.3c-7.1,8.3-17.7,13.8-28.7,13.8
					c-5.9,0-11.4-1.4-16.3-3.8c-5,2.4-10.4,3.8-15.9,3.8c-8.6,0-16.3-2.9-22.4-7.8c-0.9,0.1-1.9,0.1-2.9,0.1
					c-14.1,0-27.8-9-33.8-21.7c-1.1-1.1-2.1-2.2-3.1-3.5c-5-6.5-7.6-14.4-7.7-22.3C450.6,599,447.3,590.7,446.9,581.8z"/>
				<path d="M545.2,413.7c78.9,0,143,64.1,143,143s-64.1,143-143,143s-143-64.1-143-143S466.3,413.7,545.2,413.7z M545.2,687.7
					c72.2,0,131-58.8,131-131s-58.8-131-131-131s-131,58.8-131,131S472.9,687.7,545.2,687.7z"/>
			</g>
			<g>
				<path d="M545.2,675.7c31.8,0,61.7-12.4,84.1-34.9c22.5-22.5,34.9-52.4,34.9-84.1s-12.4-61.7-34.9-84.1
					c-22.5-22.5-52.4-34.9-84.1-34.9s-61.7,12.4-84.1,34.9c-22.5,22.5-34.9,52.4-34.9,84.1s12.4,61.7,34.9,84.1
					C483.5,663.3,513.4,675.7,545.2,675.7 M545.2,693.7L545.2,693.7c-75.7,0-137-61.3-137-137s61.3-137,137-137s137,61.3,137,137
					S620.8,693.7,545.2,693.7z"/>
				<path d="M545.2,413.7c78.9,0,143,64.1,143,143s-64.1,143-143,143s-143-64.1-143-143S466.3,413.7,545.2,413.7z M545.2,687.7
					c72.2,0,131-58.8,131-131s-58.8-131-131-131s-131,58.8-131,131S472.9,687.7,545.2,687.7z M545.2,431.7c33.4,0,64.8,13,88.4,36.6
					c23.6,23.6,36.6,55,36.6,88.4s-13,64.8-36.6,88.4c-23.6,23.6-55,36.6-88.4,36.6s-64.8-13-88.4-36.6
					c-23.6-23.6-36.6-55-36.6-88.4s13-64.8,36.6-88.4C480.4,444.7,511.8,431.7,545.2,431.7z M545.2,669.7
					c30.2,0,58.6-11.8,79.9-33.1c21.3-21.3,33.1-49.7,33.1-79.9s-11.8-58.6-33.1-79.9c-21.3-21.3-49.7-33.1-79.9-33.1
					s-58.6,11.8-79.9,33.1c-21.3,21.3-33.1,49.7-33.1,79.9s11.8,58.6,33.1,79.9C486.6,657.9,515,669.7,545.2,669.7z"/>
			</g>
		</g>
		<path class="st3" d="M545.2,329.7c0,0-45,39,0,84l-20,13.5c0,0-52-61.5,0-109.5L545.2,329.7z"/>
		<path class="st3" d="M358.2,260.8c18.2-0.8,38.7-6.2,60.1-19.9l21.1,20c0,0-36,19.4-81.1,22.7C358.2,276,358.2,268.4,358.2,260.8z
			"/>
		<path class="st3" d="M367.7,453c23.6,0.9,48.6,7,71.7,23l-18.8,20c0,0-22.5-16.6-56-19.5C365.8,468.7,366.9,460.9,367.7,453z"/>
	</g>
</g>
</svg>
