<svg xmlns="http://www.w3.org/2000/svg" viewBox="0 0 488.38 329.03"><title>handwriting</title><path d="M246.71,131.56c-2.16-7.82-2.26-15.79-1.72-23.8.12-1.76-.26-3.65,1-5.2.41-1,.18-2.51,1.9-2.31,1.45.17,1.73,1.4,1.76,2.55a29.62,29.62,0,0,0,.24,5.35c-.13,4.08.58,8.1,1,12.15.16,1.61.3,3.32,2.22,4,2.06.63,4.3,1.45,1.5,3.74-2.25,1.84-1.49,3.67-.76,5.69.28.82.53,1.65.76,2.48a6.43,6.43,0,0,0,1.73,3.21c2.08,1.92-2.16,3.28-.45,5.17,4.93,7.57,9.92,15,16.64,21.28A143.09,143.09,0,0,0,297.7,184.7c1,2.18.19,3.09-2.09,3-21-9.49-35.87-25.26-46.06-45.7-1.71-2-4.78.45-6.39-1.93a36.58,36.58,0,0,0-5.86-2.46c-1.57-.6-3.26-1-4.27-2.53-.62-1.33-1.53-2.89-.33-4.09,1.34-1.35,2.63.56,4,.7,2,.2,3.18,2.47,5.26,2.39C243.86,134,246,134,246.71,131.56Z" transform="translate(-8.48 -9.04)" style="fill:#fff"/><path d="M73.76,234.73c10.3-2,20.2,1.12,30.2,2.54,15.59,2.22,31.12,4.88,46.84,6.07,1.22.09,2.5-.57,3.76-.88,2.37-.22,3.5-3.22,6.18-2.78,2.06.43,3.91,1.53,6,1.79,3.21.72,2.24,3.08,2,5.14-2.49,3.43-4.39,7.32-7.78,10-1.57,1.35-3.11,3.95-4.83.14-.33-3.45,2.28-5.46,4.36-7.86-2.78-1.2-5.24,0-7.6-.51-2.74-.8-5.56-.41-8.34-.58-10.37.61-20.46-1.12-30.57-3.24-9.25-1.94-18.76-2-28.14-3.1-3.45-.41-7-.27-10.26-1.74a29.08,29.08,0,0,1-2.69-1.28C70,236.59,71.26,235.5,73.76,234.73Z" transform="translate(-8.48 -9.04)" style="fill:#fff"/><path d="M55.75,84.78c12.59-.69,25.14-1.84,37.79-.33,16.36,2,32.77,3.49,48.45,9-1.84,1.23-3.51,2.69-5.45,3.79-9.36-2.16-18.73-4.14-28.25-5.48a213.24,213.24,0,0,0-34.1-2.35c-6.34.13-12.69,2-19.18,1.13C50.91,88.1,55.87,86.76,55.75,84.78Z" transform="translate(-8.48 -9.04)" style="fill:#fff"/><path d="M391.82,9.35c25.22-.47,48.7,5.34,69.9,19.36,1.06,1.56,1.29,3-.43,4.33-2.65.87-4.42-.89-6.31-2.18A83.49,83.49,0,0,0,421.35,17.7c-5.68-1-11.4-1.83-17-3.32-3.38-.9-7.2.94-10.78-.38C392.27,12.71,390.37,11.65,391.82,9.35Z" transform="translate(-8.48 -9.04)" style="fill:#fff"/><path d="M227.72,163.52c-3.52,4.83-7.12,9.62-10.55,14.52-4.27,6.11-8.41,12.31-12.6,18.48-1.35.56-1.69,3.79-3.7,2.07-2.19-1.87-3.3-4.57-1.32-7.5a113.16,113.16,0,0,1,8.17-10.63,137.51,137.51,0,0,0,11.53-16.26c1-1.69,2-3.46,4-4.35,2.89-.46,3.78-2.08,2.76-4.8a3.21,3.21,0,0,1,3.46-3.21c4.24,2.81,4.4,3.66,1.63,7.53C230,160.83,228.87,162.17,227.72,163.52Z" transform="translate(-8.48 -9.04)" style="fill:#fff"/><path d="M246.71,131.56c2,1.39,3,2.71-.5,3.13-4.72.58-8.81-1.53-13.24-3.66l.77,3.59c-2.31,1.36-4.24-.26-6-1.09-6.83-3.11-14.22-4.68-21.07-7.56-6.59-2.77-13.9-4.41-19.19-9.82a2.75,2.75,0,0,1,1.36-2.69c2.55.43,5.55.16,7.59,1.42,9.53,5.91,20.7,7.3,30.76,11.67,4.62,2,9.54,3.33,13.7,6.39C243.05,134.59,244.73,132,246.71,131.56Z" transform="translate(-8.48 -9.04)" style="fill:#fff"/><path d="M276.8,48.6c10-9.88,21.84-16.72,34.73-22,3.9-1.61,7.32-4.52,11.91-4.14,2.72.17,1.86,1.8,1.36,3.29a6.6,6.6,0,0,1-4,2.81C306,33.6,293.06,41.91,281.27,52.17c-3.08,2.68-6.25,5.48-10.32,6.75-2.9-2.1-2.72-4,.49-5.49C273.74,52.35,275.94,51.24,276.8,48.6Z" transform="translate(-8.48 -9.04)" style="fill:#fff"/><path d="M276.8,48.6c1.16,4.12-2.15,5.11-4.71,5.82-3,.83-2.4,2.09-1.36,3.9-.25,2.32-2.22,3.39-3.57,4.92-2.1,1.69-4.35,3.27-4.4,6.39-.49,2.68-1.88,4.95-3.13,7.29a76.7,76.7,0,0,0-8.56,27.41c-.2,1.7.23,3.83-2.21,4.46-.45-1.89-1.19-3.72-.26-5.73.3-.66.21-1.91-.79-2-.57,0-1.2.93-1.8,1.45.15-13.13,5.66-24.49,12.36-35.24A67.59,67.59,0,0,1,268.68,54C271.08,51.72,273.56,49.62,276.8,48.6Z" transform="translate(-8.48 -9.04)" style="fill:#fff"/><path d="M457.76,269.74c6.42-1.8,12.84-2.38,19.26,0,5.51,2.08,9.14,8.87,7,14.27-2,5-3.61,10.37-8.13,14a4,4,0,0,1-1-5.26c1.27-2.47,2.62-4.9,3.78-7.42,3-6.54.16-11.46-7-11.74-5.2-.2-10.44-.24-15.54,1.17a6,6,0,0,1-6.43-1.81,1.16,1.16,0,0,1,.06-1.45l-.07,0C452.37,271,455,270.17,457.76,269.74Z" transform="translate(-8.48 -9.04)" style="fill:#fff"/><path d="M73.76,234.73c-5.05,4.26,2.68,1.85,2,3.83a2.55,2.55,0,0,1-1.67,1.69c-5.88,2.21-8,4.51-6.84,10.58s-.81,11.61,0,17.56c.56,4.23,1.59,8.36,2.19,12.57.28,2,.69,3.92-.08,5.87-.85,1.32-1.56,2.93-3.61,1.75-1.81-8.46-3.66-16.9-4-25.6-.18-5,.23-9.86-.7-15C59.75,240.78,66.58,234.44,73.76,234.73Z" transform="translate(-8.48 -9.04)" style="fill:#fff"/><path d="M241.57,296.33c7.36-10.68,16.21-20,25.54-28.93-2.2-3.11-3.56,1.05-5.4.29-.81-.92-.29-2.31-1.15-3.21l7.23-3.78c1.65.55,1.79,3.1,4.29,2.84,1.67-.18,1.63,1.72,1.67,3-10.08,10.3-19.58,21.13-29.05,32-.61,1-1.4,1.9-2.64,1.16C240.68,298.88,241.3,297.53,241.57,296.33Z" transform="translate(-8.48 -9.04)" style="fill:#fff"/><path d="M436.67,146.42c-5.35,3.62-11.78,3.93-17.75,5.33-11.81,2.77-23.83,4.68-35.79,6.78-2.42.43-5,.15-7.45.2-.82-1.5-.27-3.08-.28-4.63a2.24,2.24,0,0,1,1.9-1.41c10.84-.77,21.58-2.34,32.34-3.81,2.53.94,4.8,1.22,7.44-.35,2.81-1.67,6.36-1.22,9.54-1.95,2.38-.55,4.91-.77,6.13-3.4a6.87,6.87,0,0,1,4.83-1.29C440.67,144.09,437.79,145.07,436.67,146.42Z" transform="translate(-8.48 -9.04)" style="fill:#fff"/><path d="M188.79,113.46a2.25,2.25,0,0,1-1.18,2.17c-1.45,1.38-3.17,1.09-4.61.3-10-5.49-21.17-8.38-31.24-13.72a13.2,13.2,0,0,0-9.33-3.4c-1.84-.25-3.69-.49-4.67-2.41-.93-4.33,2.69-2.15,4.23-2.95a.57.57,0,0,1,.72.23c1.73,1.48,3.87,1.66,6,1.92A188.87,188.87,0,0,1,173,105.25C178.4,107.7,184.56,108.78,188.79,113.46Z" transform="translate(-8.48 -9.04)" style="fill:#fff"/><path d="M391.82,9.35c-.39,1.86,2,2.41,1.93,4.11-4.1,2.75-9,1.73-13.37,2.1-8.76.74-17.23,3-25.94,3.76a10.5,10.5,0,0,1-3.92.08,4.3,4.3,0,0,1-2.74-4.53l5-1.12c1.53.23,3.2,1,4.1-1.12C368.39,10.21,380,8.25,391.82,9.35Z" transform="translate(-8.48 -9.04)" style="fill:#fff"/><path d="M295.61,187.66a3.17,3.17,0,0,0,2.09-3c13.81,7.81,29,11.71,44.25,15.34a50.39,50.39,0,0,0,6.75.7c.72.34,1.55.8,1,1.69-.79,1.29-2,.13-3,.21-4.06,1.58-8.2,0-11.9-.77C321.17,198.94,307.59,195.41,295.61,187.66Z" transform="translate(-8.48 -9.04)" style="fill:#fff"/><path d="M156.7,256.45c1.27,3.26,2.85.32,4.29.22a221.13,221.13,0,0,1-18.81,25.69c-3.94,4.66-6.81,10.08-11.07,14.45-3.73-.53-1.35-3-1.54-4.71a16.93,16.93,0,0,1,3-5.63c6.25-8,11.31-16.89,18.47-24.18,3.08-.11,4.76-1.45,4.19-4.78C155.47,256.79,155.87,256.33,156.7,256.45Z" transform="translate(-8.48 -9.04)" style="fill:#fff"/><path d="M411.53,244.3l7.06-7.79c2.13-.86,3.24-.18,3.26,2.16h0c-3.05.8-4,3.41-5.12,5.9A97.19,97.19,0,0,1,401.8,260.7c-2.27-1.07-.8-2.76-.59-4.26-1.58-1.08-2.94,1.67-4.43.17,1.21-5,4.24-9.05,7.4-12.9,1.32-1.61,2.28-3.43,3.59-5,1.22,1.07,1.63,2.61,2.26,4l-.35.84c-.39.54-.7,1.25,0,1.62S411.16,245.15,411.53,244.3Z" transform="translate(-8.48 -9.04)" style="fill:#fff"/><path d="M307.62,155.64c-9.44-1.15-18.55-3.89-27.83-5.83-1.32-.27-3.12.49-4-1.22-1.2-2.28-.06-3.66,1.83-4.75,9.14,1.08,18.36,1.88,27,5.28,1.86.73,3.86.94,5.64,1.83C311.92,156.09,311.92,156.09,307.62,155.64Z" transform="translate(-8.48 -9.04)" style="fill:#fff"/><path d="M307.62,155.64c.57-.77,5,1.57,1.87-2.32-.13-.16.82-1.2,1.26-1.84,1.51-1.42,3.4-1.26,5.18-1a233.41,233.41,0,0,0,23.78,2.15,5.15,5.15,0,0,1,4,1.72c1.13,2-1.17,3.25-1,5C331,158.5,319.26,157.53,307.62,155.64Z" transform="translate(-8.48 -9.04)" style="fill:#fff"/><path d="M421.85,238.67a3.46,3.46,0,0,0-3.26-2.16c6.6-8.07,13.29-16.07,19.75-24.25a32.48,32.48,0,0,1,5.27-5.76c2.12-.84,3.24-.2,3.18,2.16Q436.52,221.32,426.22,234C424.87,235.61,423.31,237.1,421.85,238.67Z" transform="translate(-8.48 -9.04)" style="fill:#fff"/><path d="M188.77,219.62c-5.79,8.18-11.47,16.44-18.25,23.87-2-.55-2.07-2.4-2.56-4,3.68-6,7.76-11.79,11.68-17.65,2.29-3.42,5-6.61,7.6-9.82,1.26-1.13,1.94-3,4-3.17,3.58,1,2.37,3.13.86,4.78A14.88,14.88,0,0,0,188.77,219.62Z" transform="translate(-8.48 -9.04)" style="fill:#fff"/><path d="M399.75,301.34c-5.54,1.66-10.82-.8-11.49-6.69-.59-5.19-3.5-9.83-2.62-15.08-2.31-.72-2.53,1.54-3.81,2.06-2.19.05-3.27-1-3.17-3.2l4.1-3.84c1.25-.64,1.78.7,2.7,1,1.72.69,3.44-1.41,5.15,0,0,7-.93,14.16,3.16,20.56.72,1.13,1.31,2.36,3,1.43l.65.16C398.72,298.55,400,299.44,399.75,301.34Z" transform="translate(-8.48 -9.04)" style="fill:#fff"/><path d="M457.78,139.64l-4,1.93c.38-2.71-3.55-.91-3.48-3.32.58-2.36,2.65-2.76,4.51-3.45,9.41-3.47,18.29-7.79,26.26-14.1,3.17-2.51,4.4-6.22,7.29-8.72,1-.67,2-1.87,3.31-1.33.8.32.67,1.28.19,2-1.84,7.83-7.68,12.1-14.1,15.87-4.47,3.57-9.77,5.59-14.84,8C461.07,137.46,459.14,138.07,457.78,139.64Z" transform="translate(-8.48 -9.04)" style="fill:#fff"/><path d="M111.78,222.52c-8.15-4.94-16.51-9.57-24.39-14.91-6-4-11.35-8.93-16.89-13.56-.92-.77-2-1.81-1.85-3.34l.53-.51c2.48-.6,4.09,1,5.7,2.37a174.62,174.62,0,0,0,31.58,22.37c2.54,1.4,6.67,1,7.06,5.3A2.46,2.46,0,0,1,111.78,222.52Z" transform="translate(-8.48 -9.04)" style="fill:#fff"/><path d="M204.69,280.5a3.42,3.42,0,0,0-.94-4.19,4.18,4.18,0,0,1-4.34-2.58c-2.92.49-6,.45-8.69,1.84-1.48.93-2.73.28-3.71-.77s0-1.66.7-2.31c4.34-1.81,8.57-4.15,13.57-3.08,1.55.25,3.78-2,4.5,1.24,2.56,4.72,5.63,9.38,1.81,14.87-1.64,2.22-2.72,1.23-3.19-.75A5.87,5.87,0,0,1,204.69,280.5Z" transform="translate(-8.48 -9.04)" style="fill:#fff"/><path d="M390.6,275.54c-2.12-.52-3.59,3.31-6,.89-.25-2.06,1.65-3.14,2.2-4.84,4.3-4.35,6-10.42,10-15,1.11,0,1.7-.73,2.37-1.43,1.18-1.23,2.62-1.45,3.82-.24s-.16,2.06-.9,2.75c-1.07,1-.84,2-.28,3C398.32,265.83,392.92,269.52,390.6,275.54Z" transform="translate(-8.48 -9.04)" style="fill:#fff"/><path d="M339.13,312.77c-12,2-16.34-.85-17.61-10-.62-4.51-.7-9.79,2.13-14.18.92-.69.6-2.71,2.44-2.38a1.77,1.77,0,0,1,1.62,2.36,40,40,0,0,0-1.92,12.32c0,4.73,2.17,8,7.23,8.59C334.48,311.59,338,310,339.13,312.77Z" transform="translate(-8.48 -9.04)" style="fill:#fff"/><path d="M410,242.7c-2.69-.25-2.22-2.27-2.26-4,4.54-8.16,12.49-13.63,17.17-21.68.24-.42,1.16-.45,1.76-.67,1.6,2.09-.45,4.17,0,6.25C420.51,228.77,416.45,236.71,410,242.7Z" transform="translate(-8.48 -9.04)" style="fill:#fff"/><path d="M57.66,180.63c-6.84-5.89-12-13.25-17.66-20.18-3-3.66-5.58-7.62-8.36-11.45-.6-1.74.66-2.22,1.86-2.73,2.79.5,3.88,3,5.21,4.9a235.1,235.1,0,0,0,20,25.2c1.11,1.23,3.06,2.29,1.85,4.55A3.38,3.38,0,0,1,57.66,180.63Z" transform="translate(-8.48 -9.04)" style="fill:#fff"/><path d="M176.82,282.66c-2.94,4.8-8.17,7.19-11.81,11.27-3.23,3.63-7.73,6.27-8.66,11.67-.24,1.4-1.51,2.55-2.93,1.93s-.79-2-.15-3c2.81-4.47,5-9.64,8.67-13.17,4.06-3.86,7.52-8.4,12.15-11.65a10,10,0,0,1,2.75-.91C177.28,280.06,176.56,281.35,176.82,282.66Z" transform="translate(-8.48 -9.04)" style="fill:#fff"/><path d="M260.56,264.49c2.43.34,1.14,2,1.15,3.21-9.51,5.33-19.36,9.52-30.59,9.06a1.07,1.07,0,0,1-1.68-.87c-.3-1.72,1.32-1.82,2.23-2.51,6-1.3,11.94-2.46,17.84-3.94A31.54,31.54,0,0,0,260.56,264.49Z" transform="translate(-8.48 -9.04)" style="fill:#fff"/><path d="M375.58,154.5c2.19,1.35.63,2.81.11,4.23-7.93,1.69-16,.42-24,.85-5.41-.51-1.63-2.9-1-4.65a4,4,0,0,1,3.08-1.42C361.11,153.64,368.39,153,375.58,154.5Z" transform="translate(-8.48 -9.04)" style="fill:#fff"/><path d="M347.78,14.86c.69,1.18,2.08,2,2,3.59-.05.16-.06.41-.16.46-8.15,4-16.67,6.58-25.84,6.64.43-1.09,1.56-2.25-.3-3.12,3.79-4.44,9.66-3.59,14.45-5.49C340.9,15.76,344.16,13.93,347.78,14.86Z" transform="translate(-8.48 -9.04)" style="fill:#fff"/><path d="M118.11,313.77,98.76,334.94c-1.38-.89-3.85.13-4.29-2.43,5.76-5.86,10.33-12.7,15.61-19,1.23-1.45,2.26-3.35,4.63-3.26A9.38,9.38,0,0,1,118.11,313.77Z" transform="translate(-8.48 -9.04)" style="fill:#fff"/><path d="M277.87,144.53a5.28,5.28,0,0,0-2.12,4.06c-6-1.65-11.93-3.28-17.89-5-1.06-.3-1.5.28-2,1-3.8-1.46,1-3.24-.18-4.79.42-1.65,1.69-2.08,3.16-2.23,6,.78,11.52,3.1,17.21,4.9C277,142.77,277.91,143.27,277.87,144.53Z" transform="translate(-8.48 -9.04)" style="fill:#fff"/><path d="M334.71,270.47a41.12,41.12,0,0,1,6-7.93c3.36,1.07,6.74-3.09,10.09,0-1.11,8.23-7.77,10.95-14,14.11-.85-2,1.6-3.08,1.39-5C337.46,270.25,334.61,274.32,334.71,270.47Z" transform="translate(-8.48 -9.04)" style="fill:#fff"/><path d="M205.78,270.65c-1.18-1.59-3-.86-4.5-1.24,5.57-3,7.81-8.59,10.77-13.64.9-1.54.84-4.56,3.65-3.51,2.37.88.78,2.73.43,4.48-.73,3.67-.72,7.5,1.62,10.83-1.17,4.62-2.7.78-4.09.18-1.19-.86.64-3.22-1.73-3.5-1.8-.21-1.89,1.48-2.68,2.4C208.1,268,206.94,269.32,205.78,270.65Z" transform="translate(-8.48 -9.04)" style="fill:#fff"/><path d="M445.7,203.57c-.2-2.43,2.31-3.62,3.08-6.25a13.94,13.94,0,0,0-5.92,2.79c-.77.58-2.08,2.66-3.51.46,1.83-4.9,6.55-7.22,9.76-10.89.7-.8,1.73-1.62,3-.47A5.34,5.34,0,0,1,454,193c.45,3.88-3.27,6-3.4,9.53C449.2,204.05,447.75,205.19,445.7,203.57Z" transform="translate(-8.48 -9.04)" style="fill:#fff"/><path d="M33.75,146.57,31.64,149c-6.79-7.7-12.74-16-16.92-25.39-.76-1.07-.41-1.86.64-2.46,2.48-.27,4,.88,4.92,3.14,2.58,6.31,6.75,11.59,11.1,16.74C32.71,142.62,34.58,144,33.75,146.57Z" transform="translate(-8.48 -9.04)" style="fill:#fff"/><path d="M55.75,84.78c.16.77,3.27,1.51.13,2.27-1.46.35-1.39,1.62-2.15,2.34C50.2,92.61,46,91.61,41.84,91.45a12.85,12.85,0,0,0-8.53-.54c-2.78.71-2.84.45-3.52-2.21C38.13,85.32,46.87,84.61,55.75,84.78Z" transform="translate(-8.48 -9.04)" style="fill:#fff"/><path d="M175.86,314.6,174,322.4c5.4-1.71,10-3.3,13-7.77,2-.77,3.65-1,2.88,2.08-2.33,5.27-7.37,6.61-12.15,8.14-2,.64-4.28.61-5.66-1.61s-2-4.49-.62-6.9c.72-1.28,1.63-2.45,2.46-3.67C175.55,312.23,175.53,313.6,175.86,314.6Z" transform="translate(-8.48 -9.04)" style="fill:#fff"/><path d="M227.72,163.52c-.16-1.83,1.11-3.18,2.14-4.19,2.71-2.66,2.43-4.77-.41-6.92-1.16-4.31,2.26-6,4.72-8.23,1.73.56,3.46,1.25,5.11-.23,1.73.17,3.58.19,3.5,2.7q-6.72,8-13.43,16A1.72,1.72,0,0,1,227.72,163.52Z" transform="translate(-8.48 -9.04)" style="fill:#fff"/><path d="M118.11,313.77c-2.07-.15-3.38-1.08-3.43-3.32-.22-4.52,4-6.15,6.16-9.06,2.74-3.73,5.78-7.41,9.85-9.94.88,1.73-2.11,3.76.42,5.35C127.05,302.67,121.75,307.58,118.11,313.77Z" transform="translate(-8.48 -9.04)" style="fill:#fff"/><path d="M334.71,270.47c.21.23.39.61.65.68,1.83.52,2.88-3.92,4.51-1.14.55.93,0,4.63-2.61,5.83-.23.1-.31.56-.46.85l-4.12,3.84a16.9,16.9,0,0,0-4.22,4.09c-1.36,1.95-2.51,1.8-3.76,0h0a6.34,6.34,0,0,1,1-6.1A38.27,38.27,0,0,0,334.71,270.47Z" transform="translate(-8.48 -9.04)" style="fill:#fff"/><path d="M273.76,266.59c-.53-.78-1.51-2.27-1.54-2.25-5.16,3.22-3.1-2.28-4.42-3.63,3.86-2.08,7.79-4,11.54-6.29,1.55-.93,2.46-.31,3.41.59,1.18,1.12.25,2.31-.42,3C279.57,261,276.63,263.75,273.76,266.59Z" transform="translate(-8.48 -9.04)" style="fill:#fff"/><path d="M29.79,88.7c1.08,3.33,3.52.93,4.76.63,2.8-.68,5.05-.46,7.22,1.33-.14,2.12-1.91,2-3.26,2.19C31.71,94,25,95.42,18.7,98.37c-2.25-.28-4.11-.88-3-3.8C19.84,91.21,24.87,90.09,29.79,88.7Z" transform="translate(-8.48 -9.04)" style="fill:#fff"/><path d="M494.31,78.6a32.83,32.83,0,0,1,1.52,20.85c-1.32.82-2.57.92-3.7-.33-1-2.54-.83-5.25-.89-7.86-.1-4.3-.09-8.53-1.82-12.62a4,4,0,0,1,1.45-5.29C494,73.81,492.69,77.16,494.31,78.6Z" transform="translate(-8.48 -9.04)" style="fill:#fff"/><path d="M474.81,292.75l1,5.26a36,36,0,0,1-12.37,12.51,2,2,0,0,1-2.84.23c-.78-1.72.11-3,1-4.34C466.8,302.57,470.62,297.48,474.81,292.75Z" transform="translate(-8.48 -9.04)" style="fill:#fff"/><path d="M188.77,219.62c-.38-2.48.62-4.34,2.41-6,1.54-1.44,2.94-3.17-.53-4.09-.67-1-.27-1.73.55-2.38,2.34-2.7,3.73-6.06,6.18-8.72,1.45-1.58-.84-3.41-.27-5.2.67-1.54,1.62-2.57,3.48-1.93-1.17,1.77-.55,3.38.11,5.22,1.43,4,2.61-1.34,3.87,0C200.42,205,194,211.88,188.77,219.62Z" transform="translate(-8.48 -9.04)" style="fill:#fff"/><path d="M419.67,287.39c6.81-3.42,12.66-8.58,20-11.11,1.38,1.4-2.08,2.91.1,4.29a111.14,111.14,0,0,1-16.82,9.07C421,290.15,418.81,290.94,419.67,287.39Z" transform="translate(-8.48 -9.04)" style="fill:#fff"/><path d="M204.69,280.5c1,1.63-2,5.62,2.9,5-.05,1.29.2,2.54-.45,3.84-2.19,4.38-4.22,8.83-6.31,13.25-3.67,1.15-3.94,1-4.06-2C200.1,294.21,203.79,287.9,204.69,280.5Z" transform="translate(-8.48 -9.04)" style="fill:#fff"/><path d="M347.69,303.56c5-4.44,11.65-6.7,16-12,2.09-.86,3.62-.57,4,2-5.48,4.07-11,8.12-16.43,12.24a6.93,6.93,0,0,1-4.52,1.76C346.27,306,348.23,305.08,347.69,303.56Z" transform="translate(-8.48 -9.04)" style="fill:#fff"/><path d="M65.73,288.59c1.57.16,2-1.45,3.09-2,3.21,2.06,2.89,5.79,3.8,8.79,1.3,4.31,4.29,8.35,2.88,13.27-.4.73-.89,1.29-1.84,1C69.2,303.32,67.13,296.08,65.73,288.59Z" transform="translate(-8.48 -9.04)" style="fill:#fff"/><path d="M433.9,317.5c2.69-.89,4.8,2.84,7.61.94,1.2-.46,2.53-1,3.34.45,1.13,2-1.59,1.82-1.91,3-3.3,1.63-6.89,1.44-10.35,1.24-4.5-.26-6.2-3.36-4.1-6.78C430.45,316,432.42,315.56,433.9,317.5Z" transform="translate(-8.48 -9.04)" style="fill:#fff"/><path d="M317.68,287.33c-7.13,4-14.3,7.07-22,1.28,1.21-2.46,3-2,4.8-.87,1.45.94,2,.36,2.26-1a33.58,33.58,0,0,0,10.94-2.2C316,284.08,319.12,282.42,317.68,287.33Z" transform="translate(-8.48 -9.04)" style="fill:#fff"/><path d="M249.4,315.39c7.86-3.79,15.93-7.17,23.37-11.79,1.13-.52,1.7.13,2.13,1-5.85,5.48-13.38,8.21-20.15,12.16-.71.42-1.9,0-2.86,0A2.48,2.48,0,0,1,249.4,315.39Z" transform="translate(-8.48 -9.04)" style="fill:#fff"/><path d="M426.68,222.59c-3.89-2.1.8-4.17,0-6.25,2-4.75,6-7.91,9-11.84,1,4.44-.64,8.29-3,11.74C431.06,218.6,428.72,220.49,426.68,222.59Z" transform="translate(-8.48 -9.04)" style="fill:#fff"/><path d="M450.53,138.35c.36.29.86.92,1.06.83,3.09-1.29,2.46.68,2.15,2.39a46.39,46.39,0,0,1-17.07,4.85c-.75-1.57,2.34-2.19,1-3.92C440.8,137.55,445.75,138.22,450.53,138.35Z" transform="translate(-8.48 -9.04)" style="fill:#fff"/><path d="M15.95,121.45c-1.11.33-1.11,1.28-1.23,2.17-2.94-6.45-8.52-12.22-5.23-20.28,1.25.17.8-3.46,2.94-1.3,2.23,5.1,2.09,10.85,4.51,15.91A2.85,2.85,0,0,1,15.95,121.45Z" transform="translate(-8.48 -9.04)" style="fill:#fff"/><path d="M213.66,267.76c.43-.53,1.1-1.74,1.46-.29.89,3.58,1.78.12,2.63.11,4.08,3.28,8.44,5.89,13.93,5.79,0,1.16-3.18,1.79-.56,3.38C223.86,276.54,217.09,275.38,213.66,267.76Z" transform="translate(-8.48 -9.04)" style="fill:#fff"/><path d="M419.67,287.39c.12,2.13,1.66,2.22,3.24,2.25l-14.21,7.9c-2.52.64-4.62.72-3.94-2.94Z" transform="translate(-8.48 -9.04)" style="fill:#fff"/><path d="M302.74,286.75c.22,1.11,2.49,1.7.94,3.2-1.09,1.06-2.37.13-3-.58-1.56-1.74-3.1-2.09-5-.75l-1-.9a7.9,7.9,0,0,1-3-4.13,1.83,1.83,0,0,1,.07-3c.89-1.84.33-5.41,4.29-3.58,1,1,2.29,1.81,1.6,3.53C296.87,284.64,299.92,285.6,302.74,286.75Z" transform="translate(-8.48 -9.04)" style="fill:#fff"/><path d="M460.41,32.79c1.69-1,1.28-2.59,1.31-4.08,5.09,3.9,10.49,7.44,14.4,12.68a3.11,3.11,0,0,1-2.76,1.31A21.38,21.38,0,0,1,460.41,32.79Z" transform="translate(-8.48 -9.04)" style="fill:#fff"/><path d="M290.66,278.73c-2.16-4.74.29-9.95-1.7-14.87-.91-2.26-3.26-4.36-2.26-7.29,2.67-.3,3.55,2.56,5.7,3.21a4.86,4.86,0,0,1,1.07,1c1.58,3.14,3,6.29,1,9.78C291.31,272.4,293.31,276.64,290.66,278.73Z" transform="translate(-8.48 -9.04)" style="fill:#fff"/><path d="M472.41,41.7l3.71-.32c3.61,3.08,6.23,7,8.85,10.86.47,1.52.18,2.66-1.57,3C479,53.83,473.06,46.45,472.41,41.7Z" transform="translate(-8.48 -9.04)" style="fill:#fff"/><path d="M196.78,300.66c.33,2.78,2.55,1.63,4.06,2-3.39,4.91-6.5,10.05-11,14.08-.08-1.9-1.35-2.17-2.88-2.08C190.47,310.15,194.43,306,196.78,300.66Z" transform="translate(-8.48 -9.04)" style="fill:#fff"/><path d="M347.69,303.56c3.92,2.32-.55,2.65-.94,3.95a21.65,21.65,0,0,1-7.62,5.27c-1.84-.46-3.69-.85-5.5-1.39-1-.29-1.81-.85-.61-1.94C338.79,309.69,342.61,305.05,347.69,303.56Z" transform="translate(-8.48 -9.04)" style="fill:#fff"/><path d="M249.4,315.39a2.88,2.88,0,0,1,2.48,1.42c-4.83,5-11.29,5.35-16.19.87a2,2,0,0,1,.66-2.9c1-.73,1.77-.2,2.25.83C242.26,318.63,245.79,315.23,249.4,315.39Z" transform="translate(-8.48 -9.04)" style="fill:#fff"/><path d="M378.65,278.42l3.17,3.2c-3.85,2.85-6.79,6.78-11,9.13-1.88-2.4-1.05-4.38,1-6.16Z" transform="translate(-8.48 -9.04)" style="fill:#fff"/><path d="M145.73,236.62c-6.94-1.57-13.82-3.3-20-7.07-.23-.92.32-1.36,1-1.71,7.78,1.35,15.53,2.81,22.18,7.49C148.26,236.7,146.93,236.49,145.73,236.62Z" transform="translate(-8.48 -9.04)" style="fill:#fff"/><path d="M176.82,282.66c-3.24-1.32-.43-2.6,0-3.9,3.87-1.66,6.11-6.15,10.87-6.26-1.07,3.06,1.52,2.53,3,3.08A98.83,98.83,0,0,0,176.82,282.66Z" transform="translate(-8.48 -9.04)" style="fill:#fff"/><path d="M191.72,290.53c-2.16,5-6.65,8.39-9.38,13-.78,1.33-1.91-.09-2.59-1,4.18-5.27,7.29-11.33,11.94-16.25C192.9,287.72,192.43,289.12,191.72,290.53Z" transform="translate(-8.48 -9.04)" style="fill:#fff"/><path d="M291.69,283.58c.83,1.49,3,2,3,4.13-3.38-.46-3.33,3-5,4.45-1.42,1.25-2.63,2.75-3.93,4.14a7.2,7.2,0,0,1-2.85-2.71C286.87,291.19,288,286.24,291.69,283.58Z" transform="translate(-8.48 -9.04)" style="fill:#fff"/><path d="M457.78,139.64c1-3.37,4.2-3.68,6.78-4.88,4.4-2,8.77-4.14,13.16-6.22C472.51,134.84,465.35,137.61,457.78,139.64Z" transform="translate(-8.48 -9.04)" style="fill:#fff"/><path d="M241.57,296.33c.24,1.87.35,3.94,3.14,2.23a28.13,28.13,0,0,1-5.86,10.16,6,6,0,0,1-3-1.13C235.57,302.73,239.43,300,241.57,296.33Z" transform="translate(-8.48 -9.04)" style="fill:#fff"/><path d="M461.69,306.41a5.63,5.63,0,0,1-1,4.1c0,1.34-1.58,1.87-1.74,3.15-.92,2.17-3.38,2-4.92,3.16-1.1.25-2.33.81-3.15-.34-.57-.8.19-1.49.74-2.09-.15-.86-1.27-2.08.23-2.47C455.66,311,458.22,307.9,461.69,306.41Z" transform="translate(-8.48 -9.04)" style="fill:#fff"/><path d="M94.85,332.78c.8,1.63,4.26-1.56,3.92,2.16-4.83,4.84-8.67,4.1-12.91-2.48.7-1,.8-2.47,2.08-3.13C90.14,330.67,92,332.78,94.85,332.78Z" transform="translate(-8.48 -9.04)" style="fill:#fff"/><path d="M127.18,228.33l-1.43,1.22c-4.76-2.14-9.79-3.75-14-7l1-2.05C119.28,220,123.79,223.14,127.18,228.33Z" transform="translate(-8.48 -9.04)" style="fill:#fff"/><path d="M282.87,293.59a2.7,2.7,0,0,1,2.85,2.71c-3.44,3-6.36,6.67-10.82,8.33l-2.13-1Z" transform="translate(-8.48 -9.04)" style="fill:#fff"/><path d="M317.68,287.33c.29-3.26-2.13-2.62-4-2.79,3.42-3.19,8.09-3.88,12-6,.08,2.1.24,4.22-1,6.1C321.54,283.42,320.36,287.33,317.68,287.33Z" transform="translate(-8.48 -9.04)" style="fill:#fff"/><path d="M350.79,262.58c-2.2.5-4.7-1.2-6.7,1.57-.93,1.28-2.6-.23-3.38-1.62h0c1.64-1.34,3.78-2,5.08-3.82a16.62,16.62,0,0,1,2.18-1.88c1.51-.92,3.28-2,4.81-.38,1.71,1.85-.3,3-1.22,4.39A9.92,9.92,0,0,0,350.79,262.58Z" transform="translate(-8.48 -9.04)" style="fill:#fff"/><path d="M492.68,99.47c1-.2,2.09-.66,3.15,0-.43,4.69-2.19,9-4,13.22-.94-3-2,1-3-.07C489.47,108,488.14,102.88,492.68,99.47Z" transform="translate(-8.48 -9.04)" style="fill:#fff"/><path d="M439.73,280.57c-1.07-.15-2.26.18-3.39-1.11.83-1.24,3.3-1.14,3.29-3.18,2.66-3,7.06-2.45,10.05-4.79l.21,1.33c1.19,3.1-3.24,2.36-3.2,4.67Z" transform="translate(-8.48 -9.04)" style="fill:#fff"/><path d="M433.9,317.5l-5.41-1.1a30.69,30.69,0,0,1,8.29-8.79c2.45.31,1.54,1.75,1,3.06C437.68,313.61,434.34,314.73,433.9,317.5Z" transform="translate(-8.48 -9.04)" style="fill:#fff"/><path d="M482.59,54.66c1.58,0,2.18-1,2.38-2.41l5.8,11.3c0,2.13-1.48,1.87-2.85,1.85C484.4,62.68,481.41,59.71,482.59,54.66Z" transform="translate(-8.48 -9.04)" style="fill:#fff"/><path d="M292.89,260.64l-1.23-.1c0-2.18,1.74-3,3.16-4.1a28.54,28.54,0,0,0,4.84.56c5-.25,5,2.11,3,5.56-1.56,1.63-2.75-1.91-4.31-.29C296.46,262,294.47,262,292.89,260.64Z" transform="translate(-8.48 -9.04)" style="fill:#fff"/><path d="M451.64,314.4c-.94,2.55,1,2.22,2.41,2.42a30.15,30.15,0,0,1-11.11,5.11c1.55-2,2.44-3.71-1.43-3.5C444.16,315.28,448.4,316.09,451.64,314.4Z" transform="translate(-8.48 -9.04)" style="fill:#fff"/><path d="M145.73,236.62c.74-1.13,2-.8,3-1,3.36-1.67,5.58,1.16,8.28,2.08,1.24,1,3.69.43,3.71,2.94-2.38-.38-3.57,3.14-6.21,1.88.2-.73.76-2-.32-2C150.65,240.65,148.55,237.92,145.73,236.62Z" transform="translate(-8.48 -9.04)" style="fill:#fff"/><path d="M57.66,180.63l3.26-.08c5.42,1.83,8.46,5.63,7.93,9.93l-.21.23c-4.75-.41-5.8-5.14-8.82-7.57A17.64,17.64,0,0,1,57.66,180.63Z" transform="translate(-8.48 -9.04)" style="fill:#fff"/><path d="M441.52,305.4c1.64-3.81,5.63-5.09,8.34-7.75,1.2-.61,2.44-1.39,2.82.82l-10.14,8.91C440.59,307.54,441.39,306.3,441.52,305.4Z" transform="translate(-8.48 -9.04)" style="fill:#fff"/><path d="M350.74,155.54c.87,1.21-2.27,3.41,1,4-3,.92-6-.16-9-.22-2.54-2.24.37-2.74,1.24-3.9A5.22,5.22,0,0,1,350.74,155.54Z" transform="translate(-8.48 -9.04)" style="fill:#fff"/><path d="M294.82,256.43c.17,2.31-2,2.79-3.16,4.1-2.48-.29-3.29-2.66-5-4,.22-2.39,1.26-3.27,3.61-2.1C291.77,255.21,293.31,255.79,294.82,256.43Z" transform="translate(-8.48 -9.04)" style="fill:#fff"/><path d="M487.75,64.58c1.11,0,2.3.17,3-1,1,5.06,3.58,9.75,3.55,15.06-2.68-.63-1.27-4.14-3.56-5A11,11,0,0,1,487.75,64.58Z" transform="translate(-8.48 -9.04)" style="fill:#fff"/><path d="M242.78,146.66a5.4,5.4,0,0,0-4-2.08c-1.9-1.78.56-1.91,1-2.79,1.28-1.13,2.74-2,4-3.23,1,2.73,4.71.81,5.78,3.4C245.75,141.29,245.92,146.37,242.78,146.66Z" transform="translate(-8.48 -9.04)" style="fill:#fff"/><path d="M371.76,284.6a10.12,10.12,0,0,0-1,6.16c-.67,1.32-.86,3.17-3.08,2.75-.92-1.53-2.52-1.66-4-2A29.59,29.59,0,0,1,371.76,284.6Z" transform="translate(-8.48 -9.04)" style="fill:#fff"/><path d="M151.87,308.43c1.35.17,1.5,1.14,1,2.13a19.65,19.65,0,0,1-4.59,6.81c-1.35,1.21-1.51,0-1.88-.74C145.85,315.4,150.4,308.47,151.87,308.43Z" transform="translate(-8.48 -9.04)" style="fill:#fff"/><path d="M290.66,278.73c1.54-2.54-1.85-7,3.16-8.17a2.42,2.42,0,0,1,1.57,1.23,9.58,9.58,0,0,1,1.09,4.62,2.41,2.41,0,0,1-.69,1.16c-3.12-1.38-2.3,2.53-4,3Z" transform="translate(-8.48 -9.04)" style="fill:#fff"/><path d="M298.81,261.54c1.82-1.67,2.27,1.87,3.88,1l-1,7c-.88,1.69-2.15,2.27-3.93,1.35C296.74,267.62,296.54,264.43,298.81,261.54Z" transform="translate(-8.48 -9.04)" style="fill:#fff"/><path d="M80.56,322.61,76,313.47a3.91,3.91,0,0,1,3.29-1.21c2.85,2.08,3.45,5.19,3.89,8.4C82.63,321.75,82.4,323.26,80.56,322.61Z" transform="translate(-8.48 -9.04)" style="fill:#fff"/><path d="M199.41,273.73l4.34,2.58c-4.22.61-4.5,5-7,7.29-2.14.77-2.8,0-2.06-2.07C196.48,279.05,198.8,276.91,199.41,273.73Z" transform="translate(-8.48 -9.04)" style="fill:#fff"/><path d="M235.83,307.59c1.52-1,2.44-.38,3,1.13-1,2.26-.69,4.57-.25,6.88-2.44-1.37-2.46.64-2.9,2.07A10.54,10.54,0,0,1,235.83,307.59Z" transform="translate(-8.48 -9.04)" style="fill:#fff"/><path d="M404.77,294.61c.06,2.66,2.22,2.5,3.94,2.94-1.68,1.69-4,2-6.08,2.88-2.05-.54-3.67-2.08-5.78-2.49l-.11-.41Z" transform="translate(-8.48 -9.04)" style="fill:#fff"/><path d="M324.69,284.61c.78-.35,1.59,1.7,2.5-.27a6.58,6.58,0,0,1,5.49-3.81c-2.27,2.28-2.26,6-5,8-1.37-3-2.71-1.16-4.06,0Z" transform="translate(-8.48 -9.04)" style="fill:#fff"/><path d="M452.67,298.47c-.62-1.39-1.79-.86-2.82-.82,5.71-4.72,5.89-4.8,10.28-4.26C457.11,295,455.87,298,452.67,298.47Z" transform="translate(-8.48 -9.04)" style="fill:#fff"/><path d="M175.86,314.6l-2-1.93c1-2.29,1.38-5,3.9-6.35,1,.58,2.26,2,1.37,2.47C176.48,310.08,177.5,313,175.86,314.6Z" transform="translate(-8.48 -9.04)" style="fill:#fff"/><path d="M194.71,281.53c.13,1.24.7,2.05,2.06,2.07-1.13,2.72-3.27,4.69-5.06,6.93l0-4.2C191.53,284,193.19,282.81,194.71,281.53Z" transform="translate(-8.48 -9.04)" style="fill:#fff"/><path d="M80.56,322.61l2.12-2c2.61,1.51,3.59,3.87,3.52,6.78a4.63,4.63,0,0,1-2.66,2.37C82.23,327.53,80.85,325.3,80.56,322.61Z" transform="translate(-8.48 -9.04)" style="fill:#fff"/><path d="M445.7,203.57l4.86-1.06c-.72,2.37-1.67,4.62-3.75,6.16a3.32,3.32,0,0,0-3.18-2.16Z" transform="translate(-8.48 -9.04)" style="fill:#fff"/><path d="M15.74,94.57c-.22,2.25,1.45,2.62,3,3.06-1.11,3.18-3.88,2.89-6.43,3.1-.71-.66-1.34-1.34-.65-2.38C10.94,94.83,14.25,95.67,15.74,94.57Z" transform="translate(-8.48 -9.04)" style="fill:#fff"/><path d="M446.7,277.49c-1.75-3.48,3.5-2.18,3.2-4.67,2.31-.17,3.77,2.36,6.16,1.94Z" transform="translate(-8.48 -9.04)" style="fill:#fff"/><path d="M297.93,270.49a3.64,3.64,0,0,0,3.72-.95c.39,1.78-1.33,2.6-1.82,4-1.69.53-.74,4.59-4,3a10.23,10.23,0,0,1-1-5A3.4,3.4,0,0,1,297.93,270.49Z" transform="translate(-8.48 -9.04)" style="fill:#fff"/><path d="M354.74,201.58c3.47.85,7.28-1.78,11.61,1.3l-10.67.65C355.13,203,354.1,202.69,354.74,201.58Z" transform="translate(-8.48 -9.04)" style="fill:#fff"/><path d="M295.83,276.54c1-.13,2.13-.47,1.81-1.69-.82-3.21,1.09-1.53,2.2-1.32,1.21,2.94-1.27,4.73-2.18,7l-1.86-3Z" transform="translate(-8.48 -9.04)" style="fill:#fff"/><path d="M354.74,201.58l.94,2c-3,0-6.13,1-9-.9-.34-1.66,3.9,1.42,2-1.9Z" transform="translate(-8.48 -9.04)" style="fill:#fff"/><path d="M356.86,12.62c1.32.22,2.45,1.75,1.39,2-1.59.41-4.19,2.17-5.49-.91A7.25,7.25,0,0,1,356.86,12.62Z" transform="translate(-8.48 -9.04)" style="fill:#fff"/><path d="M83.54,329.8c.1-1.21.42-2.22,2-2.08a2,2,0,0,1,2.17,1.91c.13,1.42.78,3.17-1.82,2.85Z" transform="translate(-8.48 -9.04)" style="fill:#fff"/><path d="M416.74,244.57c-.18-3.61.88-6.13,5.12-5.9Z" transform="translate(-8.48 -9.04)" style="fill:#fff"/><path d="M168.64,239.39l1.87,4.1a3.41,3.41,0,0,1-1.75,3.13c-1.52-1,.57-3.82-2.18-4.13C165.81,240.49,166.66,239.57,168.64,239.39Z" transform="translate(-8.48 -9.04)" style="fill:#fff"/><path d="M78.74,312.58c-.6,1.28-1.68,1-2.74.89-.19-1.63-2.38-2-2.34-3.82l1.19-1.19C77.41,308.65,79,309.78,78.74,312.58Z" transform="translate(-8.48 -9.04)" style="fill:#fff"/><path d="M386.81,271.58c2,2.86-1.62,3.16-2.2,4.84l-1.86-1.84C383.75,273.11,384.86,271.78,386.81,271.58Z" transform="translate(-8.48 -9.04)" style="fill:#fff"/><path d="M396.84,297.94c2.75-1.09,4.46.24,5.78,2.49-.84.68-1.67,1.4-2.88.91Z" transform="translate(-8.48 -9.04)" style="fill:#fff"/><path d="M441.52,305.4l1,2c-.83,2.16-3.4,1.84-4.72,3.29-.25-1,.26-2.36-1-3.06C438.14,306.41,440.44,307.23,441.52,305.4Z" transform="translate(-8.48 -9.04)" style="fill:#fff"/><path d="M459,313.73c-2.1-2.53,1.24-2.06,1.74-3.15h2.77C462.58,312.48,461.36,313.94,459,313.73Z" transform="translate(-8.48 -9.04)" style="fill:#fff"/><path d="M145.06,319.22c-1.27,1.12-2.28,2.91-4.32,1.64-.55-.34-1.21-1-.71-1.57C141.48,317.75,143.29,319,145.06,319.22Z" transform="translate(-8.48 -9.04)" style="fill:#fff"/><path d="M148.7,95.6c-2.39.59-5,1.78-6-1.92A9,9,0,0,1,148.7,95.6Z" transform="translate(-8.48 -9.04)" style="fill:#fff"/><path d="M11.71,98.34l1,2.24a1.88,1.88,0,0,1-.9,1c-1.39-.26-.06,3.22-2.35,1.72C8.18,100.76,9,99.15,11.71,98.34Z" transform="translate(-8.48 -9.04)" style="fill:#fff"/><path d="M345.78,258.72c-.42,3-2.83,3.29-5.08,3.82C341.6,260.21,343.86,259.69,345.78,258.72Z" transform="translate(-8.48 -9.04)" style="fill:#fff"/><path d="M457.76,269.74c-2.56,1.31-5.12,2.6-8.14,1.71A12.36,12.36,0,0,1,457.76,269.74Z" transform="translate(-8.48 -9.04)" style="fill:#fff"/><path d="M252.68,125.55c1.63-1.36,3.32-1.41,4.62.26a2.81,2.81,0,0,1-.62,4.28c-1.61,1.28-1.23,4.21-3.83,4.69a2.84,2.84,0,0,0-.18-1c-2.1-3.43-2.55-6.33,3.77-7.47Z" transform="translate(-8.48 -9.04)" style="fill:#fff"/><path d="M238.9,138.89l-1.16-2.14,6,1.82c.6,2.56-2.3,2.45-3,4C238.35,142.79,238.35,142.79,238.9,138.89Z" transform="translate(-8.48 -9.04)" style="fill:#fff"/><path d="M253.79,136.53a7.66,7.66,0,0,1,5,2l-3.09,1.23C253.78,139.44,253.62,138.08,253.79,136.53Z" transform="translate(-8.48 -9.04)" style="fill:#fff"/><path d="M153.76,247.57a2,2,0,0,1-2.06,1l.07,0c-2-2-5,0-7-1.92A17.25,17.25,0,0,1,153.76,247.57Z" transform="translate(-8.48 -9.04)" style="fill:#fff"/><path d="M223.59,160.51c.77-1.86,1.4-3.81,3-5.2C229.21,158.76,228.67,159.71,223.59,160.51Z" transform="translate(-8.48 -9.04)" style="fill:#fff"/><path d="M266.5,62.6c-.19,3.09-3,4.17-4.69,6.14C261.51,65.27,264.21,64.09,266.5,62.6Z" transform="translate(-8.48 -9.04)" style="fill:#fff"/><path d="M409.75,149.79c3.35-3.06,7.9-1.51,11.73-3,3.6-1.45,7.55-2,11.35-3,.29,1,1.52,2.23-.4,2.75-6.37,1.71-13.12,1.86-19.25,4.7C412,151.74,410.68,150.81,409.75,149.79Z" transform="translate(-8.48 -9.04)" style="fill:#fff"/><path d="M151.77,101.43l-9.2-3.77C146.08,97.82,149.7,97.73,151.77,101.43Z" transform="translate(-8.48 -9.04)" style="fill:#fff"/><path d="M411.53,244.3c-.55,1.55-1.31,3.56-3.18,2.42-1-.63-.86-2.8,1.33-3.19A1.79,1.79,0,0,0,411.53,244.3Z" transform="translate(-8.48 -9.04)" style="fill:#fff"/><path d="M151.67,262.44a14.78,14.78,0,0,1,4-5.16c0,1.37,3,2.45.61,4C155,262.06,154,265.12,151.67,262.44Z" transform="translate(-8.48 -9.04)" style="fill:#fff"/><path d="M187.73,212.58c-1.26-2.65-1.7-1-2.8.28-1.58,1.77-3,5.6-6.28,1.72,2.92-4.23,7.74-6.75,10.24-11.33.84-1.53,2.19.55,2.91-.68,2.64,1.7,1.76,3.33-.09,4.94l-1.07,2C189.19,210.08,190,212.84,187.73,212.58Z" transform="translate(-8.48 -9.04)" style="fill:#fff"/><path d="M238.9,138.89c2.6.23-1.88,4,1.83,3.66.1,1.4-2.39.31-2,2-1.47,3.67-2.8,1.66-4.13-.1C234.81,141.67,237.86,141,238.9,138.89Z" transform="translate(-8.48 -9.04)" style="fill:#fff"/><path d="M191.71,207.52c1-1.63,2.07-3.26.09-4.94l-.92-1.64c3.17-1.6,3.83-5.58,6.9-7.28,1.91,2.71,2,5-.79,7.45-1.58,1.43-3.7,3-2.82,6.24C194.66,209.13,192.62,207.61,191.71,207.52Z" transform="translate(-8.48 -9.04)" style="fill:#fff"/><path d="M177.73,216.44c1,.14,2.07,0,1.84,1.61-.55,3.68-8.33,11-12.34,11.56A74.6,74.6,0,0,1,177.73,216.44Z" transform="translate(-8.48 -9.04)" style="fill:#fff"/><path d="M166.77,231c.65,3-1.92,4.42-3.34,6.32-.32.43-1.54-.87-2-1.79C163.09,233.89,164.27,231.69,166.77,231Z" transform="translate(-8.48 -9.04)" style="fill:#fff"/><path d="M151.7,248.55c2.89,4.94-3,6.39-4.25,9.67-1,2.45-3.38,4.73-4.42,7.55-1.32-.08-1.72-1.13-2.18-2.1,3.55-5.09,6.26-10.79,10.93-15.07Z" transform="translate(-8.48 -9.04)" style="fill:#fff"/><path d="M140.84,263.67a4,4,0,0,1,2.18,2.1c-.71,1.55-2.23,2.71-3.49,1.67C137.46,265.73,141.35,265.31,140.84,263.67Z" transform="translate(-8.48 -9.04)" style="fill:#fff"/></svg>
