<?xml version="1.0" encoding="utf-8"?>
<!-- Svg Vector Icons : http://www.onlinewebfonts.com/icon -->
<!DOCTYPE svg PUBLIC "-//W3C//DTD SVG 1.1//EN" "http://www.w3.org/Graphics/SVG/1.1/DTD/svg11.dtd">
<svg version="1.1" xmlns="http://www.w3.org/2000/svg" xmlns:xlink="http://www.w3.org/1999/xlink" x="0px" y="0px" viewBox="0 0 1000 1000" enable-background="new 0 0 1000 1000" xml:space="preserve">
<metadata> Svg Vector Icons : http://www.onlinewebfonts.com/icon </metadata>
<g><path d="M215,540.2c2.5-4,1-7-3-10c-4.5-3.5-8.9-6-11.9-2c0,0-3.5,4-13.9-5.5c-11.4-11.5-6.5-15.4-6.5-15.4c4-4,1.5-7-2-11.5c-3.5-5-7-6.5-11.9-2.5c-9.4,8,4,25.9,10.9,32.9l0,0c0,0,9.9,11,16.9,14.4c3.5,2,3.5,2,3.5,2c5,2.5,10.4,3.5,14.4,1.5C211.5,544.2,213.5,543.2,215,540.2L215,540.2z M215,540.2L215,540.2"/><path d="M967.8,902.5c45.4-72.8,18.2-127.4-54.4-182C831.7,656.8,750,611.2,695.6,684c0,0-63.5,72.8-254.1-100.1c-208.7-209.3-118-282.1-118-282.1c72.6-72.8,27.2-127.4-36.3-209.3C223.7,1.5,160.2-25.8,69.4,47C-103,192.6,142,520.2,269.1,647.7l0,0c0,0,181.5,200.2,308.5,263.9c63.5,36.4,63.5,36.4,63.5,36.4c90.7,45.5,190.6,63.7,263.2,27.3C904.3,975.3,940.6,957.1,967.8,902.5L967.8,902.5z M967.8,902.5L967.8,902.5"/></g>
</svg>
