<svg xmlns="http://www.w3.org/2000/svg" width="800" height="250"><path d="M1000,-175L850,-175L1000,-25Z" fill="#c98f57" stroke="#c98f57" stroke-width="1.51"/><path d="M850,-175L850,-25L1000,-25Z" fill="#d18d4c" stroke="#d18d4c" stroke-width="1.51"/><path d="M850,275L1000,275L1000,125Z" fill="#b94e0b" stroke="#b94e0b" stroke-width="1.51"/><path d="M850,125L850,275L1000,125Z" fill="#c75c10" stroke="#c75c10" stroke-width="1.51"/><path d="M1000,-25L850,-25L1000,125Z" fill="#c57a2b" stroke="#c57a2b" stroke-width="1.51"/><path d="M850,-25L850,125L1000,125Z" fill="#cd7320" stroke="#cd7320" stroke-width="1.51"/><path d="M1000,275L850,275L1000,425Z" fill="#a83c04" stroke="#a83c04" stroke-width="1.51"/><path d="M850,275L850,425L1000,425Z" fill="#a23804" stroke="#a23804" stroke-width="1.51"/><path d="M850,-175L700,-175L850,-25Z" fill="#e29a5a" stroke="#e29a5a" stroke-width="1.51"/><path d="M700,-175L700,-25L850,-25Z" fill="#e89a50" stroke="#e89a50" stroke-width="1.51"/><path d="M850,-25L700,-25L850,125Z" fill="#dd862d" stroke="#dd862d" stroke-width="1.51"/><path d="M700,-25L700,125L850,125Z" fill="#e47e21" stroke="#e47e21" stroke-width="1.51"/><path d="M850,125L700,125L850,275Z" fill="#d76310" stroke="#d76310" stroke-width="1.51"/><path d="M700,125L700,275L850,275Z" fill="#d95c0a" stroke="#d95c0a" stroke-width="1.51"/><path d="M850,275L700,275L850,425Z" fill="#bf4603" stroke="#bf4603" stroke-width="1.51"/><path d="M700,275L700,425L850,425Z" fill="#b94303" stroke="#b94303" stroke-width="1.51"/><path d="M700,-175L550,-175L700,-25Z" fill="#f5a960" stroke="#f5a960" stroke-width="1.51"/><path d="M550,-175L550,-25L700,-25Z" fill="#f7a957" stroke="#f7a957" stroke-width="1.51"/><path d="M700,-25L550,-25L700,125Z" fill="#ef9432" stroke="#ef9432" stroke-width="1.51"/><path d="M550,-25L550,125L700,125Z" fill="#f38d28" stroke="#f38d28" stroke-width="1.51"/><path d="M700,125L550,125L700,275Z" fill="#e97115" stroke="#e97115" stroke-width="1.51"/><path d="M550,125L550,275L700,275Z" fill="#e86c12" stroke="#e86c12" stroke-width="1.51"/><path d="M700,275L550,275L700,425Z" fill="#d15406" stroke="#d15406" stroke-width="1.51"/><path d="M550,275L550,425L700,425Z" fill="#c8520a" stroke="#c8520a" stroke-width="1.51"/><path d="M550,-175L400,-175L550,-25Z" fill="#ffb968" stroke="#ffb968" stroke-width="1.51"/><path d="M400,-175L400,-25L550,-25Z" fill="#ffba60" stroke="#ffba60" stroke-width="1.51"/><path d="M550,-25L400,-25L550,125Z" fill="#faa43a" stroke="#faa43a" stroke-width="1.51"/><path d="M400,-25L400,125L550,125Z" fill="#fc9f31" stroke="#fc9f31" stroke-width="1.51"/><path d="M550,125L400,125L550,275Z" fill="#f5821e" stroke="#f5821e" stroke-width="1.51"/><path d="M400,125L400,275L550,275Z" fill="#f27e1b" stroke="#f27e1b" stroke-width="1.51"/><path d="M550,275L400,275L550,425Z" fill="#dc650f" stroke="#dc650f" stroke-width="1.51"/><path d="M400,275L400,425L550,425Z" fill="#d16513" stroke="#d16513" stroke-width="1.51"/><path d="M250,425L400,425L400,275Z" fill="#d5711c" stroke="#d5711c" stroke-width="1.51"/><path d="M250,275L250,425L400,275Z" fill="#e37f22" stroke="#e37f22" stroke-width="1.51"/><path d="M250,275L400,275L400,125Z" fill="#f58b25" stroke="#f58b25" stroke-width="1.51"/><path d="M250,125L250,275L400,125Z" fill="#fa9b2f" stroke="#fa9b2f" stroke-width="1.51"/><path d="M250,125L400,125L400,-25Z" fill="#ffab3a" stroke="#ffab3a" stroke-width="1.51"/><path d="M250,-25L250,125L400,-25Z" fill="#ffbd4a" stroke="#ffbd4a" stroke-width="1.51"/><path d="M250,-25L400,-25L400,-175Z" fill="#ffc668" stroke="#ffc668" stroke-width="1.51"/><path d="M250,-175L250,-25L400,-175Z" fill="#ffd179" stroke="#ffd179" stroke-width="1.51"/><path d="M100,425L250,425L250,275Z" fill="#d68430" stroke="#d68430" stroke-width="1.51"/><path d="M100,275L100,425L250,275Z" fill="#e5903c" stroke="#e5903c" stroke-width="1.51"/><path d="M250,-175L100,-175L250,-25Z" fill="#ffdd86" stroke="#ffdd86" stroke-width="1.51"/><path d="M100,-175L100,-25L250,-25Z" fill="#ffdc84" stroke="#ffdc84" stroke-width="1.51"/><path d="M100,275L250,275L250,125Z" fill="#f69d39" stroke="#f69d39" stroke-width="1.51"/><path d="M100,125L100,275L250,125Z" fill="#fcac49" stroke="#fcac49" stroke-width="1.51"/><path d="M250,-25L100,-25L250,125Z" fill="#ffc858" stroke="#ffc858" stroke-width="1.51"/><path d="M100,-25L100,125L250,125Z" fill="#ffc258" stroke="#ffc258" stroke-width="1.51"/><path d="M-50,-25L100,-25L100,-175Z" fill="#fee595" stroke="#fee595" stroke-width="1.51"/><path d="M-50,-175L-50,-25L100,-175Z" fill="#ffeda8" stroke="#ffeda8" stroke-width="1.51"/><path d="M-50,425L100,425L100,275Z" fill="#d8914c" stroke="#d8914c" stroke-width="1.51"/><path d="M-50,275L-50,425L100,275Z" fill="#e89b54" stroke="#e89b54" stroke-width="1.51"/><path d="M100,-25L-50,-25L100,125Z" fill="#ffd575" stroke="#ffd575" stroke-width="1.51"/><path d="M-50,-25L-50,125L100,125Z" fill="#ffcd71" stroke="#ffcd71" stroke-width="1.51"/><path d="M-50,275L100,275L100,125Z" fill="#f9aa57" stroke="#f9aa57" stroke-width="1.51"/><path d="M-50,125L-50,275L100,125Z" fill="#feb762" stroke="#feb762" stroke-width="1.51"/><path d="M-50,-175L-200,-175L-50,-25Z" fill="#fff3b4" stroke="#fff3b4" stroke-width="1.51"/><path d="M-200,-175L-200,-25L-50,-25Z" fill="#ffefaf" stroke="#ffefaf" stroke-width="1.51"/><path d="M-50,-25L-200,-25L-50,125Z" fill="#ffde88" stroke="#ffde88" stroke-width="1.51"/><path d="M-200,-25L-200,125L-50,125Z" fill="#ffd484" stroke="#ffd484" stroke-width="1.51"/><path d="M-50,125L-200,125L-50,275Z" fill="#ffbd6f" stroke="#ffbd6f" stroke-width="1.51"/><path d="M-200,125L-200,275L-50,275Z" fill="#fcb470" stroke="#fcb470" stroke-width="1.51"/><path d="M-50,275L-200,275L-50,425Z" fill="#eaa161" stroke="#eaa161" stroke-width="1.51"/><path d="M-200,275L-200,425L-50,425Z" fill="#dc9b65" stroke="#dc9b65" stroke-width="1.51"/></svg>