<svg xmlns="http://www.w3.org/2000/svg" width="800" height="250"><path d="M1000,-175L850,-175L1000,-25Z" fill="#bd768b" stroke="#bd768b" stroke-width="1.51"/><path d="M850,-175L850,-25L1000,-25Z" fill="#bf6e8c" stroke="#bf6e8c" stroke-width="1.51"/><path d="M850,275L1000,275L1000,125Z" fill="#b7155e" stroke="#b7155e" stroke-width="1.51"/><path d="M850,125L850,275L1000,125Z" fill="#bf2b6e" stroke="#bf2b6e" stroke-width="1.51"/><path d="M1000,-25L850,-25L1000,125Z" fill="#af567d" stroke="#af567d" stroke-width="1.51"/><path d="M850,-25L850,125L1000,125Z" fill="#ba4c7d" stroke="#ba4c7d" stroke-width="1.51"/><path d="M1000,275L850,275L1000,425Z" fill="#a90646" stroke="#a90646" stroke-width="1.51"/><path d="M850,275L850,425L1000,425Z" fill="#a20246" stroke="#a20246" stroke-width="1.51"/><path d="M850,-175L700,-175L850,-25Z" fill="#d68098" stroke="#d68098" stroke-width="1.51"/><path d="M700,-175L700,-25L850,-25Z" fill="#d87796" stroke="#d87796" stroke-width="1.51"/><path d="M850,-25L700,-25L850,125Z" fill="#c85f89" stroke="#c85f89" stroke-width="1.51"/><path d="M700,-25L700,125L850,125Z" fill="#d35487" stroke="#d35487" stroke-width="1.51"/><path d="M850,125L700,125L850,275Z" fill="#d03074" stroke="#d03074" stroke-width="1.51"/><path d="M700,125L700,275L850,275Z" fill="#d81d6d" stroke="#d81d6d" stroke-width="1.51"/><path d="M850,275L700,275L850,425Z" fill="#c00d51" stroke="#c00d51" stroke-width="1.51"/><path d="M700,275L700,425L850,425Z" fill="#ba0b4f" stroke="#ba0b4f" stroke-width="1.51"/><path d="M700,-175L550,-175L700,-25Z" fill="#e688aa" stroke="#e688aa" stroke-width="1.51"/><path d="M550,-175L550,-25L700,-25Z" fill="#e37fad" stroke="#e37fad" stroke-width="1.51"/><path d="M700,-25L550,-25L700,125Z" fill="#d7679b" stroke="#d7679b" stroke-width="1.51"/><path d="M550,-25L550,125L700,125Z" fill="#de5c9d" stroke="#de5c9d" stroke-width="1.51"/><path d="M700,125L550,125L700,275Z" fill="#e03786" stroke="#e03786" stroke-width="1.51"/><path d="M550,125L550,275L700,275Z" fill="#e42783" stroke="#e42783" stroke-width="1.51"/><path d="M700,275L550,275L700,425Z" fill="#d11762" stroke="#d11762" stroke-width="1.51"/><path d="M550,275L550,425L700,425Z" fill="#c61664" stroke="#c61664" stroke-width="1.51"/><path d="M550,-175L400,-175L550,-25Z" fill="#e894c0" stroke="#e894c0" stroke-width="1.51"/><path d="M400,-175L400,-25L550,-25Z" fill="#e08ec1" stroke="#e08ec1" stroke-width="1.51"/><path d="M550,-25L400,-25L550,125Z" fill="#da73b0" stroke="#da73b0" stroke-width="1.51"/><path d="M400,-25L400,125L550,125Z" fill="#dc6db0" stroke="#dc6db0" stroke-width="1.51"/><path d="M550,125L400,125L550,275Z" fill="#e5499a" stroke="#e5499a" stroke-width="1.51"/><path d="M400,125L400,275L550,275Z" fill="#e44395" stroke="#e44395" stroke-width="1.51"/><path d="M550,275L400,275L550,425Z" fill="#d73075" stroke="#d73075" stroke-width="1.51"/><path d="M400,275L400,425L550,425Z" fill="#c73675" stroke="#c73675" stroke-width="1.51"/><path d="M250,425L400,425L400,275Z" fill="#c4487e" stroke="#c4487e" stroke-width="1.51"/><path d="M250,275L250,425L400,275Z" fill="#d15587" stroke="#d15587" stroke-width="1.51"/><path d="M250,275L400,275L400,125Z" fill="#e0559e" stroke="#e0559e" stroke-width="1.51"/><path d="M250,125L250,275L400,125Z" fill="#dd69ac" stroke="#dd69ac" stroke-width="1.51"/><path d="M250,125L400,125L400,-25Z" fill="#d77ab9" stroke="#d77ab9" stroke-width="1.51"/><path d="M250,-25L250,125L400,-25Z" fill="#cf8cc3" stroke="#cf8cc3" stroke-width="1.51"/><path d="M250,-25L400,-25L400,-175Z" fill="#da9aca" stroke="#da9aca" stroke-width="1.51"/><path d="M250,-175L250,-25L400,-175Z" fill="#dbabd3" stroke="#dbabd3" stroke-width="1.51"/><path d="M100,425L250,425L250,275Z" fill="#c05f87" stroke="#c05f87" stroke-width="1.51"/><path d="M100,275L100,425L250,275Z" fill="#d26a8f" stroke="#d26a8f" stroke-width="1.51"/><path d="M250,-175L100,-175L250,-25Z" fill="#d6b7d9" stroke="#d6b7d9" stroke-width="1.51"/><path d="M100,-175L100,-25L250,-25Z" fill="#d3b2d6" stroke="#d3b2d6" stroke-width="1.51"/><path d="M100,275L250,275L250,125Z" fill="#dc6da8" stroke="#dc6da8" stroke-width="1.51"/><path d="M100,125L100,275L250,125Z" fill="#dd7db5" stroke="#dd7db5" stroke-width="1.51"/><path d="M250,-25L100,-25L250,125Z" fill="#cb99c9" stroke="#cb99c9" stroke-width="1.51"/><path d="M100,-25L100,125L250,125Z" fill="#d293c6" stroke="#d293c6" stroke-width="1.51"/><path d="M-50,-25L100,-25L100,-175Z" fill="#d6bddd" stroke="#d6bddd" stroke-width="1.51"/><path d="M-50,-175L-50,-25L100,-175Z" fill="#decee5" stroke="#decee5" stroke-width="1.51"/><path d="M-50,425L100,425L100,275Z" fill="#c7708f" stroke="#c7708f" stroke-width="1.51"/><path d="M-50,275L-50,425L100,275Z" fill="#d97c97" stroke="#d97c97" stroke-width="1.51"/><path d="M100,-25L-50,-25L100,125Z" fill="#d0a9d2" stroke="#d0a9d2" stroke-width="1.51"/><path d="M-50,-25L-50,125L100,125Z" fill="#d9a5cf" stroke="#d9a5cf" stroke-width="1.51"/><path d="M-50,275L100,275L100,125Z" fill="#e37fb0" stroke="#e37fb0" stroke-width="1.51"/><path d="M-50,125L-50,275L100,125Z" fill="#e48fbe" stroke="#e48fbe" stroke-width="1.51"/><path d="M-50,-175L-200,-175L-50,-25Z" fill="#e4daeb" stroke="#e4daeb" stroke-width="1.51"/><path d="M-200,-175L-200,-25L-50,-25Z" fill="#e1d2e7" stroke="#e1d2e7" stroke-width="1.51"/><path d="M-50,-25L-200,-25L-50,125Z" fill="#d9bbdb" stroke="#d9bbdb" stroke-width="1.51"/><path d="M-200,-25L-200,125L-50,125Z" fill="#e1b3d7" stroke="#e1b3d7" stroke-width="1.51"/><path d="M-50,125L-200,125L-50,275Z" fill="#eb9bc4" stroke="#eb9bc4" stroke-width="1.51"/><path d="M-200,125L-200,275L-50,275Z" fill="#f095ba" stroke="#f095ba" stroke-width="1.51"/><path d="M-50,275L-200,275L-50,425Z" fill="#e0889d" stroke="#e0889d" stroke-width="1.51"/><path d="M-200,275L-200,425L-50,425Z" fill="#d38599" stroke="#d38599" stroke-width="1.51"/></svg>