<svg id="Layer_1" data-name="Layer 1" xmlns="http://www.w3.org/2000/svg" viewBox="0 0 118.71 122.29">
  <path id="llv" d="M127.35,117.66l2.84-1.6c3.4-1.92,5.66-3.19,7.61-5a13.59,13.59,0,0,0,3.68-8c.42-3.22-.29-5.81-1.32-9s-3.9-8.25-7.74-15.05c-2.87-5.1-4.79-8.5-5.82-11.65s-1.49-6.63-.75-9.29a11.2,11.2,0,0,1,5.77-7L126.51,42a11.24,11.24,0,0,1-9,1.32c-2.65-.74-5.38-2.94-7.55-5.45s-4.08-5.92-6.95-11c-3.83-6.8-6.71-11.9-8.87-14.41s-4-4.46-7-5.77a13.64,13.64,0,0,0-8.79-1c-2.58.71-4.85,2-8.25,3.9l-2.83,1.6,4.79,8.5,1.7-1c4-2.23,6.55-2.94,8.32-2.45,2.66.74,3.55,1,4.51,2.69l8,14.17c4.79,8.5,9.12,13.53,12.73,16s8.3,2.79,12.66,2.57c-2.44,3.62-4.57,7.8-4.35,12.16s2.28,10.66,7.07,19.16l8,14.17c1,1.7.71,2.59,0,5.25-.49,1.77-2.44,3.61-6.41,5.85l-1.7,1Z" transform="translate(-13.11 -5.28)" fill="#85858512"/>
  <g id="use8">
    <path id="llv-2" data-name="llv" d="M87.4,140.17l-2.83,1.6c-3.4,1.92-5.67,3.19-8.25,3.9a13.57,13.57,0,0,1-8.79-1c-3-1.3-4.82-3.25-7-5.77s-5-7.61-8.87-14.41c-2.87-5.1-4.79-8.5-7-11s-4.9-4.71-7.55-5.45a11.24,11.24,0,0,0-9,1.31l-5.11-9.06a11.24,11.24,0,0,0,5.77-7c.74-2.66.28-6.13-.75-9.28s-2.95-6.55-5.82-11.65c-3.83-6.8-6.71-11.9-7.74-15.06s-1.74-5.74-1.32-9a13.68,13.68,0,0,1,3.68-8c1.95-1.84,4.21-3.12,7.62-5l2.83-1.59,4.79,8.5-1.7,1c-4,2.23-5.91,4.08-6.41,5.85-.74,2.66-1,3.54,0,5.24l8,14.17c4.8,8.5,6.86,14.8,7.07,19.16s-1.9,8.54-4.35,12.16c4.36-.22,9,.13,12.66,2.58s7.94,7.47,12.73,16l8,14.16c1,1.7,1.84,2,4.5,2.69,1.77.5,4.36-.21,8.32-2.45l1.7-1Z" transform="translate(-13.11 -5.28)" fill="#85858512"/>
  </g>
</svg>
