<svg xmlns="http://www.w3.org/2000/svg" viewBox="0 0 1252.65 872.34"><title>exsportv2</title><path d="M876.76,28.06c241,3,434.65,198.61,432.74,437.22-1.94,241.82-200.36,436.7-441,433.17-238.82-3.5-432.15-200.77-429.56-438.29C441.52,219.88,638.89,25.11,876.76,28.06Z" transform="translate(-57.71 -27.1)" style="fill:#025c7d"/><path d="M875.39,36.1c235.71.72,427,193.75,426,429.9-1,234.06-194.46,425.28-429.39,424.44-234.18-.84-425.49-194-424.88-428.93C447.68,227.14,640.74,35.39,875.39,36.1Z" transform="translate(-57.71 -27.1)" style="fill:#fefefe;stroke:#444;stroke-miterlimit:10;stroke-width:18px"/><path d="M695.1,330.57c25.32-12.2,39.23-32.67,39.87-62.64,9.49,6.31,4,13.39,8.77,17.91,14.8-5.63,5.77-15.27,3.2-23.5-3.09-9.88-8.26-6-14.1-2.12-7.92,5.27-13.92,1.92-15.67-6.6-3.55-17.36-2.08-35.84,12.62-46.11,11.38-7.95,18.55-17.56,22-28.95,5.81-19,25.27-30.49,26.32-51.49,0-.56.56-1.53.94-1.57,19.42-2.28,31.41-21.76,51.16-22.07,2.35,0,19.15-7,11.87,10-2.23,5.22,4.7,4.94,8.29,6.49,15.21,6.58,31.63,10.85,43.7,23.49,6.33,6.63,11.36,13.7,4.91,22.09-5.64,7.33-13.58,5.41-21.06,1.7-6-3-12.22-5.59-22.49-10.25,5.66,8.1,10.43,12.07,11.3,16.76,1.94,10.46,1.88,21.31,15,24.75.08-11.55,15.42-10.72,17.2-21.2.41-2.4,3.22-6.15,5.1-6.26,26.71-1.52,11.31-21.09,13.81-33.12,7.74,1.75,14.92,3,10.16,13.46-1.51,3.33-1.44,7.46,2.8,8.55,2,.52,5.67-1.16,7-3,10.75-14.44,25.1-19,42.75-20.28,9.93-.71,25.37,3.85,28.86-14.52.84-4.43,8.89-1.36,13,1.26,8.07,5.14,15.86,10.71,24.21,16.4,5.86-11.91-8.53-17.35-6.66-28.12,1.4-8-6.58-20.4,6.45-22.16,11.4-1.54,22.35,6.3,22.82,19.57.65,18.3,5.3,37.29-8.46,56.54,13.92-2.7,16.52-11.1,17.19-18.79,1.28-14.5,4.6-19.65,16-4.26,1.9-10.82-4-12.89-10.51-13.92-13.43-2.14-10.69-12.88-8-19.5,4.51-11.15,10.54-.54,14.41,1.87q122.79,76.56,173.41,212.31c2,5.23,8.42,11.95,2.19,17.27-4.93,4.21-9.94-2.83-15.15-3.87-12.77-2.56-26.26-2.24-35.51-14.57-4.54-6.06-11.77-3.13-12.66,3.29-2.11,15.19-9.85,13-20.63,9.9-6.35-1.83-15.77-2.47-20.43.95-20.75,15.22-45.94,26.81-53.08,55.14-2.41,9.55-9,13.43-17.7,15.72-16.34,4.33-17.16,13-7.68,25.66,3.8,5.05,16.69,13.38-2.27,16.1-4.72.68-5.81,4-3.45,7.56,9.89,14.76-5.1,21.54-10.81,30.1-4,5.93-13.66,6.08-10,18.45,2.53,8.62-8.2,7.14-13.93,6.13-23.84-4.17-47.66-8.55-71.34-13.54-8.56-1.81-14.47-8.21-19.1-15.6-2.09-3.34-5.49-4.9-8.91-2.72-4,2.55-2.41,6.88,0,9,9.7,8.64,10.31,32.89,33.72,18.76,8.81-5.32,12,6.86,17.64,10.91,6.08,4.34,2.81,9.32-.74,14.43-16.69,24-42.44,33.14-68.26,42-7.59,2.6-11.57-3.07-13.65-9.68-8-25.48-23.17-47.1-37.06-69.48-3.73-6-7.39-7.18-14.86-5.59,20,29.46,24.88,66.25,52.58,91.78,9.41,8.68,15.91,11.71,26.78,8.25,4.71-1.5,10-4,14-.46,5.6,5,.13,10.79-1.7,15.23-6.21,15.06-16.14,27.4-29.39,37.41-23,17.38-37.38,37.54-22.43,68.38,6,12.39,1.89,25.18-10.5,33-11.56,7.31-17,16-17.47,30.74-1,30.09-40.29,70.59-69.35,74.32-12.23,1.57-20,0-24-15.51-6-23.43-17-45.61-25.82-68.31-5.67-14.53-8.94-27.68-1.07-44,7.73-16.07,2.73-34.16-8.63-49-3.8-4.95-9.13-8.73-9.85-15.69-1.25-12.1,5.79-24.79-16.14-30.94-14.15-4-24.32-7.1-38.4-2.07C646.8,634,596.84,609.63,596,577.95c-.74-28.06-8.82-62.32,21.78-84.21,8.06-5.77,12.28-14.22,16.4-23.54,6.55-14.81,16.29-25.86,36.27-26.42,19.15-.53,37.59-9.7,57.66-8.89,7.15.29,12.17-.86,13.33,8.13.67,5.2-6,13.66,1,14.94,15.18,2.78,25.72,13.88,39.55,18.46,1.06.35,3.43-.3,3.75-1.07,9.82-24.25,25.18-7.95,37.9-4.62,25.52,6.68,48.88-2.43,51.84-21.66,1-6.4,2.24-13-8.18-12.66-19.59.63-40.74,3.6-42.59-25.79-.24-3.85-5.06-4.52-8.59-3.16-4.16,1.6-7.57,4.74-6.67,9.5,1.2,6.33,3.1,12.38-5.16,17.55-14.13-22.3-22.39-50.18-51-61.37-5.06,21.54,34.74,22.32,20.07,48.27-9.19-15.72-24.4-23.75-35.61-36-8.49-9.32-27.12,2.54-29.24,6.23-6.21,10.78-19.94,14.78-22.34,28.9-2.51,14.8-15.65,16.5-28.22,14.66s-18.71-8.16-17.94-22.69c1.45-27.4.49-27.64,26.76-24.22,5.32.69,10.21,1,13.12-3.71a17.86,17.86,0,0,0-.23-19.9c-3.31-5.11-7.54-9.62-11.46-14.52,6.37-8.71,25.61-2.29,27-19.71Z" transform="translate(-57.71 -27.1)" style="fill:#c7c7c7"/><path d="M946.05,720.74c4.65,10.48-4.75,57.81-13,65.11-3.36,3-7.07,4.87-11.32,3-5.82-2.53-7.91-7.69-7.18-13.68C917.32,752.58,921.13,730.47,946.05,720.74Z" transform="translate(-57.71 -27.1)" style="fill:#c8c8c8"/><path d="M695.24,330.4c-9.8-.76-19.25,1.22-30.94,4.93,3.66-18.32,8-35.8-4.67-51-1.23-1.46-1.6-3.88-1.82-5.91-.76-6.95-1.83-14.11,6.07-18.21,1.57,7.36,17.37,5,11.42,18.33-4.05,9,6.08,14.71,9.71,21.76,5,9.72,10.23,19,10.1,30.25Z" transform="translate(-57.71 -27.1)" style="fill:#c9c9c9"/><path d="M604.73,215.32c-1.26-2.59-7-4-2.37-8.1,2.67-2.33,4.82.37,7.25,1.45,7.86,3.5,14.51-1.86,21.68-3.5,5.76-1.32,10.82-1.51,14.29,4.88,3.34,6.16,4,11.43-.85,17.22-7.44,8.85-16.76,13.45-27.74,9.92C607.19,234.06,599.15,228,604.73,215.32Z" transform="translate(-57.71 -27.1)" style="fill:#c8c8c8"/><path d="M638.27,311.27c-3-10.68,3.1-16.38,11.75-17.81,8.29-1.37,6.76,6.38,7.05,11.66.49,8.89-3.58,14.75-12.23,16.31C635.39,323.13,637.24,316.61,638.27,311.27Z" transform="translate(-57.71 -27.1)" style="fill:#c9c9c9"/><path d="M738.35,294.32c31.23-.26,35.58-24.54,44.26-44.83.53-1.24,1.19-3.25.61-4-20.9-28.08,14-40.59,17.46-62,1.06-6.66,7.3-11.1,14.45-7.27,9.45,5.06,3.78,12.07.4,17.75-5.18,8.7-15.94,13.68-15.54,26.19.45,14.32,1,26.56,21.13,18.73,5.56-2.17,12.35-2.91,18.85,3.52-3.46,5.92-10.41,5.25-15.44,7-6.75,2.39-20.11-1.73-10.39,13.44,2.59,4-.48,7.18-4.5,6.44-12.18-2.23-13.18,3.67-10.51,13,1.29,4.53.42,9-4.32,10.37C777,298,759.29,307.75,738.35,294.32Z" transform="translate(-57.71 -27.1)" style="fill:#fdfdfd"/><path d="M889,361.41c-13.06,14.55-1,18.56,7,25,4.36,3.48,12.14,7.34,7.09,15-4,6.12-11.24,6.58-16.93,2.92-12-7.69-23.55-6.3-35.9-1.47-15.2,5.94-17.59-2.84-14.88-14.7,3.88-17,13.82-20.5,27.62-10.66,4.25,3,7.86,1.45,9.78-4.28C875.45,365.3,875.45,365.3,889,361.41Z" transform="translate(-57.71 -27.1)" style="fill:#fdfdfd"/><path d="M972.77,371.87c-22.15,7.07-21.46,9.38-8.24,26.31,6,7.71,5.08,21.46,5.57,32.55.16,3.72-6.25,5.59-10.5,4.07-6.45-2.3-16.85-5.12-14.6-12.39,4.22-13.59-4.36-22.34-8-32.85-4.2-12.06-.81-19.94,9.9-26.15C959,356.39,966.23,361.5,972.77,371.87Z" transform="translate(-57.71 -27.1)" style="fill:#fcfcfc"/><path d="M341.37,611.7c5.51-12.43,11.54-24.64,17.65-36.77q22-43.72,47.41-85.62c20.51-33.66,42.76-66.47,68.23-96.59,23.24-27.48,49.58-54.18,81.52-71.45,26.12-14.13,55.9-19.76,83.6-7.7A98.9,98.9,0,0,1,650.4,319c6.67,3.92,12.72-6.44,6.06-10.36-28.31-16.65-61-17.43-91.07-5-33.62,13.88-61.75,39.11-86.06,65.61-27.53,30-51.37,63.4-73.18,97.74-18.86,29.7-36.2,60.37-52.3,91.65-7.85,15.24-15.6,30.6-22.53,46.28l-.31.69c-3.1,7,7.23,13.11,10.36,6.06Z" transform="translate(-57.71 -27.1)" style="fill:#2d2d2d"/><path d="M384.81,657.46c15.07-8.22,29.87-17,44.6-25.76Q484.15,599,536.86,563c45.05-30.77,89-63.33,130.68-98.52,41.51-35,81.4-72.81,114.93-115.68,27.69-35.4,53.23-76,60.87-121.06.85-5,1.48-10,1.88-15,.61-7.7-11.39-7.66-12,0-3.42,43.08-26.22,82.92-51.28,117.1C750.55,372.63,712,410.17,672,444.9c-40.95,35.58-84.31,68.32-128.86,99.24q-54,37.47-110.27,71.45c-17.62,10.66-35.86,20.36-53.42,31.1-.24.15-.49.27-.74.41-6.78,3.7-.73,14.06,6.06,10.36Z" transform="translate(-57.71 -27.1)" style="fill:#2d2d2d"/><path d="M407.53,709.58,442.36,716,526,731.43l101.79,18.76,87.58,16.14c14.2,2.62,28.37,5.47,42.61,7.85l.61.11c7.55,1.39,10.79-10.17,3.19-11.57L727,756.31l-83.68-15.42L541.52,722.12,453.94,706c-14.2-2.62-28.37-5.47-42.61-7.85l-.61-.11c-7.55-1.39-10.79,10.17-3.19,11.57Z" transform="translate(-57.71 -27.1)" style="fill:#2d2d2d"/><path d="M821.53,223.38a2,2,0,0,1-1.81-3.14l8.83-14.3,8.83-14.3a2.23,2.23,0,0,1,3.8-.09l8,13.9,8,13.9a2.22,2.22,0,0,1-2,3.23l-16.84.4Z" transform="translate(-57.71 -27.1)" style="fill:#2d2d2d"/><path d="M651.51,294a2,2,0,0,1,3.59-.5l10,13.53,10,13.53a2.23,2.23,0,0,1-1.34,3.56l-15.89,2.24-15.89,2.24a2.22,2.22,0,0,1-2.25-3.06l5.92-15.77Z" transform="translate(-57.71 -27.1)" style="fill:#2d2d2d"/><path d="M784.72,768a2,2,0,0,1-.3,3.61L769,778.37l-15.4,6.73a2.23,2.23,0,0,1-3.18-2.09l1.32-16,1.32-16a2.22,2.22,0,0,1,3.48-1.52l14.07,9.25Z" transform="translate(-57.71 -27.1)" style="fill:#2d2d2d"/><ellipse cx="140.57" cy="732.67" rx="140.57" ry="23.73" style="fill:#161616;opacity:0.24"/><ellipse cx="143.57" cy="463.67" rx="140.57" ry="23.73" style="fill:#161616;opacity:0.24"/><ellipse cx="155.08" cy="188.4" rx="140.57" ry="23.73" style="fill:#161616;opacity:0.24"/><ellipse cx="121.86" cy="95.29" rx="17.29" ry="16.77" style="fill:#282827"/><polyline points="206.18 154.05 168.19 139.57 121.88 154.08 117.38 112.05 116.32 102.53" style="fill:none;stroke:#282827;stroke-miterlimit:10;stroke-width:5px"/><polyline points="118.19 119.61 147.7 129.64 172.88 119.9" style="fill:none;stroke:#282827;stroke-miterlimit:10;stroke-width:5px"/><path d="M157.66,112.4l8.6,69.25c.23,1.89,3.24,1.91,3,0l-8.6-69.25c-.23-1.89-3.24-1.91-3,0Z" transform="translate(-57.71 -27.1)" style="fill:#3a3a3a"/><polygon points="234.43 158.49 234.43 158.51 233.66 158.51 234.43 158.49" style="fill:#d12026"/><path d="M126.81,191.34h-.14c0-.08,0-.16-.06-.22A1.07,1.07,0,0,0,126.81,191.34Z" transform="translate(-57.71 -27.1)" style="fill:#d12026"/><path d="M137.84,200.14c0,.08,0,.16,0,.24a13.22,13.22,0,0,1-1.55-.39A7.74,7.74,0,0,0,137.84,200.14Z" transform="translate(-57.71 -27.1)" style="fill:#d12026"/><path d="M136.27,200a8.25,8.25,0,0,1-3-1A24.17,24.17,0,0,0,136.27,200Z" transform="translate(-57.71 -27.1)" style="fill:#d12026"/><polygon points="234.43 158.49 234.43 158.51 233.66 158.51 234.43 158.49" style="fill:#d12026"/><path d="M299.89,181.78c-.47-.3-.94-.59-1.36-.87A6,6,0,0,1,299.89,181.78Z" transform="translate(-57.71 -27.1)" style="fill:#d12026"/><path d="M153.13,107.87c-.18.49-.37,1-.57,1.47A1.86,1.86,0,0,1,153.13,107.87Z" transform="translate(-57.71 -27.1)" style="fill:#d12026"/><path d="M299.89,181.78c-.47-.3-.94-.59-1.36-.87a.11.11,0,0,0-.08-.06c-.92-.57-1.73-1.1-2.36-1.53-11.29-7.73-22.93-14.95-34.66-22-2.81-1.69-5.37,2.71-2.56,4.4,6.51,3.92,13,7.93,19.41,12h-8.2l-3.3-1.73,0-.06-35.71-19.68-2.63-1.46-2,3.54,35.14,19.4-95.67,0q-4.13-31.86-8.24-63.7l5.61-14.43c1.18-3.05-3.72-4.37-4.9-1.36-1.77,4.54-3.52,9.06-5.31,13.59-.18.49-.37,1-.57,1.47q-9.76,25-19.7,49.85c-3.11,7.79-6.93,15.12-8.86,22.06-2.56,9.22,2.18,14.93,9.3,17.78a24.17,24.17,0,0,0,3,1,7.74,7.74,0,0,0,1.57.14c0,.08,0,.16,0,.24a34.9,34.9,0,0,0,4.64.69c12.61,1,25.39,1.29,38.21,1.27,19.88,0,39.88-.87,59.51-.93l6.45,0q20-.07,40-.15c.94,0,1.91,0,2.89,0,5.8.1,12.19.44,17.48-1.8C318.63,194.53,307.29,186.56,299.89,181.78Zm-173.22,9.55c0-.08,0-.16-.06-.22a1.07,1.07,0,0,0,.2.22Zm7.14-17.56a11.28,11.28,0,0,0-1.46.1c2-5,4.13-10.07,6.12-15.1q7.78-19.47,15.43-39,3.52,27,7,54Zm158.34,11.83h-.77l.77,0Z" transform="translate(-57.71 -27.1)" style="fill:#d12026"/><path d="M126.81,191.34h-.14c0-.08,0-.16-.06-.22A1.07,1.07,0,0,0,126.81,191.34Z" transform="translate(-57.71 -27.1)" style="fill:#fff;opacity:0.14"/><path d="M288.68,202.53c0,11.5-9.6,20.8-21.44,20.8S245.8,214,245.79,202.54a5.33,5.33,0,0,1,0-.57v-.51l.06-.75a20.4,20.4,0,0,1,6.53-13.19A16.31,16.31,0,0,1,254,186.2a21.9,21.9,0,0,1,26.53,0c.14.1.28.2.43.33a20.83,20.83,0,0,1,5.62,6.94,19.56,19.56,0,0,1,1.49,4,19.11,19.11,0,0,1,.57,3.26l.06.75v.41C288.68,202.08,288.68,202.3,288.68,202.53Z" transform="translate(-57.71 -27.1)" style="fill:#353535;stroke:#191818;stroke-miterlimit:10;stroke-width:5px"/><path d="M183.75,202.36c0,11.5-9.6,20.8-21.44,20.8s-21.45-9.29-21.45-20.79a5.33,5.33,0,0,1,0-.57v-.51l.06-.75a20.4,20.4,0,0,1,6.53-13.19A16.31,16.31,0,0,1,149,186a21.9,21.9,0,0,1,26.53,0c.14.1.28.2.43.33a20.83,20.83,0,0,1,5.62,6.94,19.56,19.56,0,0,1,1.49,4,19.11,19.11,0,0,1,.57,3.26l.06.75v.41C183.75,201.91,183.75,202.13,183.75,202.36Z" transform="translate(-57.71 -27.1)" style="fill:#353535;stroke:#191818;stroke-miterlimit:10;stroke-width:5px"/><path d="M231,139.56l-12.37,22.77c-1.88,3.45,3.39,6.54,5.27,3.08l12.37-22.77c1.88-3.45-3.39-6.54-5.27-3.08Z" transform="translate(-57.71 -27.1)" style="fill:#282827"/><line x1="69.67" y1="372.71" x2="143.53" y2="407" style="fill:#fff"/><line x1="143.53" y1="407" x2="217.39" y2="372.71" style="fill:#fff"/><line x1="143.53" y1="338.41" x2="69.67" y2="372.71" style="fill:#fff"/><line x1="217.39" y1="372.71" x2="143.53" y2="338.41" style="fill:#fff"/><line x1="69.67" y1="450.24" x2="143.53" y2="484.53" style="fill:#fff"/><line x1="217.39" y1="450.24" x2="143.53" y2="484.53" style="fill:#fff"/><line x1="69.67" y1="450.24" x2="143.53" y2="415.94" style="fill:#fff"/><line x1="217.39" y1="450.24" x2="143.53" y2="415.94" style="fill:#fff"/><line x1="69.67" y1="372.71" x2="69.67" y2="450.24" style="fill:#fff"/><line x1="143.53" y1="407" x2="143.53" y2="484.53" style="fill:#fff"/><line x1="217.39" y1="372.71" x2="217.39" y2="450.24" style="fill:#fff"/><polygon points="69.67 372.71 69.67 450.24 143.53 484.53 143.53 407 69.67 372.71" style="fill:#b38f66"/><polygon points="143.53 407 143.53 484.53 217.39 450.24 217.39 372.71 143.53 407" style="fill:#a28062"/><polyline points="217.26 372.71 249.45 357.92 174.91 324.09 143.53 338.41 112.01 324.09 37.48 357.92 69.67 372.71 32.35 391.67 106.69 426.65 143.53 407 180.24 426.65 254.57 391.67" style="fill:none"/><line x1="254.66" y1="391.71" x2="217.34" y2="372.75" style="fill:none"/><polygon points="32.35 391.67 69.67 372.71 143.53 407 106.86 426.56 32.35 391.67" style="fill:#dab789"/><polygon points="69.67 372.71 37.48 357.92 112.01 324.09 143.53 338.41 69.67 372.71" style="fill:#dab789"/><polygon points="143.53 338.41 173.98 324.09 248.51 357.92 217.39 372.71 143.53 338.41" style="fill:#dab789"/><line x1="143.53" y1="338.41" x2="143.53" y2="407" style="fill:#f1f1f2"/><polygon points="143.53 338.41 143.53 407 217.26 372.71 143.53 338.41" style="fill:#967755;opacity:0.39"/><polygon points="143.46 338.46 143.46 407.04 69.73 372.75 143.46 338.46" style="fill:#967755;opacity:0.24"/><path d="M234.83,461.87c-3.4,1.54-6.76,3.07-10.1,4.56a4.37,4.37,0,0,1-1.33.32,1.47,1.47,0,0,1-1-.11c-.3-.23.2-.74.28-1.13.28-1.35.26-2.5-.45-3.22-.17-.17-.31-.27-.12-.72a3.31,3.31,0,0,0,.06-2.68c-.23-.51,0-.83.39-1.33.6-.71,1.33-1,1.94-1.74l.66-.3c0,.13.13.1.24.07,3.62-1,5.26,2.13,3.42,6.53,0,.09-.07.19-.16.47l6.23-2.81Zm-8.29-1.48c0-1-.71-1.55-1.61-1.14a3.1,3.1,0,0,0-1.68,2.59c0,1,.7,1.54,1.59,1.15A3.22,3.22,0,0,0,226.54,460.39Z" transform="translate(-57.71 -27.1)" style="fill:#ed2525"/><path d="M243.76,453.1,242,450.73l-1.76,3.39a12.87,12.87,0,0,0-.75,1.48,4.78,4.78,0,0,1-3.83,3.37c1.9-3.63,3.59-7.35,5.73-11l1.37-.63,1.14.71h0c0,.17,0,.28.17.23h0a33.17,33.17,0,0,0,2.63,3.54c.39.54.81,1,1.27,1.64l-8.67,3.92c.46-.87.87-1.64,1.26-2.42a1.12,1.12,0,0,1,.69-.54l2.37-1.1.21-.1Z" transform="translate(-57.71 -27.1)" style="fill:#0c0b0b"/><path d="M220.46,462.89c.82-.07,1.43.17,1.56,1.13a3.72,3.72,0,0,1-1.72,3.71,32.41,32.41,0,0,1-5.44,2.72c-.31.15-.31-.08-.32-.33,0-2.86,0-5.76-.09-8.68a.65.65,0,0,1,.47-.71c1.44-.65,2.89-1.33,4.34-2,.86-.38,1.57-.31,2,.41C221.89,460.25,221.66,461.34,220.46,462.89Zm-3,3.23c0,.46-.14,1,.5.67s1.16-.62,1.15-1.42-.58-.43-1.07-.26A.79.79,0,0,0,217.44,466.12Zm0-3.42c0,.13-.24.79.38.46a1.41,1.41,0,0,0,.91-1.18c0-.53-.35-.56-.81-.39S217.37,462.12,217.46,462.7Z" transform="translate(-57.71 -27.1)" style="fill:#ed2525"/><path d="M243.93,448.08c.26-.61-.32-.5-.3-.92l9.93-4.6a4,4,0,0,1,1.83-.39c.94.08,1.49.64,1.4,1.88a4.93,4.93,0,0,1-1.72,3.38c-.11.09-.21.2-.49.49l2.14,1.38c-.09.4-.41.26-.56.52l-.68.33a10.21,10.21,0,0,0-1.76.72c-.12-.07-.28-.1-.34-.22-.88-1.87-2.82-.43-4.53.32-.35.15-.36.38-.37.65s0,.81-.08,1.5c-.79-1-1.5-1.79-2.12-2.7-.27-.4.24-.53.47-.64l5.79-2.66a5.25,5.25,0,0,0,1-.59,1.5,1.5,0,0,0,.67-1.21c0-.45-.26-.56-.63-.46a6.8,6.8,0,0,0-1,.4c-2.23,1-4.46,2-6.67,3.07-.67.32-1.24.54-1.51-.13,0-.08-.16-.21-.31.08h0c.16-.34.1-.4-.17-.23Z" transform="translate(-57.71 -27.1)" style="fill:#1a1818"/><path d="M232.44,452.31l8.1-3.69a.85.85,0,0,1,0,.1,6,6,0,0,1-3.85,3.86,29.37,29.37,0,0,0-4.09,1.91,3.41,3.41,0,0,0-1.71,2.3c-.19,1.15.28,1.78,1.25,1.65a9.41,9.41,0,0,0,2.22-.87c.63-.27,1.26-.57,2-.91-.45.89-.83,1.66-1.23,2.42a1,1,0,0,1-.33.38c-1.48.67-3,1.57-4.34,1.37-.39-.06-.53-.25-.4-.82a5,5,0,0,0-.58-4.13c-.2-.28-.15-.52.12-.91A8.11,8.11,0,0,1,232.44,452.31Z" transform="translate(-57.71 -27.1)" style="fill:#0c0b0b"/><path d="M255.65,441.61l9.8-4.46,0,.11a6.7,6.7,0,0,1-4.58,4.22c-.71.21-1,.58-1,1.41-.07,1.77-.25,3.58-.38,5.36l-.51.33-.69.32a.84.84,0,0,0-.7.31c-.57.42-.52,0-.49-.42.1-1.43.17-2.84.3-4.29.15-1.71-.47-2.56-1.77-2.68,0,0,0,0,0,0S255.62,441.66,255.65,441.61Z" transform="translate(-57.71 -27.1)" style="fill:#0c0b0b"/><path d="M238.72,458l4.19-1.7-.08,1.95-4.18,1.88Z" transform="translate(-57.71 -27.1)" style="fill:#f58b1f"/><path d="M238.72,458l-.08,2.12-3.81,1.71.06-2.1Z" transform="translate(-57.71 -27.1)" style="fill:#f05f23"/><path d="M245.44,455.15a7.67,7.67,0,0,1,2.33-1.21c.6-.32,1.19-.53,1.79-.8l-.12,2.17L245.7,457c0-.37.06-.75.05-1.11S245.95,455,245.44,455.15Z" transform="translate(-57.71 -27.1)" style="fill:#ffd113"/><path d="M249.44,455.32l.12-2.17c.94-.44,1.89-.85,2.84-1.32.5-.25.63-.11.58.43-.18,1.94.13,1.43-1.49,2.19C250.8,454.76,250.12,455,249.44,455.32Z" transform="translate(-57.71 -27.1)" style="fill:#fcec0a"/><path d="M245.44,455.15c.51-.13.31.4.31.73s0,.74-.05,1.11l-2.87,1.29.08-1.95Z" transform="translate(-57.71 -27.1)" style="fill:#f9a61f"/><path d="M257.11,450.36c.36-.08.39-.45.54-.72l.21-.09c.23.29.61.26,1,.11h0l-.05.79v0l-.69.32c-.25-.07-.49-.11-.77.36l-.47.2C256.7,451,257,450.67,257.11,450.36Z" transform="translate(-57.71 -27.1)" style="fill:#353333"/><path d="M253.38,451.76c.54-.44.77.26,1.32-.21h0c-.22.79.18.69.66.46h0c-.08.29.17.56-.28.87s-.54.17-.53-.29-.35,0-.54,0l-.22.08c.08-.38.31-.88-.3-.62C253.26,452.16,253.31,451.94,253.38,451.76Z" transform="translate(-57.71 -27.1)" style="fill:#353333"/><path d="M256.81,449.87l0,.52c-.15.44-.9.3-.79,1,.08.51.53-.14.75-.06-.21.3.1.61-.36.91s-.49,0-.52-.33-.38,0-.58.08h0l0-.78h0l.59-.39C256.39,450.7,256.31,449.92,256.81,449.87Z" transform="translate(-57.71 -27.1)" style="fill:#1a1818"/><path d="M260.06,449.1a1.3,1.3,0,0,0,.15-.3c0-.31,0-.61.44-.84s.31.3.39.53c-.22.47-.53.32-.79.54Z" transform="translate(-57.71 -27.1)" style="fill:#353333"/><path d="M261.69,448.41a.93.93,0,0,1,0-.24c0-.3-.07-.62.41-.85.31-.14.38,0,.37.28,0,.49-.29.6-.59.72l-.17.08Z" transform="translate(-57.71 -27.1)" style="fill:#353333"/><path d="M257.37,451.1c.28-.46.52-.43.77-.36-.11.33.15.71-.48,1S257.46,451.31,257.37,451.1Z" transform="translate(-57.71 -27.1)" style="fill:#0c0b0b"/><path d="M261.61,449.18c.24-.09.55-.41.69-.18a.78.78,0,0,1-.07.55.57.57,0,0,1-.47.3c-.4,0-.13-.43-.12-.7Z" transform="translate(-57.71 -27.1)" style="fill:#0c0b0b"/><path d="M260.21,449.8l.77-.35c-.18.33.08.79-.55,1S260.19,450.1,260.21,449.8Z" transform="translate(-57.71 -27.1)" style="fill:#1a1818"/><path d="M259.51,450.12c-.06.35.13.76-.49,1s-.27-.33-.19-.66v0l.72-.32Z" transform="translate(-57.71 -27.1)" style="fill:#1a1818"/><path d="M253.76,452.69l.22-.08c-.14.29.17.58-.31.86-.16.09-.38.26-.44.07a.93.93,0,0,1,.06-.55C253.39,452.77,253.6,452.78,253.76,452.69Z" transform="translate(-57.71 -27.1)" style="fill:#0c0b0b"/><path d="M260.25,449l0,.78-.72.3h0l.05-.79,0,0,.5-.26Z" transform="translate(-57.71 -27.1)" style="fill:#0c0b0b"/><path d="M261.1,449.41c-.18-.26.13-.63.24-1l.36,0v0l-.07.79,0,0Z" transform="translate(-57.71 -27.1)" style="fill:#353333"/><path d="M258.86,449.28l.59-.44c0,.22.25.21.11.52l0,0-.72.32h0Z" transform="translate(-57.71 -27.1)" style="fill:#353333"/><path d="M243.76,453.1l.09.13-.21.1Z" transform="translate(-57.71 -27.1)" style="fill:#f0eeed"/><path d="M255.39,450.7v.53h0l-.71.32h0A.82.82,0,0,1,255.39,450.7Z" transform="translate(-57.71 -27.1)" style="fill:#353333"/><polygon points="254.71 391.67 217.39 372.71 143.53 407 180.2 426.56 254.71 391.67" style="fill:#dab789"/><path d="M202.93,337.76a2,2,0,0,1-3.62,0l-7.81-14.88L183.68,308a2.23,2.23,0,0,1,1.86-3.32l16,.18,16,.18a2.22,2.22,0,0,1,1.76,3.36l-8.23,14.7Z" transform="translate(-57.71 -27.1)" style="fill:#2d2d2d"/><line x1="143.29" y1="290.9" x2="143.29" y2="229.9" style="fill:#2d2d2d"/><path d="M206,318V257c0-6.43-10-6.45-10,0v61c0,6.43,10,6.45,10,0Z" transform="translate(-57.71 -27.1)" style="fill:#2d2d2d"/><path d="M201.93,616.76a2,2,0,0,1-3.62,0l-7.81-14.88L182.68,587a2.23,2.23,0,0,1,1.86-3.32l16,.18,16,.18a2.22,2.22,0,0,1,1.76,3.36l-8.23,14.7Z" transform="translate(-57.71 -27.1)" style="fill:#2d2d2d"/><line x1="142.29" y1="569.9" x2="142.29" y2="508.9" style="fill:#2d2d2d"/><path d="M205,597V536c0-6.43-10-6.45-10,0v61c0,6.43,10,6.45,10,0Z" transform="translate(-57.71 -27.1)" style="fill:#2d2d2d"/><line x1="70.1" y1="642.97" x2="142.85" y2="676.74" style="fill:#fff"/><line x1="142.85" y1="676.74" x2="215.59" y2="642.97" style="fill:#fff"/><line x1="142.85" y1="609.2" x2="70.1" y2="642.97" style="fill:#fff"/><line x1="215.59" y1="642.97" x2="142.85" y2="609.2" style="fill:#fff"/><line x1="70.1" y1="719.33" x2="142.85" y2="753.1" style="fill:#fff"/><line x1="215.59" y1="719.33" x2="142.85" y2="753.1" style="fill:#fff"/><line x1="70.1" y1="719.33" x2="142.85" y2="685.55" style="fill:#fff"/><line x1="215.59" y1="719.33" x2="142.85" y2="685.55" style="fill:#fff"/><line x1="70.1" y1="642.97" x2="70.1" y2="719.33" style="fill:#fff"/><line x1="142.85" y1="676.74" x2="142.85" y2="753.1" style="fill:#fff"/><line x1="215.59" y1="642.97" x2="215.59" y2="719.33" style="fill:#fff"/><polygon points="70.1 642.97 70.1 719.33 142.85 753.1 142.85 676.75 70.1 642.97" style="fill:#b38f66"/><polygon points="142.85 676.75 142.85 753.1 215.59 719.33 215.59 642.97 142.85 676.75" style="fill:#a28062"/><polyline points="215.46 642.97 247.16 628.4 173.76 595.09 142.85 609.2 111.81 595.09 38.4 628.4 70.1 642.97 33.35 661.64 106.56 696.1 142.85 676.75 179 696.1 252.21 661.64" style="fill:none"/><line x1="215.54" y1="643.01" x2="252.29" y2="661.69" style="fill:none"/><line x1="142.85" y1="609.2" x2="142.85" y2="676.74" style="fill:#f1f1f2"/><polygon points="142.85 609.2 142.85 676.75 215.46 642.97 142.85 609.2" style="fill:#967755;opacity:0.39"/><polygon points="142.78 609.24 142.78 676.79 70.17 643.01 142.78 609.24" style="fill:#967755;opacity:0.24"/><polygon points="70.17 643.01 142.78 609.24 215.46 642.97 142.78 676.79 70.17 643.01" style="fill:#dab789"/><polygon points="96.61 655.23 96.61 673.65 114.16 681.8 114.16 663.37 96.61 655.23" style="fill:#957656"/><polygon points="172.06 636.45 166.96 638.82 167 638.84 149.38 647.03 149.37 647.03 131.77 655.22 131.76 655.23 131.75 655.23 114.15 663.41 96.54 655.23 114.15 647.03 114.16 647.03 131.76 638.85 131.77 638.85 136.87 636.48 136.83 636.46 151.39 629.68 151.34 629.66 168.95 621.47 186.57 629.65 172.01 636.43 172.06 636.45" style="fill:#957656;opacity:0.8200000000000001"/><path d="M233.83,728.87c-3.4,1.54-6.76,3.07-10.1,4.56a4.37,4.37,0,0,1-1.33.32,1.47,1.47,0,0,1-1-.11c-.3-.23.2-.74.28-1.13.28-1.35.26-2.5-.45-3.22-.17-.17-.31-.27-.12-.72a3.31,3.31,0,0,0,.06-2.68c-.23-.51,0-.83.39-1.33.6-.71,1.33-1,1.94-1.74l.66-.3c0,.13.13.1.24.07,3.62-1,5.26,2.13,3.42,6.53,0,.09-.07.19-.16.47l6.23-2.81Zm-8.29-1.48c0-1-.71-1.55-1.61-1.14a3.1,3.1,0,0,0-1.68,2.59c0,1,.7,1.54,1.59,1.15A3.22,3.22,0,0,0,225.54,727.39Z" transform="translate(-57.71 -27.1)" style="fill:#ed2525"/><path d="M242.76,720.1,241,717.73l-1.76,3.39a12.87,12.87,0,0,0-.75,1.48,4.78,4.78,0,0,1-3.83,3.37c1.9-3.63,3.59-7.35,5.73-11l1.37-.63,1.14.71h0c0,.17,0,.28.17.23h0a33.17,33.17,0,0,0,2.63,3.54c.39.54.81,1,1.27,1.64l-8.67,3.92c.46-.87.87-1.64,1.26-2.42a1.12,1.12,0,0,1,.69-.54l2.37-1.1.21-.1Z" transform="translate(-57.71 -27.1)" style="fill:#0c0b0b"/><path d="M219.46,729.89c.82-.07,1.43.17,1.56,1.13a3.72,3.72,0,0,1-1.72,3.71,32.41,32.41,0,0,1-5.44,2.72c-.31.15-.31-.08-.32-.33,0-2.86,0-5.76-.09-8.68a.65.65,0,0,1,.47-.71c1.44-.65,2.89-1.33,4.34-2,.86-.38,1.57-.31,2,.41C220.89,727.25,220.66,728.34,219.46,729.89Zm-3,3.23c0,.46-.14,1,.5.67s1.16-.62,1.15-1.42-.58-.43-1.07-.26A.79.79,0,0,0,216.44,733.12Zm0-3.42c0,.13-.24.79.38.46a1.41,1.41,0,0,0,.91-1.18c0-.53-.35-.56-.81-.39S216.37,729.12,216.46,729.7Z" transform="translate(-57.71 -27.1)" style="fill:#ed2525"/><path d="M242.93,715.08c.26-.61-.32-.5-.3-.92l9.93-4.6a4,4,0,0,1,1.83-.39c.94.08,1.49.64,1.4,1.88a4.93,4.93,0,0,1-1.72,3.38c-.11.09-.21.2-.49.49l2.14,1.38c-.09.4-.41.26-.56.52l-.68.33a10.21,10.21,0,0,0-1.76.72c-.12-.07-.28-.1-.34-.22-.88-1.87-2.82-.43-4.53.32-.35.15-.36.38-.37.65s0,.81-.08,1.5c-.79-1-1.5-1.79-2.12-2.7-.27-.4.24-.53.47-.64l5.79-2.66a5.25,5.25,0,0,0,1-.59,1.5,1.5,0,0,0,.67-1.21c0-.45-.26-.56-.63-.46a6.8,6.8,0,0,0-1,.4c-2.23,1-4.46,2-6.67,3.07-.67.32-1.24.54-1.51-.13,0-.08-.16-.21-.31.08h0c.16-.34.1-.4-.17-.23Z" transform="translate(-57.71 -27.1)" style="fill:#1a1818"/><path d="M231.44,719.31l8.1-3.69a.85.85,0,0,1,0,.1,6,6,0,0,1-3.85,3.86,29.37,29.37,0,0,0-4.09,1.91,3.41,3.41,0,0,0-1.71,2.3c-.19,1.15.28,1.78,1.25,1.65a9.41,9.41,0,0,0,2.22-.87c.63-.27,1.26-.57,2-.91-.45.89-.83,1.66-1.23,2.42a1,1,0,0,1-.33.38c-1.48.67-3,1.57-4.34,1.37-.39-.06-.53-.25-.4-.82a5,5,0,0,0-.58-4.13c-.2-.28-.15-.52.12-.91A8.11,8.11,0,0,1,231.44,719.31Z" transform="translate(-57.71 -27.1)" style="fill:#0c0b0b"/><path d="M254.65,708.61l9.8-4.46,0,.11a6.7,6.7,0,0,1-4.58,4.22c-.71.21-1,.58-1,1.41-.07,1.77-.25,3.58-.38,5.36l-.51.33-.69.32a.84.84,0,0,0-.7.31c-.57.42-.52,0-.49-.42.1-1.43.17-2.84.3-4.29.15-1.71-.47-2.56-1.77-2.68,0,0,0,0,0,0S254.62,708.66,254.65,708.61Z" transform="translate(-57.71 -27.1)" style="fill:#0c0b0b"/><path d="M237.72,725l4.19-1.7-.08,1.95-4.18,1.88Z" transform="translate(-57.71 -27.1)" style="fill:#f58b1f"/><path d="M237.72,725l-.08,2.12-3.81,1.71.06-2.1Z" transform="translate(-57.71 -27.1)" style="fill:#f05f23"/><path d="M244.44,722.15a7.67,7.67,0,0,1,2.33-1.21c.6-.32,1.19-.53,1.79-.8l-.12,2.17L244.7,724c0-.37.06-.75.05-1.11S244.95,722,244.44,722.15Z" transform="translate(-57.71 -27.1)" style="fill:#ffd113"/><path d="M248.44,722.32l.12-2.17c.94-.44,1.89-.85,2.84-1.32.5-.25.63-.11.58.43-.18,1.94.13,1.43-1.49,2.19C249.8,721.76,249.12,722,248.44,722.32Z" transform="translate(-57.71 -27.1)" style="fill:#fcec0a"/><path d="M244.44,722.15c.51-.13.31.4.31.73s0,.74-.05,1.11l-2.87,1.29.08-1.95Z" transform="translate(-57.71 -27.1)" style="fill:#f9a61f"/><path d="M256.11,717.36c.36-.08.39-.45.54-.72l.21-.09c.23.29.61.26,1,.11h0l-.05.79v0l-.69.32c-.25-.07-.49-.11-.77.36l-.47.2C255.7,718,256,717.67,256.11,717.36Z" transform="translate(-57.71 -27.1)" style="fill:#353333"/><path d="M252.38,718.76c.54-.44.77.26,1.32-.21h0c-.22.79.18.69.66.46h0c-.08.29.17.56-.28.87s-.54.17-.53-.29-.35,0-.54,0l-.22.08c.08-.38.31-.88-.3-.62C252.26,719.16,252.31,718.94,252.38,718.76Z" transform="translate(-57.71 -27.1)" style="fill:#353333"/><path d="M255.81,716.87l0,.52c-.15.44-.9.3-.79,1,.08.51.53-.14.75-.06-.21.3.1.61-.36.91s-.49,0-.52-.33-.38,0-.58.08h0l0-.78h0l.59-.39C255.39,717.7,255.31,716.92,255.81,716.87Z" transform="translate(-57.71 -27.1)" style="fill:#1a1818"/><path d="M259.06,716.1a1.3,1.3,0,0,0,.15-.3c0-.31,0-.61.44-.84s.31.3.39.53c-.22.47-.53.32-.79.54Z" transform="translate(-57.71 -27.1)" style="fill:#353333"/><path d="M260.69,715.41a.93.93,0,0,1,0-.24c0-.3-.07-.62.41-.85.31-.14.38,0,.37.28,0,.49-.29.6-.59.72l-.17.08Z" transform="translate(-57.71 -27.1)" style="fill:#353333"/><path d="M256.37,718.1c.28-.46.52-.43.77-.36-.11.33.15.71-.48,1S256.46,718.31,256.37,718.1Z" transform="translate(-57.71 -27.1)" style="fill:#0c0b0b"/><path d="M260.61,716.18c.24-.09.55-.41.69-.18a.78.78,0,0,1-.07.55.57.57,0,0,1-.47.3c-.4,0-.13-.43-.12-.7Z" transform="translate(-57.71 -27.1)" style="fill:#0c0b0b"/><path d="M259.21,716.8l.77-.35c-.18.33.08.79-.55,1S259.19,717.1,259.21,716.8Z" transform="translate(-57.71 -27.1)" style="fill:#1a1818"/><path d="M258.51,717.12c-.06.35.13.76-.49,1s-.27-.33-.19-.66v0l.72-.32Z" transform="translate(-57.71 -27.1)" style="fill:#1a1818"/><path d="M252.76,719.69l.22-.08c-.14.29.17.58-.31.86-.16.09-.38.26-.44.07a.93.93,0,0,1,.06-.55C252.39,719.77,252.6,719.78,252.76,719.69Z" transform="translate(-57.71 -27.1)" style="fill:#0c0b0b"/><path d="M259.25,716l0,.78-.72.3h0l.05-.79,0,0,.5-.26Z" transform="translate(-57.71 -27.1)" style="fill:#0c0b0b"/><path d="M260.1,716.41c-.18-.26.13-.63.24-1l.36,0v0l-.07.79,0,0Z" transform="translate(-57.71 -27.1)" style="fill:#353333"/><path d="M257.86,716.28l.59-.44c0,.22.25.21.11.52l0,0-.72.32h0Z" transform="translate(-57.71 -27.1)" style="fill:#353333"/><path d="M242.76,720.1l.09.13-.21.1Z" transform="translate(-57.71 -27.1)" style="fill:#f0eeed"/><path d="M254.39,717.7v.53h0l-.71.32h0A.82.82,0,0,1,254.39,717.7Z" transform="translate(-57.71 -27.1)" style="fill:#353333"/></svg>
