<svg xmlns="http://www.w3.org/2000/svg" width="1920" height="1080"><path d="M447,1248L133,1250L788,1271Z" fill="#b58488" stroke="#b58488" stroke-width="1.51"/><path d="M971,1265L788,1271L1397,1279Z" fill="#aca9af" stroke="#aca9af" stroke-width="1.51"/><path d="M102,-209L283,-206L1404,-203Z" fill="#d4765d" stroke="#d4765d" stroke-width="1.51"/><path d="M664,-160L996,-137L1404,-203Z" fill="#dd977c" stroke="#dd977c" stroke-width="1.51"/><path d="M283,-206L664,-160L1404,-203Z" fill="#da896e" stroke="#da896e" stroke-width="1.51"/><path d="M1518,1265L1397,1279L1810,1281Z" fill="#7594a8" stroke="#7594a8" stroke-width="1.51"/><path d="M1404,-203L1684,-196L1824,-194Z" fill="#a17c73" stroke="#a17c73" stroke-width="1.51"/><path d="M1906,1274L1810,1281L2049,1279Z" fill="#4c71b2" stroke="#4c71b2" stroke-width="1.51"/><path d="M1986,79L2067,160L2069,-5Z" fill="#b46d7b" stroke="#b46d7b" stroke-width="1.51"/><path d="M1964,245L2069,389L2093,235Z" fill="#b49393" stroke="#b49393" stroke-width="1.51"/><path d="M2069,-5L2067,160L2093,235Z" fill="#b5727f" stroke="#b5727f" stroke-width="1.51"/><path d="M1824,-194L1944,-111L2094,-127Z" fill="#975d7f" stroke="#975d7f" stroke-width="1.51"/><path d="M2069,-5L2093,235L2094,-127Z" fill="#b06079" stroke="#b06079" stroke-width="1.51"/><path d="M2109,939L1973,1063L2116,1086Z" fill="#5f8dac" stroke="#5f8dac" stroke-width="1.51"/><path d="M1973,1063L2049,1279L2116,1086Z" fill="#497bb5" stroke="#497bb5" stroke-width="1.51"/><path d="M2059,535L1961,685L2125,632Z" fill="#aaaeaf" stroke="#aaaeaf" stroke-width="1.51"/><path d="M1987,822L2081,869L2125,632Z" fill="#95a3a8" stroke="#95a3a8" stroke-width="1.51"/><path d="M1961,685L1987,822L2125,632Z" fill="#a0ada8" stroke="#a0ada8" stroke-width="1.51"/><path d="M2081,869L2109,939L2125,632Z" fill="#909ca6" stroke="#909ca6" stroke-width="1.51"/><path d="M2093,235L2069,389L2125,632Z" fill="#b39fa3" stroke="#b39fa3" stroke-width="1.51"/><path d="M2069,389L2059,535L2125,632Z" fill="#b0a9b3" stroke="#b0a9b3" stroke-width="1.51"/><path d="M2109,939L2116,1086L2125,632Z" fill="#8195a7" stroke="#8195a7" stroke-width="1.51"/><path d="M2094,-127L2093,235L2125,632Z" fill="#b5848a" stroke="#b5848a" stroke-width="1.51"/><path d="M1950,568L1961,685L2059,535Z" fill="#a8b6b5" stroke="#a8b6b5" stroke-width="1.51"/><path d="M1941,922L1973,1063L2109,939Z" fill="#659cad" stroke="#659cad" stroke-width="1.51"/><path d="M1944,-111L2069,-5L2094,-127Z" fill="#a35a7e" stroke="#a35a7e" stroke-width="1.51"/><path d="M2081,869L1941,922L2109,939Z" fill="#779cab" stroke="#779cab" stroke-width="1.51"/><path d="M1973,1063L1906,1274L2049,1279Z" fill="#4778b5" stroke="#4778b5" stroke-width="1.51"/><path d="M1932,419L2059,535L2069,389Z" fill="#b0abab" stroke="#b0abab" stroke-width="1.51"/><path d="M2067,160L1964,245L2093,235Z" fill="#b58789" stroke="#b58789" stroke-width="1.51"/><path d="M664,-160L860,-135L996,-137Z" fill="#e29375" stroke="#e29375" stroke-width="1.51"/><path d="M1964,245L1932,419L2069,389Z" fill="#b0a39e" stroke="#b0a39e" stroke-width="1.51"/><path d="M1987,822L1941,922L2081,869Z" fill="#7da4ad" stroke="#7da4ad" stroke-width="1.51"/><path d="M1932,419L1950,568L2059,535Z" fill="#acb5b7" stroke="#acb5b7" stroke-width="1.51"/><path d="M1931,9L1986,79L2069,-5Z" fill="#ae6d7f" stroke="#ae6d7f" stroke-width="1.51"/><path d="M1944,-111L1931,9L2069,-5Z" fill="#a86780" stroke="#a86780" stroke-width="1.51"/><path d="M1986,79L1964,245L2067,160Z" fill="#b48185" stroke="#b48185" stroke-width="1.51"/><path d="M1404,-203L1490,-181L1684,-196Z" fill="#ae8273" stroke="#ae8273" stroke-width="1.51"/><path d="M1775,257L1807,416L1932,419Z" fill="#b2b9a0" stroke="#b2b9a0" stroke-width="1.51"/><path d="M1775,257L1932,419L1964,245Z" fill="#b1a99b" stroke="#b1a99b" stroke-width="1.51"/><path d="M1752,1071L1906,1274L1973,1063Z" fill="#3e8fba" stroke="#3e8fba" stroke-width="1.51"/><path d="M1845,137L1964,245L1986,79Z" fill="#b38988" stroke="#b38988" stroke-width="1.51"/><path d="M1961,685L1781,846L1987,822Z" fill="#8ab6b0" stroke="#8ab6b0" stroke-width="1.51"/><path d="M1781,846L1941,922L1987,822Z" fill="#79b1b1" stroke="#79b1b1" stroke-width="1.51"/><path d="M1931,9L1845,137L1986,79Z" fill="#b27c81" stroke="#b27c81" stroke-width="1.51"/><path d="M1752,1071L1810,1281L1906,1274Z" fill="#4c89b5" stroke="#4c89b5" stroke-width="1.51"/><path d="M1753,684L1781,846L1961,685Z" fill="#9ac3aa" stroke="#9ac3aa" stroke-width="1.51"/><path d="M1941,922L1800,930L1973,1063Z" fill="#5ca8b1" stroke="#5ca8b1" stroke-width="1.51"/><path d="M1800,930L1752,1071L1973,1063Z" fill="#57aaaf" stroke="#57aaaf" stroke-width="1.51"/><path d="M1807,416L1763,512L1932,419Z" fill="#b0c3ad" stroke="#b0c3ad" stroke-width="1.51"/><path d="M1932,419L1763,512L1950,568Z" fill="#abc1b7" stroke="#abc1b7" stroke-width="1.51"/><path d="M1950,568L1753,684L1961,685Z" fill="#a3c1b2" stroke="#a3c1b2" stroke-width="1.51"/><path d="M1845,137L1775,257L1964,245Z" fill="#b59e8d" stroke="#b59e8d" stroke-width="1.51"/><path d="M1801,-12L1931,9L1944,-111Z" fill="#a87383" stroke="#a87383" stroke-width="1.51"/><path d="M1781,846L1800,930L1941,922Z" fill="#74b6ae" stroke="#74b6ae" stroke-width="1.51"/><path d="M1763,512L1753,684L1950,568Z" fill="#abcbb5" stroke="#abcbb5" stroke-width="1.51"/><path d="M1824,-194L1801,-12L1944,-111Z" fill="#a16f81" stroke="#a16f81" stroke-width="1.51"/><path d="M1801,-12L1845,137L1931,9Z" fill="#b3817f" stroke="#b3817f" stroke-width="1.51"/><path d="M1689,1233L1518,1265L1810,1281Z" fill="#6492a9" stroke="#6492a9" stroke-width="1.51"/><path d="M1752,1071L1689,1233L1810,1281Z" fill="#5294b2" stroke="#5294b2" stroke-width="1.51"/><path d="M1684,-196L1801,-12L1824,-194Z" fill="#a2767a" stroke="#a2767a" stroke-width="1.51"/><path d="M1639,88L1775,257L1845,137Z" fill="#bca281" stroke="#bca281" stroke-width="1.51"/><path d="M1696,13L1639,88L1845,137Z" fill="#be9777" stroke="#be9777" stroke-width="1.51"/><path d="M1801,-12L1696,13L1845,137Z" fill="#b88b7b" stroke="#b88b7b" stroke-width="1.51"/><path d="M1698,533L1753,684L1763,512Z" fill="#b1d7b2" stroke="#b1d7b2" stroke-width="1.51"/><path d="M1684,-196L1696,13L1801,-12Z" fill="#b0857b" stroke="#b0857b" stroke-width="1.51"/><path d="M1775,257L1685,282L1807,416Z" fill="#b9bd94" stroke="#b9bd94" stroke-width="1.51"/><path d="M1639,88L1685,282L1775,257Z" fill="#bfb383" stroke="#bfb383" stroke-width="1.51"/><path d="M1753,684L1682,854L1781,846Z" fill="#93cba7" stroke="#93cba7" stroke-width="1.51"/><path d="M1641,972L1752,1071L1800,930Z" fill="#65bca8" stroke="#65bca8" stroke-width="1.51"/><path d="M1649,439L1763,512L1807,416Z" fill="#b6d0a8" stroke="#b6d0a8" stroke-width="1.51"/><path d="M1685,282L1649,439L1807,416Z" fill="#b9cb9a" stroke="#b9cb9a" stroke-width="1.51"/><path d="M1781,846L1682,854L1800,930Z" fill="#7fc3a9" stroke="#7fc3a9" stroke-width="1.51"/><path d="M1682,854L1641,972L1800,930Z" fill="#79c5a7" stroke="#79c5a7" stroke-width="1.51"/><path d="M1641,972L1648,1055L1752,1071Z" fill="#62bba8" stroke="#62bba8" stroke-width="1.51"/><path d="M1648,1055L1689,1233L1752,1071Z" fill="#56a8b0" stroke="#56a8b0" stroke-width="1.51"/><path d="M1698,533L1613,655L1753,684Z" fill="#b0dca9" stroke="#b0dca9" stroke-width="1.51"/><path d="M1649,439L1698,533L1763,512Z" fill="#b7d9ac" stroke="#b7d9ac" stroke-width="1.51"/><path d="M1134,1234L971,1265L1397,1279Z" fill="#a7a9a8" stroke="#a7a9a8" stroke-width="1.51"/><path d="M1613,655L1682,854L1753,684Z" fill="#a3d7a1" stroke="#a3d7a1" stroke-width="1.51"/><path d="M1613,655L1537,806L1682,854Z" fill="#a4d9a2" stroke="#a4d9a2" stroke-width="1.51"/><path d="M1490,-181L1501,-39L1684,-196Z" fill="#b48875" stroke="#b48875" stroke-width="1.51"/><path d="M1639,88L1470,286L1685,282Z" fill="#c8bc82" stroke="#c8bc82" stroke-width="1.51"/><path d="M1515,356L1649,439L1685,282Z" fill="#c3d195" stroke="#c3d195" stroke-width="1.51"/><path d="M1648,1055L1485,1114L1689,1233Z" fill="#62acb0" stroke="#62acb0" stroke-width="1.51"/><path d="M1485,1114L1518,1265L1689,1233Z" fill="#6ea1ae" stroke="#6ea1ae" stroke-width="1.51"/><path d="M1684,-196L1501,-39L1696,13Z" fill="#b78d78" stroke="#b78d78" stroke-width="1.51"/><path d="M1649,439L1513,506L1698,533Z" fill="#bfdfaa" stroke="#bfdfaa" stroke-width="1.51"/><path d="M1513,506L1613,655L1698,533Z" fill="#bee3af" stroke="#bee3af" stroke-width="1.51"/><path d="M1526,72L1470,286L1639,88Z" fill="#cfb27a" stroke="#cfb27a" stroke-width="1.51"/><path d="M1501,-39L1639,88L1696,13Z" fill="#c39975" stroke="#c39975" stroke-width="1.51"/><path d="M1501,-39L1526,72L1639,88Z" fill="#ca9f75" stroke="#ca9f75" stroke-width="1.51"/><path d="M1537,806L1641,972L1682,854Z" fill="#8cd0a5" stroke="#8cd0a5" stroke-width="1.51"/><path d="M1470,286L1515,356L1685,282Z" fill="#cbcc8e" stroke="#cbcc8e" stroke-width="1.51"/><path d="M587,1245L447,1248L788,1271Z" fill="#b49395" stroke="#b49395" stroke-width="1.51"/><path d="M1513,506L1511,647L1613,655Z" fill="#c3e6aa" stroke="#c3e6aa" stroke-width="1.51"/><path d="M1537,806L1560,999L1641,972Z" fill="#87cea5" stroke="#87cea5" stroke-width="1.51"/><path d="M1641,972L1560,999L1648,1055Z" fill="#6fc4a6" stroke="#6fc4a6" stroke-width="1.51"/><path d="M1560,999L1485,1114L1648,1055Z" fill="#73bdaa" stroke="#73bdaa" stroke-width="1.51"/><path d="M1515,356L1513,506L1649,439Z" fill="#c8dda0" stroke="#c8dda0" stroke-width="1.51"/><path d="M1511,647L1537,806L1613,655Z" fill="#b9e29f" stroke="#b9e29f" stroke-width="1.51"/><path d="M1400,130L1470,286L1526,72Z" fill="#d8b87b" stroke="#d8b87b" stroke-width="1.51"/><path d="M1342,997L1485,1114L1560,999Z" fill="#84c7a8" stroke="#84c7a8" stroke-width="1.51"/><path d="M1537,806L1354,860L1560,999Z" fill="#9cd7a4" stroke="#9cd7a4" stroke-width="1.51"/><path d="M1354,860L1342,997L1560,999Z" fill="#98d5a4" stroke="#98d5a4" stroke-width="1.51"/><path d="M996,-137L1071,-116L1404,-203Z" fill="#d99772" stroke="#d99772" stroke-width="1.51"/><path d="M1400,130L1378,246L1470,286Z" fill="#ddc581" stroke="#ddc581" stroke-width="1.51"/><path d="M1366,1150L1397,1279L1485,1114Z" fill="#81adb0" stroke="#81adb0" stroke-width="1.51"/><path d="M1380,584L1511,647L1513,506Z" fill="#cfebac" stroke="#cfebac" stroke-width="1.51"/><path d="M1331,438L1513,506L1515,356Z" fill="#d5e2a0" stroke="#d5e2a0" stroke-width="1.51"/><path d="M1485,1114L1397,1279L1518,1265Z" fill="#7ea4ad" stroke="#7ea4ad" stroke-width="1.51"/><path d="M1511,647L1333,695L1537,806Z" fill="#c2e69f" stroke="#c2e69f" stroke-width="1.51"/><path d="M1333,695L1354,860L1537,806Z" fill="#bbe3a1" stroke="#bbe3a1" stroke-width="1.51"/><path d="M1490,-181L1354,-50L1501,-39Z" fill="#c89477" stroke="#c89477" stroke-width="1.51"/><path d="M1501,-39L1400,130L1526,72Z" fill="#d4a473" stroke="#d4a473" stroke-width="1.51"/><path d="M1404,-203L1354,-50L1490,-181Z" fill="#c28e74" stroke="#c28e74" stroke-width="1.51"/><path d="M1354,-50L1400,130L1501,-39Z" fill="#d7a274" stroke="#d7a274" stroke-width="1.51"/><path d="M1470,286L1331,438L1515,356Z" fill="#d7db94" stroke="#d7db94" stroke-width="1.51"/><path d="M1380,584L1333,695L1511,647Z" fill="#d1eca4" stroke="#d1eca4" stroke-width="1.51"/><path d="M1331,438L1380,584L1513,506Z" fill="#d9edac" stroke="#d9edac" stroke-width="1.51"/><path d="M1071,-116L1289,-129L1404,-203Z" fill="#d29470" stroke="#d29470" stroke-width="1.51"/><path d="M1378,246L1331,438L1470,286Z" fill="#ddd78e" stroke="#ddd78e" stroke-width="1.51"/><path d="M1342,997L1366,1150L1485,1114Z" fill="#88c0ab" stroke="#88c0ab" stroke-width="1.51"/><path d="M1232,384L1331,438L1378,246Z" fill="#e6e091" stroke="#e6e091" stroke-width="1.51"/><path d="M1215,290L1232,384L1378,246Z" fill="#ebda88" stroke="#ebda88" stroke-width="1.51"/><path d="M1331,438L1254,494L1380,584Z" fill="#e4f1a9" stroke="#e4f1a9" stroke-width="1.51"/><path d="M1366,1150L1195,1200L1397,1279Z" fill="#92adab" stroke="#92adab" stroke-width="1.51"/><path d="M1195,1200L1134,1234L1397,1279Z" fill="#9faba8" stroke="#9faba8" stroke-width="1.51"/><path d="M1354,-50L1264,-47L1400,130Z" fill="#dfa672" stroke="#dfa672" stroke-width="1.51"/><path d="M1264,-47L1205,160L1400,130Z" fill="#eab16f" stroke="#eab16f" stroke-width="1.51"/><path d="M1205,160L1378,246L1400,130Z" fill="#e7c27a" stroke="#e7c27a" stroke-width="1.51"/><path d="M1289,-129L1354,-50L1404,-203Z" fill="#cc9374" stroke="#cc9374" stroke-width="1.51"/><path d="M1333,695L1225,797L1354,860Z" fill="#c9e99f" stroke="#c9e99f" stroke-width="1.51"/><path d="M1342,997L1214,1136L1366,1150Z" fill="#95c4aa" stroke="#95c4aa" stroke-width="1.51"/><path d="M1205,160L1215,290L1378,246Z" fill="#edcf7e" stroke="#edcf7e" stroke-width="1.51"/><path d="M1254,494L1259,639L1380,584Z" fill="#e4f4aa" stroke="#e4f4aa" stroke-width="1.51"/><path d="M1259,639L1333,695L1380,584Z" fill="#dcf1a3" stroke="#dcf1a3" stroke-width="1.51"/><path d="M1196,963L1342,997L1354,860Z" fill="#abdca1" stroke="#abdca1" stroke-width="1.51"/><path d="M1214,1136L1195,1200L1366,1150Z" fill="#96b9ae" stroke="#96b9ae" stroke-width="1.51"/><path d="M1225,797L1196,963L1354,860Z" fill="#bde4a0" stroke="#bde4a0" stroke-width="1.51"/><path d="M1289,-129L1264,-47L1354,-50Z" fill="#da9c75" stroke="#da9c75" stroke-width="1.51"/><path d="M1196,963L1214,1136L1342,997Z" fill="#a2d3a3" stroke="#a2d3a3" stroke-width="1.51"/><path d="M1259,639L1225,797L1333,695Z" fill="#daef9b" stroke="#daef9b" stroke-width="1.51"/><path d="M1232,384L1254,494L1331,438Z" fill="#eaec9c" stroke="#eaec9c" stroke-width="1.51"/><path d="M1096,2L1205,160L1264,-47Z" fill="#f0af6f" stroke="#f0af6f" stroke-width="1.51"/><path d="M1071,-116L1264,-47L1289,-129Z" fill="#e09d72" stroke="#e09d72" stroke-width="1.51"/><path d="M1196,963L1101,1094L1214,1136Z" fill="#a8cfa7" stroke="#a8cfa7" stroke-width="1.51"/><path d="M1232,384L1146,401L1254,494Z" fill="#f1ee99" stroke="#f1ee99" stroke-width="1.51"/><path d="M1254,494L1061,532L1259,639Z" fill="#f2faaa" stroke="#f2faaa" stroke-width="1.51"/><path d="M1061,532L1076,640L1259,639Z" fill="#f1faa9" stroke="#f1faa9" stroke-width="1.51"/><path d="M1076,640L1225,797L1259,639Z" fill="#e7f59a" stroke="#e7f59a" stroke-width="1.51"/><path d="M1071,-116L1096,2L1264,-47Z" fill="#eaa476" stroke="#eaa476" stroke-width="1.51"/><path d="M1065,847L1196,963L1225,797Z" fill="#c7e8a1" stroke="#c7e8a1" stroke-width="1.51"/><path d="M1146,401L1061,532L1254,494Z" fill="#f5f5a4" stroke="#f5f5a4" stroke-width="1.51"/><path d="M1096,2L1049,82L1205,160Z" fill="#f8b673" stroke="#f8b673" stroke-width="1.51"/><path d="M1205,160L1088,221L1215,290Z" fill="#f6d17e" stroke="#f6d17e" stroke-width="1.51"/><path d="M1076,640L1065,847L1225,797Z" fill="#def1a1" stroke="#def1a1" stroke-width="1.51"/><path d="M1215,290L1146,401L1232,384Z" fill="#f3e68d" stroke="#f3e68d" stroke-width="1.51"/><path d="M1062,992L1101,1094L1196,963Z" fill="#aedaa7" stroke="#aedaa7" stroke-width="1.51"/><path d="M1101,1094L1195,1200L1214,1136Z" fill="#a0c0af" stroke="#a0c0af" stroke-width="1.51"/><path d="M1088,221L1146,401L1215,290Z" fill="#f6df8a" stroke="#f6df8a" stroke-width="1.51"/><path d="M1101,1094L1134,1234L1195,1200Z" fill="#a2bab0" stroke="#a2bab0" stroke-width="1.51"/><path d="M1065,847L1062,992L1196,963Z" fill="#bee3a6" stroke="#bee3a6" stroke-width="1.51"/><path d="M1049,82L1088,221L1205,160Z" fill="#f9c57b" stroke="#f9c57b" stroke-width="1.51"/><path d="M1101,1094L971,1265L1134,1234Z" fill="#a7b7b4" stroke="#a7b7b4" stroke-width="1.51"/><path d="M992,390L1061,532L1146,401Z" fill="#faf3a6" stroke="#faf3a6" stroke-width="1.51"/><path d="M1088,221L1008,258L1146,401Z" fill="#fade8e" stroke="#fade8e" stroke-width="1.51"/><path d="M1008,258L992,390L1146,401Z" fill="#fbe899" stroke="#fbe899" stroke-width="1.51"/><path d="M283,-206L353,-177L664,-160Z" fill="#d66551" stroke="#d66551" stroke-width="1.51"/><path d="M992,390L950,492L1061,532Z" fill="#fdf7b0" stroke="#fdf7b0" stroke-width="1.51"/><path d="M922,810L1065,847L1076,640Z" fill="#e2f3a9" stroke="#e2f3a9" stroke-width="1.51"/><path d="M927,641L922,810L1076,640Z" fill="#f1faab" stroke="#f1faab" stroke-width="1.51"/><path d="M1049,82L946,167L1088,221Z" fill="#fdc682" stroke="#fdc682" stroke-width="1.51"/><path d="M1071,-116L949,-38L1096,2Z" fill="#f0a67d" stroke="#f0a67d" stroke-width="1.51"/><path d="M1062,992L932,1070L1101,1094Z" fill="#b0d5b1" stroke="#b0d5b1" stroke-width="1.51"/><path d="M932,1070L971,1265L1101,1094Z" fill="#a8c3bb" stroke="#a8c3bb" stroke-width="1.51"/><path d="M671,1245L587,1245L788,1271Z" fill="#b39c9c" stroke="#b39c9c" stroke-width="1.51"/><path d="M946,167L1008,258L1088,221Z" fill="#fed289" stroke="#fed289" stroke-width="1.51"/><path d="M949,-38L1049,82L1096,2Z" fill="#f6af7c" stroke="#f6af7c" stroke-width="1.51"/><path d="M933,1003L1062,992L1065,847Z" fill="#bfe4ad" stroke="#bfe4ad" stroke-width="1.51"/><path d="M996,-137L949,-38L1071,-116Z" fill="#eaa180" stroke="#eaa180" stroke-width="1.51"/><path d="M1061,532L927,641L1076,640Z" fill="#f7fcb2" stroke="#f7fcb2" stroke-width="1.51"/><path d="M933,1003L932,1070L1062,992Z" fill="#b5dcb2" stroke="#b5dcb2" stroke-width="1.51"/><path d="M922,810L933,1003L1065,847Z" fill="#cdeab0" stroke="#cdeab0" stroke-width="1.51"/><path d="M950,492L927,641L1061,532Z" fill="#fdfebc" stroke="#fdfebc" stroke-width="1.51"/><path d="M922,810L862,922L933,1003Z" fill="#cae5ac" stroke="#cae5ac" stroke-width="1.51"/><path d="M949,-38L863,118L1049,82Z" fill="#feb47f" stroke="#feb47f" stroke-width="1.51"/><path d="M863,118L946,167L1049,82Z" fill="#ffc182" stroke="#ffc182" stroke-width="1.51"/><path d="M932,1070L813,1108L971,1265Z" fill="#aac0b9" stroke="#aac0b9" stroke-width="1.51"/><path d="M866,298L992,390L1008,258Z" fill="#ffe39b" stroke="#ffe39b" stroke-width="1.51"/><path d="M946,167L866,298L1008,258Z" fill="#ffd78f" stroke="#ffd78f" stroke-width="1.51"/><path d="M860,-135L949,-38L996,-137Z" fill="#eb9f81" stroke="#eb9f81" stroke-width="1.51"/><path d="M816,444L950,492L992,390Z" fill="#fff2aa" stroke="#fff2aa" stroke-width="1.51"/><path d="M866,298L816,444L992,390Z" fill="#ffe99c" stroke="#ffe99c" stroke-width="1.51"/><path d="M800,564L927,641L950,492Z" fill="#fdfab4" stroke="#fdfab4" stroke-width="1.51"/><path d="M813,1108L788,1271L971,1265Z" fill="#aeb0b1" stroke="#aeb0b1" stroke-width="1.51"/><path d="M773,693L922,810L927,641Z" fill="#eff3a3" stroke="#eff3a3" stroke-width="1.51"/><path d="M863,118L866,298L946,167Z" fill="#ffcb84" stroke="#ffcb84" stroke-width="1.51"/><path d="M826,-69L863,118L949,-38Z" fill="#f8a979" stroke="#f8a979" stroke-width="1.51"/><path d="M860,-135L826,-69L949,-38Z" fill="#ef9e7c" stroke="#ef9e7c" stroke-width="1.51"/><path d="M816,444L800,564L950,492Z" fill="#fff4ac" stroke="#fff4ac" stroke-width="1.51"/><path d="M819,860L862,922L922,810Z" fill="#d3e7a8" stroke="#d3e7a8" stroke-width="1.51"/><path d="M813,1108L932,1070L933,1003Z" fill="#b3d1b0" stroke="#b3d1b0" stroke-width="1.51"/><path d="M862,922L813,1108L933,1003Z" fill="#b8d9a9" stroke="#b8d9a9" stroke-width="1.51"/><path d="M773,693L819,860L922,810Z" fill="#e2eba2" stroke="#e2eba2" stroke-width="1.51"/><path d="M800,564L773,693L927,641Z" fill="#f8f4a5" stroke="#f8f4a5" stroke-width="1.51"/><path d="M863,118L729,212L866,298Z" fill="#ffc97e" stroke="#ffc97e" stroke-width="1.51"/><path d="M646,-35L728,157L826,-69Z" fill="#f7a169" stroke="#f7a169" stroke-width="1.51"/><path d="M698,1099L813,1108L862,922Z" fill="#b7cea4" stroke="#b7cea4" stroke-width="1.51"/><path d="M651,921L698,1099L862,922Z" fill="#bed59a" stroke="#bed59a" stroke-width="1.51"/><path d="M826,-69L728,157L863,118Z" fill="#fdad6f" stroke="#fdad6f" stroke-width="1.51"/><path d="M728,157L729,212L863,118Z" fill="#ffbd74" stroke="#ffbd74" stroke-width="1.51"/><path d="M670,409L816,444L866,298Z" fill="#ffe392" stroke="#ffe392" stroke-width="1.51"/><path d="M729,212L670,409L866,298Z" fill="#fed583" stroke="#fed583" stroke-width="1.51"/><path d="M819,860L651,921L862,922Z" fill="#cdde9e" stroke="#cdde9e" stroke-width="1.51"/><path d="M664,-160L826,-69L860,-135Z" fill="#e69270" stroke="#e69270" stroke-width="1.51"/><path d="M698,1099L671,1245L788,1271Z" fill="#b0a8a2" stroke="#b0a8a2" stroke-width="1.51"/><path d="M698,1099L788,1271L813,1108Z" fill="#acb5ab" stroke="#acb5ab" stroke-width="1.51"/><path d="M645,513L800,564L816,444Z" fill="#ffeea3" stroke="#ffeea3" stroke-width="1.51"/><path d="M693,719L640,779L819,860Z" fill="#e2e395" stroke="#e2e395" stroke-width="1.51"/><path d="M773,693L693,719L819,860Z" fill="#e8e899" stroke="#e8e899" stroke-width="1.51"/><path d="M664,-160L646,-35L826,-69Z" fill="#eb926b" stroke="#eb926b" stroke-width="1.51"/><path d="M670,409L645,513L816,444Z" fill="#ffe695" stroke="#ffe695" stroke-width="1.51"/><path d="M640,779L651,921L819,860Z" fill="#d6dc96" stroke="#d6dc96" stroke-width="1.51"/><path d="M693,719L773,693L800,564Z" fill="#f5ee99" stroke="#f5ee99" stroke-width="1.51"/><path d="M645,513L693,719L800,564Z" fill="#fbed9c" stroke="#fbed9c" stroke-width="1.51"/><path d="M353,-177L532,-120L664,-160Z" fill="#dd7459" stroke="#dd7459" stroke-width="1.51"/><path d="M646,-35L576,27L728,157Z" fill="#f89d61" stroke="#f89d61" stroke-width="1.51"/><path d="M576,355L670,409L729,212Z" fill="#fed07d" stroke="#fed07d" stroke-width="1.51"/><path d="M645,513L583,528L693,719Z" fill="#fce697" stroke="#fce697" stroke-width="1.51"/><path d="M583,528L526,696L693,719Z" fill="#f8e08c" stroke="#f8e08c" stroke-width="1.51"/><path d="M651,921L534,1004L698,1099Z" fill="#bcc791" stroke="#bcc791" stroke-width="1.51"/><path d="M576,27L527,119L728,157Z" fill="#fca15e" stroke="#fca15e" stroke-width="1.51"/><path d="M728,157L527,119L729,212Z" fill="#fdb369" stroke="#fdb369" stroke-width="1.51"/><path d="M527,119L545,308L729,212Z" fill="#fdb769" stroke="#fdb769" stroke-width="1.51"/><path d="M545,308L576,355L729,212Z" fill="#fec674" stroke="#fec674" stroke-width="1.51"/><path d="M534,1004L559,1097L698,1099Z" fill="#b8b894" stroke="#b8b894" stroke-width="1.51"/><path d="M587,1245L671,1245L698,1099Z" fill="#b0a49d" stroke="#b0a49d" stroke-width="1.51"/><path d="M559,1097L587,1245L698,1099Z" fill="#b0aa9d" stroke="#b0aa9d" stroke-width="1.51"/><path d="M640,779L543,855L651,921Z" fill="#d8d38e" stroke="#d8d38e" stroke-width="1.51"/><path d="M526,696L640,779L693,719Z" fill="#eddd8a" stroke="#eddd8a" stroke-width="1.51"/><path d="M532,-120L646,-35L664,-160Z" fill="#e68462" stroke="#e68462" stroke-width="1.51"/><path d="M583,528L645,513L670,409Z" fill="#ffe093" stroke="#ffe093" stroke-width="1.51"/><path d="M576,355L583,528L670,409Z" fill="#ffd988" stroke="#ffd988" stroke-width="1.51"/><path d="M543,855L534,1004L651,921Z" fill="#cbc98b" stroke="#cbc98b" stroke-width="1.51"/><path d="M532,-120L576,27L646,-35Z" fill="#ef8a60" stroke="#ef8a60" stroke-width="1.51"/><path d="M526,696L543,855L640,779Z" fill="#e6d587" stroke="#e6d587" stroke-width="1.51"/><path d="M247,1213L133,1250L447,1248Z" fill="#b4717d" stroke="#b4717d" stroke-width="1.51"/><path d="M527,119L447,167L545,308Z" fill="#fdaa5f" stroke="#fdaa5f" stroke-width="1.51"/><path d="M447,167L432,217L545,308Z" fill="#fdad60" stroke="#fdad60" stroke-width="1.51"/><path d="M532,-120L404,-6L576,27Z" fill="#ef8258" stroke="#ef8258" stroke-width="1.51"/><path d="M417,537L526,696L583,528Z" fill="#fdd88c" stroke="#fdd88c" stroke-width="1.51"/><path d="M576,355L411,420L583,528Z" fill="#ffd081" stroke="#ffd081" stroke-width="1.51"/><path d="M411,420L417,537L583,528Z" fill="#ffd087" stroke="#ffd087" stroke-width="1.51"/><path d="M559,1097L447,1248L587,1245Z" fill="#b39793" stroke="#b39793" stroke-width="1.51"/><path d="M404,-6L527,119L576,27Z" fill="#f78d55" stroke="#f78d55" stroke-width="1.51"/><path d="M545,308L411,420L576,355Z" fill="#fec675" stroke="#fec675" stroke-width="1.51"/><path d="M526,696L366,858L543,855Z" fill="#e2ca80" stroke="#e2ca80" stroke-width="1.51"/><path d="M416,993L534,1004L543,855Z" fill="#c8c085" stroke="#c8c085" stroke-width="1.51"/><path d="M534,1004L393,1074L559,1097Z" fill="#baaf8a" stroke="#baaf8a" stroke-width="1.51"/><path d="M393,1074L447,1248L559,1097Z" fill="#b49c90" stroke="#b49c90" stroke-width="1.51"/><path d="M371,685L366,858L526,696Z" fill="#ecc77a" stroke="#ecc77a" stroke-width="1.51"/><path d="M417,537L371,685L526,696Z" fill="#f9ce80" stroke="#f9ce80" stroke-width="1.51"/><path d="M416,993L393,1074L534,1004Z" fill="#beb283" stroke="#beb283" stroke-width="1.51"/><path d="M366,858L416,993L543,855Z" fill="#d2bd80" stroke="#d2bd80" stroke-width="1.51"/><path d="M432,217L411,420L545,308Z" fill="#fdb96a" stroke="#fdb96a" stroke-width="1.51"/><path d="M404,-6L447,167L527,119Z" fill="#f98f52" stroke="#f98f52" stroke-width="1.51"/><path d="M353,-177L404,-6L532,-120Z" fill="#e56f54" stroke="#e56f54" stroke-width="1.51"/><path d="M353,-177L293,-28L404,-6Z" fill="#e86850" stroke="#e86850" stroke-width="1.51"/><path d="M261,232L224,396L411,420Z" fill="#fda964" stroke="#fda964" stroke-width="1.51"/><path d="M261,232L411,420L432,217Z" fill="#fca861" stroke="#fca861" stroke-width="1.51"/><path d="M393,1074L247,1213L447,1248Z" fill="#b38887" stroke="#b38887" stroke-width="1.51"/><path d="M404,-6L256,73L447,167Z" fill="#f77f4a" stroke="#f77f4a" stroke-width="1.51"/><path d="M261,232L432,217L447,167Z" fill="#fb9b58" stroke="#fb9b58" stroke-width="1.51"/><path d="M256,73L261,232L447,167Z" fill="#f98a4f" stroke="#f98a4f" stroke-width="1.51"/><path d="M411,420L284,529L417,537Z" fill="#ffc480" stroke="#ffc480" stroke-width="1.51"/><path d="M284,529L371,685L417,537Z" fill="#fdc581" stroke="#fdc581" stroke-width="1.51"/><path d="M293,-28L256,73L404,-6Z" fill="#ef6f4b" stroke="#ef6f4b" stroke-width="1.51"/><path d="M239,984L393,1074L416,993Z" fill="#c0a77c" stroke="#c0a77c" stroke-width="1.51"/><path d="M366,858L239,984L416,993Z" fill="#caad7a" stroke="#caad7a" stroke-width="1.51"/><path d="M223,720L366,858L371,685Z" fill="#ebb973" stroke="#ebb973" stroke-width="1.51"/><path d="M218,1104L247,1213L393,1074Z" fill="#b58882" stroke="#b58882" stroke-width="1.51"/><path d="M224,396L284,529L411,420Z" fill="#ffb674" stroke="#ffb674" stroke-width="1.51"/><path d="M223,720L213,824L366,858Z" fill="#e3af72" stroke="#e3af72" stroke-width="1.51"/><path d="M239,984L218,1104L393,1074Z" fill="#bd977b" stroke="#bd977b" stroke-width="1.51"/><path d="M283,-206L293,-28L353,-177Z" fill="#db584c" stroke="#db584c" stroke-width="1.51"/><path d="M213,824L239,984L366,858Z" fill="#d4aa74" stroke="#d4aa74" stroke-width="1.51"/><path d="M284,529L223,720L371,685Z" fill="#f8bb76" stroke="#f8bb76" stroke-width="1.51"/><path d="M256,73L121,168L261,232Z" fill="#f57c4b" stroke="#f57c4b" stroke-width="1.51"/><path d="M102,-209L140,-41L283,-206Z" fill="#d24549" stroke="#d24549" stroke-width="1.51"/><path d="M224,396L164,547L284,529Z" fill="#feb177" stroke="#feb177" stroke-width="1.51"/><path d="M164,547L223,720L284,529Z" fill="#fab578" stroke="#fab578" stroke-width="1.51"/><path d="M283,-206L140,-41L293,-28Z" fill="#e15449" stroke="#e15449" stroke-width="1.51"/><path d="M140,-41L256,73L293,-28Z" fill="#ec6147" stroke="#ec6147" stroke-width="1.51"/><path d="M164,547L131,700L223,720Z" fill="#f2af73" stroke="#f2af73" stroke-width="1.51"/><path d="M129,381L224,396L261,232Z" fill="#f99d61" stroke="#f99d61" stroke-width="1.51"/><path d="M213,824L70,970L239,984Z" fill="#c99e75" stroke="#c99e75" stroke-width="1.51"/><path d="M218,1104L155,1141L247,1213Z" fill="#b07c82" stroke="#b07c82" stroke-width="1.51"/><path d="M80,297L129,381L261,232Z" fill="#f5935d" stroke="#f5935d" stroke-width="1.51"/><path d="M121,168L80,297L261,232Z" fill="#f38754" stroke="#f38754" stroke-width="1.51"/><path d="M153,790L213,824L223,720Z" fill="#e3ab71" stroke="#e3ab71" stroke-width="1.51"/><path d="M140,-41L121,168L256,73Z" fill="#ee6546" stroke="#ee6546" stroke-width="1.51"/><path d="M129,381L164,547L224,396Z" fill="#f9a871" stroke="#f9a871" stroke-width="1.51"/><path d="M70,970L218,1104L239,984Z" fill="#bb9476" stroke="#bb9476" stroke-width="1.51"/><path d="M155,1141L133,1250L247,1213Z" fill="#af6f7f" stroke="#af6f7f" stroke-width="1.51"/><path d="M70,970L155,1141L218,1104Z" fill="#b4877c" stroke="#b4877c" stroke-width="1.51"/><path d="M153,790L70,970L213,824Z" fill="#d3a175" stroke="#d3a175" stroke-width="1.51"/><path d="M131,700L153,790L223,720Z" fill="#e8ab70" stroke="#e8ab70" stroke-width="1.51"/><path d="M-27,12L-31,145L121,168Z" fill="#e7604c" stroke="#e7604c" stroke-width="1.51"/><path d="M-34,588L-21,669L131,700Z" fill="#e9a377" stroke="#e9a377" stroke-width="1.51"/><path d="M-27,12L121,168L140,-41Z" fill="#e65949" stroke="#e65949" stroke-width="1.51"/><path d="M102,-209L29,-126L140,-41Z" fill="#d1404c" stroke="#d1404c" stroke-width="1.51"/><path d="M-70,866L70,970L153,790Z" fill="#ca9777" stroke="#ca9777" stroke-width="1.51"/><path d="M70,970L26,973L155,1141Z" fill="#b58b79" stroke="#b58b79" stroke-width="1.51"/><path d="M26,973L-66,1093L155,1141Z" fill="#ae7f7d" stroke="#ae7f7d" stroke-width="1.51"/><path d="M20,1231L133,1250L155,1141Z" fill="#aa687f" stroke="#aa687f" stroke-width="1.51"/><path d="M129,381L28,355L164,547Z" fill="#f5a170" stroke="#f5a170" stroke-width="1.51"/><path d="M28,355L-34,588L164,547Z" fill="#f3a47c" stroke="#f3a47c" stroke-width="1.51"/><path d="M-34,588L131,700L164,547Z" fill="#f0a97a" stroke="#f0a97a" stroke-width="1.51"/><path d="M-66,1093L20,1231L155,1141Z" fill="#a56d84" stroke="#a56d84" stroke-width="1.51"/><path d="M131,700L-21,669L153,790Z" fill="#e6a571" stroke="#e6a571" stroke-width="1.51"/><path d="M-21,669L-70,866L153,790Z" fill="#d99c75" stroke="#d99c75" stroke-width="1.51"/><path d="M-70,866L26,973L70,970Z" fill="#bd8f78" stroke="#bd8f78" stroke-width="1.51"/><path d="M29,-126L-27,12L140,-41Z" fill="#da464d" stroke="#da464d" stroke-width="1.51"/><path d="M-36,213L80,297L121,168Z" fill="#ed7d57" stroke="#ed7d57" stroke-width="1.51"/><path d="M80,297L28,355L129,381Z" fill="#f19465" stroke="#f19465" stroke-width="1.51"/><path d="M-31,145L-36,213L121,168Z" fill="#e96e53" stroke="#e96e53" stroke-width="1.51"/><path d="M-143,-119L29,-126L102,-209Z" fill="#c6314c" stroke="#c6314c" stroke-width="1.51"/><path d="M-167,498L-34,588L28,355Z" fill="#e8987a" stroke="#e8987a" stroke-width="1.51"/><path d="M-36,213L28,355L80,297Z" fill="#ec855f" stroke="#ec855f" stroke-width="1.51"/><path d="M-175,439L-167,498L28,355Z" fill="#e18f70" stroke="#e18f70" stroke-width="1.51"/><path d="M-66,1093L-114,1129L20,1231Z" fill="#9c6882" stroke="#9c6882" stroke-width="1.51"/><path d="M-157,1008L-66,1093L26,973Z" fill="#a88078" stroke="#a88078" stroke-width="1.51"/><path d="M-121,287L-175,439L28,355Z" fill="#e18867" stroke="#e18867" stroke-width="1.51"/><path d="M-36,213L-121,287L28,355Z" fill="#e57f5e" stroke="#e57f5e" stroke-width="1.51"/><path d="M-143,-119L-27,12L29,-126Z" fill="#ce394e" stroke="#ce394e" stroke-width="1.51"/><path d="M-70,866L-157,1008L26,973Z" fill="#b28876" stroke="#b28876" stroke-width="1.51"/><path d="M-114,1129L-161,1197L20,1231Z" fill="#985d7f" stroke="#985d7f" stroke-width="1.51"/><path d="M-207,696L-173,857L-70,866Z" fill="#c08b72" stroke="#c08b72" stroke-width="1.51"/><path d="M-143,-119L-205,12L-27,12Z" fill="#ca394a" stroke="#ca394a" stroke-width="1.51"/><path d="M-120,117L-31,145L-27,12Z" fill="#dd5449" stroke="#dd5449" stroke-width="1.51"/><path d="M-34,588L-207,696L-21,669Z" fill="#dd9975" stroke="#dd9975" stroke-width="1.51"/><path d="M-207,696L-70,866L-21,669Z" fill="#d09471" stroke="#d09471" stroke-width="1.51"/><path d="M-120,117L-36,213L-31,145Z" fill="#e0644f" stroke="#e0644f" stroke-width="1.51"/><path d="M-205,12L-120,117L-27,12Z" fill="#d34648" stroke="#d34648" stroke-width="1.51"/><path d="M-167,498L-207,696L-34,588Z" fill="#db967a" stroke="#db967a" stroke-width="1.51"/><path d="M-120,117L-121,287L-36,213Z" fill="#de6c54" stroke="#de6c54" stroke-width="1.51"/><path d="M-173,857L-157,1008L-70,866Z" fill="#b18574" stroke="#b18574" stroke-width="1.51"/><path d="M-157,1008L-114,1129L-66,1093Z" fill="#9d717b" stroke="#9d717b" stroke-width="1.51"/><path d="M-205,12L-121,287L-120,117Z" fill="#d5584c" stroke="#d5584c" stroke-width="1.51"/><path d="M-157,1008L-161,1197L-114,1129Z" fill="#96687d" stroke="#96687d" stroke-width="1.51"/><path d="M-205,12L-175,439L-121,287Z" fill="#d66e56" stroke="#d66e56" stroke-width="1.51"/><path d="M-173,857L-207,696L-161,1197Z" fill="#ab8173" stroke="#ab8173" stroke-width="1.51"/><path d="M-173,857L-161,1197L-157,1008Z" fill="#9d7975" stroke="#9d7975" stroke-width="1.51"/><path d="M-175,439L-207,696L-167,498Z" fill="#da937f" stroke="#da937f" stroke-width="1.51"/><path d="M-205,12L-207,696L-175,439Z" fill="#d58266" stroke="#d58266" stroke-width="1.51"/></svg>