<svg xmlns="http://www.w3.org/2000/svg" width="1920" height="1080"><path d="M-271,-230L-11,-251L541,-348Z" fill="#e1f3db" stroke="#e1f3db" stroke-width="1.51"/><path d="M461,1352L-294,1462L965,1440Z" fill="#7795a8" stroke="#7795a8" stroke-width="1.51"/><path d="M1819,1423L1458,1445L1946,1435Z" fill="#1964a1" stroke="#1964a1" stroke-width="1.51"/><path d="M1402,-234L1584,-224L2222,-310Z" fill="#96bacf" stroke="#96bacf" stroke-width="1.51"/><path d="M1041,-287L1402,-234L2222,-310Z" fill="#9cc5d4" stroke="#9cc5d4" stroke-width="1.51"/><path d="M1584,-224L1777,-220L2222,-310Z" fill="#92b3cb" stroke="#92b3cb" stroke-width="1.51"/><path d="M1777,-220L1961,-225L2222,-310Z" fill="#8facc8" stroke="#8facc8" stroke-width="1.51"/><path d="M541,-348L1041,-287L2222,-310Z" fill="#a9d7dd" stroke="#a9d7dd" stroke-width="1.51"/><path d="M2089,543L2160,609L2261,284Z" fill="#588eab" stroke="#588eab" stroke-width="1.51"/><path d="M2178,802L2207,933L2261,284Z" fill="#4183ae" stroke="#4183ae" stroke-width="1.51"/><path d="M2160,609L2178,802L2261,284Z" fill="#4d89ac" stroke="#4d89ac" stroke-width="1.51"/><path d="M2207,933L2244,1092L2261,284Z" fill="#347daf" stroke="#347daf" stroke-width="1.51"/><path d="M1991,264L2261,284L2304,173Z" fill="#7095a7" stroke="#7095a7" stroke-width="1.51"/><path d="M2003,-51L1991,264L2304,173Z" fill="#7a9db0" stroke="#7a9db0" stroke-width="1.51"/><path d="M2261,284L2244,1092L2304,173Z" fill="#5287a6" stroke="#5287a6" stroke-width="1.51"/><path d="M2244,1092L2252,1311L2304,173Z" fill="#2c74aa" stroke="#2c74aa" stroke-width="1.51"/><path d="M2278,-100L2003,-51L2304,173Z" fill="#7f9aaf" stroke="#7f9aaf" stroke-width="1.51"/><path d="M1923,55L1991,264L2003,-51Z" fill="#81a7ba" stroke="#81a7ba" stroke-width="1.51"/><path d="M1961,-225L2003,-51L2222,-310Z" fill="#8ba6c0" stroke="#8ba6c0" stroke-width="1.51"/><path d="M2244,1092L1951,1216L2252,1311Z" fill="#0f61a3" stroke="#0f61a3" stroke-width="1.51"/><path d="M1991,264L2089,543L2261,284Z" fill="#6696ab" stroke="#6696ab" stroke-width="1.51"/><path d="M2222,-310L2003,-51L2278,-100Z" fill="#869eb8" stroke="#869eb8" stroke-width="1.51"/><path d="M1951,1216L1946,1435L2252,1311Z" fill="#095ea1" stroke="#095ea1" stroke-width="1.51"/><path d="M2207,933L1969,892L2244,1092Z" fill="#2273ad" stroke="#2273ad" stroke-width="1.51"/><path d="M1969,892L1951,1216L2244,1092Z" fill="#1b71ae" stroke="#1b71ae" stroke-width="1.51"/><path d="M2160,609L1943,736L2178,802Z" fill="#3d89b7" stroke="#3d89b7" stroke-width="1.51"/><path d="M2178,802L1969,892L2207,933Z" fill="#2c7cb2" stroke="#2c7cb2" stroke-width="1.51"/><path d="M1943,736L1969,892L2178,802Z" fill="#3287bb" stroke="#3287bb" stroke-width="1.51"/><path d="M2089,543L1943,736L2160,609Z" fill="#488eb6" stroke="#488eb6" stroke-width="1.51"/><path d="M1991,264L1744,473L2089,543Z" fill="#629eb6" stroke="#629eb6" stroke-width="1.51"/><path d="M1744,473L1943,736L2089,543Z" fill="#4f99bb" stroke="#4f99bb" stroke-width="1.51"/><path d="M1744,473L1736,733L1943,736Z" fill="#4b9dc0" stroke="#4b9dc0" stroke-width="1.51"/><path d="M1754,1034L1753,1118L1951,1216Z" fill="#1f7ab6" stroke="#1f7ab6" stroke-width="1.51"/><path d="M1819,1423L1946,1435L1951,1216Z" fill="#1062a4" stroke="#1062a4" stroke-width="1.51"/><path d="M1754,1034L1951,1216L1969,892Z" fill="#207cb6" stroke="#207cb6" stroke-width="1.51"/><path d="M1923,55L1856,103L1991,264Z" fill="#7ea8b9" stroke="#7ea8b9" stroke-width="1.51"/><path d="M1856,103L1783,249L1991,264Z" fill="#79a9b8" stroke="#79a9b8" stroke-width="1.51"/><path d="M1783,249L1744,473L1991,264Z" fill="#70a7b7" stroke="#70a7b7" stroke-width="1.51"/><path d="M1961,-225L1882,-93L2003,-51Z" fill="#8aacc3" stroke="#8aacc3" stroke-width="1.51"/><path d="M1882,-93L1923,55L2003,-51Z" fill="#87abc0" stroke="#87abc0" stroke-width="1.51"/><path d="M1943,736L1736,733L1969,892Z" fill="#3791c2" stroke="#3791c2" stroke-width="1.51"/><path d="M1736,733L1754,1034L1969,892Z" fill="#308dbf" stroke="#308dbf" stroke-width="1.51"/><path d="M1777,-220L1882,-93L1961,-225Z" fill="#8eb0c8" stroke="#8eb0c8" stroke-width="1.51"/><path d="M1753,1118L1652,1209L1819,1423Z" fill="#1974b3" stroke="#1974b3" stroke-width="1.51"/><path d="M1753,1118L1819,1423L1951,1216Z" fill="#136faf" stroke="#136faf" stroke-width="1.51"/><path d="M1882,-93L1856,103L1923,55Z" fill="#86adbe" stroke="#86adbe" stroke-width="1.51"/><path d="M1556,-48L1856,103L1882,-93Z" fill="#8ab4c3" stroke="#8ab4c3" stroke-width="1.51"/><path d="M1777,-220L1556,-48L1882,-93Z" fill="#8fb8c8" stroke="#8fb8c8" stroke-width="1.51"/><path d="M1572,1349L1458,1445L1819,1423Z" fill="#206da7" stroke="#206da7" stroke-width="1.51"/><path d="M1510,143L1783,249L1856,103Z" fill="#80b3bd" stroke="#80b3bd" stroke-width="1.51"/><path d="M1556,-48L1510,143L1856,103Z" fill="#8abac3" stroke="#8abac3" stroke-width="1.51"/><path d="M1662,476L1736,733L1744,473Z" fill="#57a6c0" stroke="#57a6c0" stroke-width="1.51"/><path d="M1736,733L1578,765L1754,1034Z" fill="#3897c5" stroke="#3897c5" stroke-width="1.51"/><path d="M1584,-224L1556,-48L1777,-220Z" fill="#93becd" stroke="#93becd" stroke-width="1.51"/><path d="M1588,398L1744,473L1783,249Z" fill="#6eadbb" stroke="#6eadbb" stroke-width="1.51"/><path d="M1652,1209L1572,1349L1819,1423Z" fill="#1c71ad" stroke="#1c71ad" stroke-width="1.51"/><path d="M1588,398L1662,476L1744,473Z" fill="#66adbe" stroke="#66adbe" stroke-width="1.51"/><path d="M1578,765L1535,1013L1754,1034Z" fill="#3393c2" stroke="#3393c2" stroke-width="1.51"/><path d="M1510,143L1588,398L1783,249Z" fill="#7ab5bc" stroke="#7ab5bc" stroke-width="1.51"/><path d="M1662,476L1578,765L1736,733Z" fill="#4da4c5" stroke="#4da4c5" stroke-width="1.51"/><path d="M1535,1013L1652,1209L1753,1118Z" fill="#2684ba" stroke="#2684ba" stroke-width="1.51"/><path d="M1535,1013L1753,1118L1754,1034Z" fill="#2886bc" stroke="#2886bc" stroke-width="1.51"/><path d="M136,1347L-294,1462L461,1352Z" fill="#829bb2" stroke="#829bb2" stroke-width="1.51"/><path d="M1448,793L1535,1013L1578,765Z" fill="#3e9fc9" stroke="#3e9fc9" stroke-width="1.51"/><path d="M1510,143L1411,328L1588,398Z" fill="#7dbcbf" stroke="#7dbcbf" stroke-width="1.51"/><path d="M1535,1013L1453,1166L1652,1209Z" fill="#2b88bd" stroke="#2b88bd" stroke-width="1.51"/><path d="M1588,398L1364,550L1662,476Z" fill="#67b4c2" stroke="#67b4c2" stroke-width="1.51"/><path d="M1364,550L1578,765L1662,476Z" fill="#59afc7" stroke="#59afc7" stroke-width="1.51"/><path d="M1453,1166L1572,1349L1652,1209Z" fill="#257fb8" stroke="#257fb8" stroke-width="1.51"/><path d="M1041,-287L1160,-225L1402,-234Z" fill="#a9d8d9" stroke="#a9d8d9" stroke-width="1.51"/><path d="M1448,793L1391,876L1535,1013Z" fill="#3fa0c9" stroke="#3fa0c9" stroke-width="1.51"/><path d="M1364,550L1448,793L1578,765Z" fill="#50adcc" stroke="#50adcc" stroke-width="1.51"/><path d="M1402,-234L1556,-48L1584,-224Z" fill="#98c5d1" stroke="#98c5d1" stroke-width="1.51"/><path d="M1411,328L1364,550L1588,398Z" fill="#70bac4" stroke="#70bac4" stroke-width="1.51"/><path d="M541,-348L757,-276L1041,-287Z" fill="#c1e7d1" stroke="#c1e7d1" stroke-width="1.51"/><path d="M1330,54L1510,143L1556,-48Z" fill="#91c5c9" stroke="#91c5c9" stroke-width="1.51"/><path d="M1453,1166L1458,1445L1572,1349Z" fill="#297cb3" stroke="#297cb3" stroke-width="1.51"/><path d="M1402,-234L1312,-160L1556,-48Z" fill="#9bcbd3" stroke="#9bcbd3" stroke-width="1.51"/><path d="M1312,-160L1330,54L1556,-48Z" fill="#98cbcf" stroke="#98cbcf" stroke-width="1.51"/><path d="M1391,876L1453,1166L1535,1013Z" fill="#3596c4" stroke="#3596c4" stroke-width="1.51"/><path d="M1110,1335L965,1440L1458,1445Z" fill="#3f82ae" stroke="#3f82ae" stroke-width="1.51"/><path d="M1453,1166L1153,1186L1458,1445Z" fill="#3188bc" stroke="#3188bc" stroke-width="1.51"/><path d="M1251,128L1411,328L1510,143Z" fill="#88c5c5" stroke="#88c5c5" stroke-width="1.51"/><path d="M1330,54L1251,128L1510,143Z" fill="#91cac9" stroke="#91cac9" stroke-width="1.51"/><path d="M1364,550L1252,813L1448,793Z" fill="#52b3d0" stroke="#52b3d0" stroke-width="1.51"/><path d="M1391,876L1255,879L1453,1166Z" fill="#3e9ec8" stroke="#3e9ec8" stroke-width="1.51"/><path d="M1255,879L1153,1186L1453,1166Z" fill="#3d9bc6" stroke="#3d9bc6" stroke-width="1.51"/><path d="M1153,1186L1110,1335L1458,1445Z" fill="#3a88b7" stroke="#3a88b7" stroke-width="1.51"/><path d="M1252,813L1391,876L1448,793Z" fill="#48abcf" stroke="#48abcf" stroke-width="1.51"/><path d="M1312,-160L1202,-95L1330,54Z" fill="#9dd2d2" stroke="#9dd2d2" stroke-width="1.51"/><path d="M1160,-225L1312,-160L1402,-234Z" fill="#a3d4d9" stroke="#a3d4d9" stroke-width="1.51"/><path d="M1144,331L1364,550L1411,328Z" fill="#78c4c7" stroke="#78c4c7" stroke-width="1.51"/><path d="M1251,128L1144,331L1411,328Z" fill="#87cac6" stroke="#87cac6" stroke-width="1.51"/><path d="M1144,331L1112,514L1364,550Z" fill="#76c5c7" stroke="#76c5c7" stroke-width="1.51"/><path d="M1112,514L1252,813L1364,550Z" fill="#63bdce" stroke="#63bdce" stroke-width="1.51"/><path d="M1252,813L1255,879L1391,876Z" fill="#49accf" stroke="#49accf" stroke-width="1.51"/><path d="M1112,514L1021,673L1252,813Z" fill="#67bfcc" stroke="#67bfcc" stroke-width="1.51"/><path d="M1034,940L1153,1186L1255,879Z" fill="#4da6c6" stroke="#4da6c6" stroke-width="1.51"/><path d="M1202,-95L1251,128L1330,54Z" fill="#9ad1ce" stroke="#9ad1ce" stroke-width="1.51"/><path d="M1160,-225L1202,-95L1312,-160Z" fill="#a3d6d5" stroke="#a3d6d5" stroke-width="1.51"/><path d="M1202,-95L946,-22L1251,128Z" fill="#a1d6cc" stroke="#a1d6cc" stroke-width="1.51"/><path d="M946,-22L1022,201L1251,128Z" fill="#9ed6c6" stroke="#9ed6c6" stroke-width="1.51"/><path d="M1022,201L1144,331L1251,128Z" fill="#92d0c4" stroke="#92d0c4" stroke-width="1.51"/><path d="M1252,813L1034,940L1255,879Z" fill="#52afcc" stroke="#52afcc" stroke-width="1.51"/><path d="M1021,673L1034,940L1252,813Z" fill="#5cb7cd" stroke="#5cb7cd" stroke-width="1.51"/><path d="M1160,-225L946,-22L1202,-95Z" fill="#a7d9d0" stroke="#a7d9d0" stroke-width="1.51"/><path d="M738,1336L461,1352L965,1440Z" fill="#6492a9" stroke="#6492a9" stroke-width="1.51"/><path d="M938,329L1112,514L1144,331Z" fill="#86cdc2" stroke="#86cdc2" stroke-width="1.51"/><path d="M937,1198L1110,1335L1153,1186Z" fill="#4b95bb" stroke="#4b95bb" stroke-width="1.51"/><path d="M1034,940L937,1198L1153,1186Z" fill="#51a1c0" stroke="#51a1c0" stroke-width="1.51"/><path d="M1041,-287L946,-22L1160,-225Z" fill="#acdcd2" stroke="#acdcd2" stroke-width="1.51"/><path d="M969,622L1021,673L1112,514Z" fill="#72c5c8" stroke="#72c5c8" stroke-width="1.51"/><path d="M1022,201L938,329L1144,331Z" fill="#91d2bf" stroke="#91d2bf" stroke-width="1.51"/><path d="M938,329L969,622L1112,514Z" fill="#7eccc4" stroke="#7eccc4" stroke-width="1.51"/><path d="M937,1198L965,1440L1110,1335Z" fill="#4e90b2" stroke="#4e90b2" stroke-width="1.51"/><path d="M938,329L780,536L969,622Z" fill="#84cfc1" stroke="#84cfc1" stroke-width="1.51"/><path d="M969,622L702,759L1021,673Z" fill="#74c6c7" stroke="#74c6c7" stroke-width="1.51"/><path d="M946,-22L805,47L1022,201Z" fill="#a7dcc3" stroke="#a7dcc3" stroke-width="1.51"/><path d="M693,1025L937,1198L1034,940Z" fill="#60aabf" stroke="#60aabf" stroke-width="1.51"/><path d="M1021,673L702,759L1034,940Z" fill="#6abfca" stroke="#6abfca" stroke-width="1.51"/><path d="M757,-276L946,-22L1041,-287Z" fill="#b4e1cf" stroke="#b4e1cf" stroke-width="1.51"/><path d="M702,759L693,1025L1034,940Z" fill="#6db7c3" stroke="#6db7c3" stroke-width="1.51"/><path d="M757,-276L830,-10L946,-22Z" fill="#b4e2ca" stroke="#b4e2ca" stroke-width="1.51"/><path d="M805,47L938,329L1022,201Z" fill="#9ed9c0" stroke="#9ed9c0" stroke-width="1.51"/><path d="M-11,-251L405,-287L541,-348Z" fill="#daf1d4" stroke="#daf1d4" stroke-width="1.51"/><path d="M693,1025L779,1226L937,1198Z" fill="#64a4b9" stroke="#64a4b9" stroke-width="1.51"/><path d="M779,1226L738,1336L937,1198Z" fill="#5f9bb5" stroke="#5f9bb5" stroke-width="1.51"/><path d="M805,47L769,364L938,329Z" fill="#a0d9bc" stroke="#a0d9bc" stroke-width="1.51"/><path d="M769,364L780,536L938,329Z" fill="#92d3bd" stroke="#92d3bd" stroke-width="1.51"/><path d="M830,-10L805,47L946,-22Z" fill="#aedfc6" stroke="#aedfc6" stroke-width="1.51"/><path d="M937,1198L738,1336L965,1440Z" fill="#5893b0" stroke="#5893b0" stroke-width="1.51"/><path d="M780,536L702,759L969,622Z" fill="#7ecac4" stroke="#7ecac4" stroke-width="1.51"/><path d="M582,102L769,364L805,47Z" fill="#acdebc" stroke="#acdebc" stroke-width="1.51"/><path d="M757,-276L478,-97L830,-10Z" fill="#bfe6c7" stroke="#bfe6c7" stroke-width="1.51"/><path d="M582,102L805,47L830,-10Z" fill="#b4e2c0" stroke="#b4e2c0" stroke-width="1.51"/><path d="M478,-97L582,102L830,-10Z" fill="#bde5c0" stroke="#bde5c0" stroke-width="1.51"/><path d="M582,102L477,399L769,364Z" fill="#a9ddb5" stroke="#a9ddb5" stroke-width="1.51"/><path d="M693,1025L518,1124L779,1226Z" fill="#70a9b7" stroke="#70a9b7" stroke-width="1.51"/><path d="M461,546L702,759L780,536Z" fill="#8cd0c0" stroke="#8cd0c0" stroke-width="1.51"/><path d="M769,364L477,399L780,536Z" fill="#99d7bb" stroke="#99d7bb" stroke-width="1.51"/><path d="M477,399L461,546L780,536Z" fill="#9ad7bc" stroke="#9ad7bc" stroke-width="1.51"/><path d="M518,1124L738,1336L779,1226Z" fill="#6ba0b4" stroke="#6ba0b4" stroke-width="1.51"/><path d="M505,791L693,1025L702,759Z" fill="#7dc0c2" stroke="#7dc0c2" stroke-width="1.51"/><path d="M541,-348L478,-97L757,-276Z" fill="#c9eacb" stroke="#c9eacb" stroke-width="1.51"/><path d="M505,791L469,967L693,1025Z" fill="#7fbcc0" stroke="#7fbcc0" stroke-width="1.51"/><path d="M461,546L505,791L702,759Z" fill="#8ccdc3" stroke="#8ccdc3" stroke-width="1.51"/><path d="M518,1124L461,1352L738,1336Z" fill="#719fb1" stroke="#719fb1" stroke-width="1.51"/><path d="M469,967L518,1124L693,1025Z" fill="#79b2bb" stroke="#79b2bb" stroke-width="1.51"/><path d="M-91,1362L-294,1462L136,1347Z" fill="#869db8" stroke="#869db8" stroke-width="1.51"/><path d="M461,546L391,610L505,791Z" fill="#95d2c4" stroke="#95d2c4" stroke-width="1.51"/><path d="M388,1157L461,1352L518,1124Z" fill="#79a7b7" stroke="#79a7b7" stroke-width="1.51"/><path d="M405,-287L478,-97L541,-348Z" fill="#cfedcf" stroke="#cfedcf" stroke-width="1.51"/><path d="M478,-97L387,70L582,102Z" fill="#c4e8c2" stroke="#c4e8c2" stroke-width="1.51"/><path d="M387,70L477,399L582,102Z" fill="#b8e4bc" stroke="#b8e4bc" stroke-width="1.51"/><path d="M324,1300L136,1347L461,1352Z" fill="#7d9eb1" stroke="#7d9eb1" stroke-width="1.51"/><path d="M387,70L244,348L477,399Z" fill="#b8e3bc" stroke="#b8e3bc" stroke-width="1.51"/><path d="M391,610L353,767L505,791Z" fill="#92cfc7" stroke="#92cfc7" stroke-width="1.51"/><path d="M370,882L469,967L505,791Z" fill="#87c2c4" stroke="#87c2c4" stroke-width="1.51"/><path d="M388,1157L324,1300L461,1352Z" fill="#7ba2b5" stroke="#7ba2b5" stroke-width="1.51"/><path d="M349,-55L387,70L478,-97Z" fill="#caeac6" stroke="#caeac6" stroke-width="1.51"/><path d="M469,967L388,1157L518,1124Z" fill="#7eb1bc" stroke="#7eb1bc" stroke-width="1.51"/><path d="M353,767L370,882L505,791Z" fill="#8dc9c8" stroke="#8dc9c8" stroke-width="1.51"/><path d="M-11,-251L35,-222L405,-287Z" fill="#def2d8" stroke="#def2d8" stroke-width="1.51"/><path d="M244,348L391,610L461,546Z" fill="#a5dbc2" stroke="#a5dbc2" stroke-width="1.51"/><path d="M370,882L388,1157L469,967Z" fill="#83b9c0" stroke="#83b9c0" stroke-width="1.51"/><path d="M244,348L461,546L477,399Z" fill="#a9ddbf" stroke="#a9ddbf" stroke-width="1.51"/><path d="M405,-287L349,-55L478,-97Z" fill="#ceeccc" stroke="#ceeccc" stroke-width="1.51"/><path d="M188,316L244,348L387,70Z" fill="#bfe6bf" stroke="#bfe6bf" stroke-width="1.51"/><path d="M370,882L122,1042L388,1157Z" fill="#88b8c2" stroke="#88b8c2" stroke-width="1.51"/><path d="M244,348L89,457L391,610Z" fill="#addec4" stroke="#addec4" stroke-width="1.51"/><path d="M199,-68L349,-55L405,-287Z" fill="#d3eecd" stroke="#d3eecd" stroke-width="1.51"/><path d="M35,-222L199,-68L405,-287Z" fill="#d9f1d3" stroke="#d9f1d3" stroke-width="1.51"/><path d="M43,108L188,316L387,70Z" fill="#c7e9c4" stroke="#c7e9c4" stroke-width="1.51"/><path d="M89,457L155,714L391,610Z" fill="#a5d9c9" stroke="#a5d9c9" stroke-width="1.51"/><path d="M155,714L353,767L391,610Z" fill="#9bd2c9" stroke="#9bd2c9" stroke-width="1.51"/><path d="M199,-68L43,108L387,70Z" fill="#cfecc8" stroke="#cfecc8" stroke-width="1.51"/><path d="M349,-55L199,-68L387,70Z" fill="#ceecc8" stroke="#ceecc8" stroke-width="1.51"/><path d="M122,1042L324,1300L388,1157Z" fill="#85adbd" stroke="#85adbd" stroke-width="1.51"/><path d="M122,1042L52,1234L324,1300Z" fill="#87acbf" stroke="#87acbf" stroke-width="1.51"/><path d="M353,767L155,714L370,882Z" fill="#95cdcc" stroke="#95cdcc" stroke-width="1.51"/><path d="M155,714L122,1042L370,882Z" fill="#93c6ca" stroke="#93c6ca" stroke-width="1.51"/><path d="M52,1234L136,1347L324,1300Z" fill="#83a4b9" stroke="#83a4b9" stroke-width="1.51"/><path d="M-8,884L122,1042L155,714Z" fill="#96c8ce" stroke="#96c8ce" stroke-width="1.51"/><path d="M43,108L-5,178L188,316Z" fill="#c8eac7" stroke="#c8eac7" stroke-width="1.51"/><path d="M188,316L89,457L244,348Z" fill="#b7e3c3" stroke="#b7e3c3" stroke-width="1.51"/><path d="M89,457L-109,583L155,714Z" fill="#aadbce" stroke="#aadbce" stroke-width="1.51"/><path d="M-91,-163L43,108L199,-68Z" fill="#d7f0d1" stroke="#d7f0d1" stroke-width="1.51"/><path d="M35,-222L-91,-163L199,-68Z" fill="#dcf1d6" stroke="#dcf1d6" stroke-width="1.51"/><path d="M-5,178L89,457L188,316Z" fill="#bfe6c3" stroke="#bfe6c3" stroke-width="1.51"/><path d="M-5,178L-102,386L89,457Z" fill="#c0e6c7" stroke="#c0e6c7" stroke-width="1.51"/><path d="M-118,669L-8,884L155,714Z" fill="#a0d3d4" stroke="#a0d3d4" stroke-width="1.51"/><path d="M-109,583L-118,669L155,714Z" fill="#a8d9d2" stroke="#a8d9d2" stroke-width="1.51"/><path d="M52,1234L-91,1362L136,1347Z" fill="#86a3bb" stroke="#86a3bb" stroke-width="1.51"/><path d="M-114,1253L52,1234L122,1042Z" fill="#8bafc5" stroke="#8bafc5" stroke-width="1.51"/><path d="M-8,884L-114,1253L122,1042Z" fill="#90bac9" stroke="#90bac9" stroke-width="1.51"/><path d="M-102,386L-109,583L89,457Z" fill="#b5e2cd" stroke="#b5e2cd" stroke-width="1.51"/><path d="M-379,987L-114,1253L-8,884Z" fill="#96bdcf" stroke="#96bdcf" stroke-width="1.51"/><path d="M-91,-163L-231,115L43,108Z" fill="#d9f1d3" stroke="#d9f1d3" stroke-width="1.51"/><path d="M-114,1253L-91,1362L52,1234Z" fill="#89a7c1" stroke="#89a7c1" stroke-width="1.51"/><path d="M-11,-251L-91,-163L35,-222Z" fill="#e1f4db" stroke="#e1f4db" stroke-width="1.51"/><path d="M-231,115L-5,178L43,108Z" fill="#d1edcd" stroke="#d1edcd" stroke-width="1.51"/><path d="M-271,-230L-91,-163L-11,-251Z" fill="#e4f5df" stroke="#e4f5df" stroke-width="1.51"/><path d="M-231,115L-102,386L-5,178Z" fill="#ccebcc" stroke="#ccebcc" stroke-width="1.51"/><path d="M-379,987L-322,1234L-114,1253Z" fill="#95b4ce" stroke="#95b4ce" stroke-width="1.51"/><path d="M-231,115L-233,376L-102,386Z" fill="#c9eacc" stroke="#c9eacc" stroke-width="1.51"/><path d="M-118,669L-311,678L-8,884Z" fill="#a6d5d9" stroke="#a6d5d9" stroke-width="1.51"/><path d="M-311,678L-379,987L-8,884Z" fill="#a2ced9" stroke="#a2ced9" stroke-width="1.51"/><path d="M-233,376L-326,607L-109,583Z" fill="#b7e2d4" stroke="#b7e2d4" stroke-width="1.51"/><path d="M-233,376L-109,583L-102,386Z" fill="#bbe4cf" stroke="#bbe4cf" stroke-width="1.51"/><path d="M-376,-36L-231,115L-91,-163Z" fill="#e0f3d9" stroke="#e0f3d9" stroke-width="1.51"/><path d="M-271,-230L-376,-36L-91,-163Z" fill="#e5f5df" stroke="#e5f5df" stroke-width="1.51"/><path d="M-114,1253L-322,1234L-91,1362Z" fill="#8ea8c5" stroke="#8ea8c5" stroke-width="1.51"/><path d="M-322,1234L-294,1462L-91,1362Z" fill="#8da3c0" stroke="#8da3c0" stroke-width="1.51"/><path d="M-326,607L-311,678L-118,669Z" fill="#afdcd9" stroke="#afdcd9" stroke-width="1.51"/><path d="M-326,607L-118,669L-109,583Z" fill="#afdcd6" stroke="#afdcd6" stroke-width="1.51"/><path d="M-376,-36L-326,607L-233,376Z" fill="#ccebd0" stroke="#ccebd0" stroke-width="1.51"/><path d="M-376,-36L-233,376L-231,115Z" fill="#d7f0d3" stroke="#d7f0d3" stroke-width="1.51"/><path d="M-322,1234L-379,987L-294,1462Z" fill="#95afcd" stroke="#95afcd" stroke-width="1.51"/><path d="M-326,607L-379,987L-311,678Z" fill="#abd7df" stroke="#abd7df" stroke-width="1.51"/><path d="M-376,-36L-379,987L-326,607Z" fill="#bce4d8" stroke="#bce4d8" stroke-width="1.51"/></svg>