<svg xmlns="http://www.w3.org/2000/svg" width="800" height="250"><path d="M1000,-175L850,-175L1000,-25Z" fill="#7fa96f" stroke="#7fa96f" stroke-width="1.51"/><path d="M850,-175L850,-25L1000,-25Z" fill="#7aac6c" stroke="#7aac6c" stroke-width="1.51"/><path d="M850,275L1000,275L1000,125Z" fill="#238347" stroke="#238347" stroke-width="1.51"/><path d="M850,125L850,275L1000,125Z" fill="#359050" stroke="#359050" stroke-width="1.51"/><path d="M1000,-25L850,-25L1000,125Z" fill="#619d5f" stroke="#619d5f" stroke-width="1.51"/><path d="M850,-25L850,125L1000,125Z" fill="#559c5c" stroke="#559c5c" stroke-width="1.51"/><path d="M1000,275L850,275L1000,425Z" fill="#116f3a" stroke="#116f3a" stroke-width="1.51"/><path d="M850,275L850,425L1000,425Z" fill="#076d39" stroke="#076d39" stroke-width="1.51"/><path d="M850,-175L700,-175L850,-25Z" fill="#89b776" stroke="#89b776" stroke-width="1.51"/><path d="M700,-175L700,-25L850,-25Z" fill="#84b972" stroke="#84b972" stroke-width="1.51"/><path d="M850,-25L700,-25L850,125Z" fill="#6aab66" stroke="#6aab66" stroke-width="1.51"/><path d="M700,-25L700,125L850,125Z" fill="#5fa962" stroke="#5fa962" stroke-width="1.51"/><path d="M850,125L700,125L850,275Z" fill="#3c9854" stroke="#3c9854" stroke-width="1.51"/><path d="M700,125L700,275L850,275Z" fill="#30954e" stroke="#30954e" stroke-width="1.51"/><path d="M850,275L700,275L850,425Z" fill="#1c7c40" stroke="#1c7c40" stroke-width="1.51"/><path d="M700,275L700,425L850,425Z" fill="#18793e" stroke="#18793e" stroke-width="1.51"/><path d="M700,-175L550,-175L700,-25Z" fill="#95c880" stroke="#95c880" stroke-width="1.51"/><path d="M550,-175L550,-25L700,-25Z" fill="#91cb7e" stroke="#91cb7e" stroke-width="1.51"/><path d="M700,-25L550,-25L700,125Z" fill="#75bb6f" stroke="#75bb6f" stroke-width="1.51"/><path d="M550,-25L550,125L700,125Z" fill="#6bbb6e" stroke="#6bbb6e" stroke-width="1.51"/><path d="M700,125L550,125L700,275Z" fill="#48a85d" stroke="#48a85d" stroke-width="1.51"/><path d="M550,125L550,275L700,275Z" fill="#3ea659" stroke="#3ea659" stroke-width="1.51"/><path d="M700,275L550,275L700,425Z" fill="#298c48" stroke="#298c48" stroke-width="1.51"/><path d="M550,275L550,425L700,425Z" fill="#278a49" stroke="#278a49" stroke-width="1.51"/><path d="M550,-175L400,-175L550,-25Z" fill="#a6d78c" stroke="#a6d78c" stroke-width="1.51"/><path d="M400,-175L400,-25L550,-25Z" fill="#a5d88b" stroke="#a5d88b" stroke-width="1.51"/><path d="M550,-25L400,-25L550,125Z" fill="#86ca7b" stroke="#86ca7b" stroke-width="1.51"/><path d="M400,-25L400,125L550,125Z" fill="#80c87a" stroke="#80c87a" stroke-width="1.51"/><path d="M550,125L400,125L550,275Z" fill="#5bb769" stroke="#5bb769" stroke-width="1.51"/><path d="M400,125L400,275L550,275Z" fill="#55b366" stroke="#55b366" stroke-width="1.51"/><path d="M550,275L400,275L550,425Z" fill="#3e9b54" stroke="#3e9b54" stroke-width="1.51"/><path d="M400,275L400,425L550,425Z" fill="#409755" stroke="#409755" stroke-width="1.51"/><path d="M250,425L400,425L400,275Z" fill="#519e5c" stroke="#519e5c" stroke-width="1.51"/><path d="M250,275L250,425L400,275Z" fill="#60a962" stroke="#60a962" stroke-width="1.51"/><path d="M250,275L400,275L400,125Z" fill="#66ba6d" stroke="#66ba6d" stroke-width="1.51"/><path d="M250,125L250,275L400,125Z" fill="#7bc677" stroke="#7bc677" stroke-width="1.51"/><path d="M250,125L400,125L400,-25Z" fill="#8fd081" stroke="#8fd081" stroke-width="1.51"/><path d="M250,-25L250,125L400,-25Z" fill="#a4d98a" stroke="#a4d98a" stroke-width="1.51"/><path d="M250,-25L400,-25L400,-175Z" fill="#b3e092" stroke="#b3e092" stroke-width="1.51"/><path d="M250,-175L250,-25L400,-175Z" fill="#c3e69b" stroke="#c3e69b" stroke-width="1.51"/><path d="M100,425L250,425L250,275Z" fill="#69a865" stroke="#69a865" stroke-width="1.51"/><path d="M100,275L100,425L250,275Z" fill="#76b26b" stroke="#76b26b" stroke-width="1.51"/><path d="M250,-175L100,-175L250,-25Z" fill="#d1eda2" stroke="#d1eda2" stroke-width="1.51"/><path d="M100,-175L100,-25L250,-25Z" fill="#d0ec9f" stroke="#d0ec9f" stroke-width="1.51"/><path d="M100,275L250,275L250,125Z" fill="#7ec576" stroke="#7ec576" stroke-width="1.51"/><path d="M100,125L100,275L250,125Z" fill="#91cf81" stroke="#91cf81" stroke-width="1.51"/><path d="M250,-25L100,-25L250,125Z" fill="#b3df90" stroke="#b3df90" stroke-width="1.51"/><path d="M100,-25L100,125L250,125Z" fill="#acdc8e" stroke="#acdc8e" stroke-width="1.51"/><path d="M-50,-25L100,-25L100,-175Z" fill="#dcf2a5" stroke="#dcf2a5" stroke-width="1.51"/><path d="M-50,-175L-50,-25L100,-175Z" fill="#e9f6ae" stroke="#e9f6ae" stroke-width="1.51"/><path d="M-50,425L100,425L100,275Z" fill="#7cb06e" stroke="#7cb06e" stroke-width="1.51"/><path d="M-50,275L-50,425L100,275Z" fill="#87b974" stroke="#87b974" stroke-width="1.51"/><path d="M100,-25L-50,-25L100,125Z" fill="#c6e89a" stroke="#c6e89a" stroke-width="1.51"/><path d="M-50,-25L-50,125L100,125Z" fill="#bde397" stroke="#bde397" stroke-width="1.51"/><path d="M-50,275L100,275L100,125Z" fill="#92cd7f" stroke="#92cd7f" stroke-width="1.51"/><path d="M-50,125L-50,275L100,125Z" fill="#a3d68a" stroke="#a3d68a" stroke-width="1.51"/><path d="M-50,-175L-200,-175L-50,-25Z" fill="#f1fab5" stroke="#f1fab5" stroke-width="1.51"/><path d="M-200,-175L-200,-25L-50,-25Z" fill="#ebf8b5" stroke="#ebf8b5" stroke-width="1.51"/><path d="M-50,-25L-200,-25L-50,125Z" fill="#d3eda3" stroke="#d3eda3" stroke-width="1.51"/><path d="M-200,-25L-200,125L-50,125Z" fill="#c7e8a4" stroke="#c7e8a4" stroke-width="1.51"/><path d="M-50,125L-200,125L-50,275Z" fill="#acda90" stroke="#acda90" stroke-width="1.51"/><path d="M-200,125L-200,275L-50,275Z" fill="#a1d38e" stroke="#a1d38e" stroke-width="1.51"/><path d="M-50,275L-200,275L-50,425Z" fill="#90bd7a" stroke="#90bd7a" stroke-width="1.51"/><path d="M-200,275L-200,425L-50,425Z" fill="#8bb67c" stroke="#8bb67c" stroke-width="1.51"/></svg>