<?xml version="1.0" encoding="utf-8"?>
<!-- Generator: Adobe Illustrator 26.4.1, SVG Export Plug-In . SVG Version: 6.00 Build 0)  -->
<svg version="1.1" xmlns="http://www.w3.org/2000/svg" xmlns:xlink="http://www.w3.org/1999/xlink" x="0px" y="0px"
	 viewBox="0 0 1000 500" style="enable-background:new 0 0 1000 500;" xml:space="preserve">
<style type="text/css">
	.st0{fill:#000066;}
	.st1{fill:#FFFFFF;}
	.st2{fill:#CC0000;}
	.st3{display:none;}
	.st4{display:inline;fill:#C8102E;}
	.st5{display:inline;fill:#FFFFFF;}
</style>
<g id="svg1" xmlns:cc="http://creativecommons.org/ns#" xmlns:inkscape="http://www.inkscape.org/namespaces/inkscape" xmlns:rdf="http://www.w3.org/1999/02/22-rdf-syntax-ns#" xmlns:dc="http://purl.org/dc/elements/1.1/" xmlns:sodipodi="http://sodipodi.sourceforge.net/DTD/sodipodi-0.dtd" xmlns:svg="http://www.w3.org/2000/svg" xmlns:ns1="http://sozi.baierouge.fr">
	
		<sodipodi:namedview  id="base" inkscape:current-layer="svg1" inkscape:cx="500" inkscape:cy="250" inkscape:window-height="704" inkscape:window-width="952" inkscape:window-x="353" inkscape:window-y="389" inkscape:zoom="0.544" showgrid="false">
		</sodipodi:namedview>
	<g id="g578" transform="scale(16.667)">
		<rect id="rect124" y="0" class="st0" width="60" height="30"/>
		<g id="g584">
			<path id="path146" class="st1" d="M0,0v3.4L53.3,30H60v-3.4L6.7,0L0,0L0,0z M60,0v3.4L6.7,30H0v-3.4L53.3,0H60z"/>
			<path id="path136" class="st1" d="M25,0v30h10V0H25z M0,10v10h60V10H0z"/>
			<path id="path141" class="st2" d="M0,12v6h60v-6H0z M27,0v30h6V0H27z"/>
			<path id="path150" class="st2" d="M0,30l20-10h4.5l-20,10H0z M0,0l20,10h-4.5L0,2.2C0,2.2,0,0,0,0z M35.5,10l20-10H60L40,10H35.5
				z M60,30L40,20h4.5L60,27.8V30z"/>
		</g>
	</g>
</g>
<g id="Layer_2" class="st3">
	<rect y="0" class="st4" width="1000" height="500"/>
	<rect x="301.1" y="0" class="st5" width="75.8" height="500"/>
	<rect y="214.3" class="st5" width="1000" height="71.4"/>
</g>
</svg>
